<?xml version="1.0" standalone="no"?>
 <!DOCTYPE svg PUBLIC "-//W3C//DTD SVG 1.1//EN" 
 "http://www.w3.org/Graphics/SVG/1.1/DTD/svg11.dtd"> 
<svg
  xmlns:svg="http://www.w3.org/2000/svg"
  xmlns="http://www.w3.org/2000/svg"
  xmlns:xlink="http://www.w3.org/1999/xlink"
  version="1.1"
  width="70.9930mm" height="33.6550mm" viewBox="0.0000 0.0000 70.9930 33.6550">
<title>SVG Image created as iolink-F_Silkscreen.svg date 2024/02/25 00:57:53 </title>
  <desc>Image generated by PCBNEW </desc>
<g style="fill:#000000; fill-opacity:1.0000;stroke:#000000; stroke-opacity:1.0000;
stroke-linecap:round; stroke-linejoin:round;"
 transform="translate(0 0) scale(1 1)">
</g>
<g style="fill:#000000; fill-opacity:0.0; 
stroke:#000000; stroke-width:0.0000; stroke-opacity:1; 
stroke-linecap:round; stroke-linejoin:round;">
</g>
<g style="fill:#000000; fill-opacity:1.0000; 
stroke:#000000; stroke-width:0.0212; stroke-opacity:1; 
stroke-linecap:round; stroke-linejoin:round;">
<rect x="-5.000000" y="-5.000000" width="81.000000" height="43.675000" rx="0.000000" />
</g>
<g style="fill:#FFFFFF; fill-opacity:1.0000; 
stroke:#FFFFFF; stroke-width:0.0212; stroke-opacity:1; 
stroke-linecap:round; stroke-linejoin:round;">
</g>
<g style="fill:#0D115E; fill-opacity:1.0000; 
stroke:#0D115E; stroke-width:0.0212; stroke-opacity:1; 
stroke-linecap:round; stroke-linejoin:round;">
</g>
<g style="fill:#0D115E; fill-opacity:1.0000; 
stroke:#0D115E; stroke-width:0.1500; stroke-opacity:1; 
stroke-linecap:round; stroke-linejoin:round;">
</g>
<g style="fill:#0D115E; fill-opacity:0.0; 
stroke:#0D115E; stroke-width:0.1500; stroke-opacity:1; 
stroke-linecap:round; stroke-linejoin:round;">
<text x="34.1100" y="10.4800"
textLength="2.2024" font-size="1.3333" lengthAdjust="spacingAndGlyphs"
text-anchor="middle" opacity="0">C3</text>
<g class="stroked-text"><desc>C3</desc>
<path d="M33.9433 10.3396
L33.8957 10.3872
" />
<path d="M33.8957 10.3872
L33.7529 10.4348
" />
<path d="M33.7529 10.4348
L33.6576 10.4348
" />
<path d="M33.6576 10.4348
L33.5148 10.3872
" />
<path d="M33.5148 10.3872
L33.4195 10.2920
" />
<path d="M33.4195 10.2920
L33.3719 10.1967
" />
<path d="M33.3719 10.1967
L33.3243 10.0062
" />
<path d="M33.3243 10.0062
L33.3243 9.8634
" />
<path d="M33.3243 9.8634
L33.3719 9.6729
" />
<path d="M33.3719 9.6729
L33.4195 9.5777
" />
<path d="M33.4195 9.5777
L33.5148 9.4824
" />
<path d="M33.5148 9.4824
L33.6576 9.4348
" />
<path d="M33.6576 9.4348
L33.7529 9.4348
" />
<path d="M33.7529 9.4348
L33.8957 9.4824
" />
<path d="M33.8957 9.4824
L33.9433 9.5301
" />
<path d="M34.2767 9.4348
L34.8957 9.4348
" />
<path d="M34.8957 9.4348
L34.5624 9.8158
" />
<path d="M34.5624 9.8158
L34.7052 9.8158
" />
<path d="M34.7052 9.8158
L34.8005 9.8634
" />
<path d="M34.8005 9.8634
L34.8481 9.9110
" />
<path d="M34.8481 9.9110
L34.8957 10.0062
" />
<path d="M34.8957 10.0062
L34.8957 10.2443
" />
<path d="M34.8957 10.2443
L34.8481 10.3396
" />
<path d="M34.8481 10.3396
L34.8005 10.3872
" />
<path d="M34.8005 10.3872
L34.7052 10.4348
" />
<path d="M34.7052 10.4348
L34.4195 10.4348
" />
<path d="M34.4195 10.4348
L34.3243 10.3872
" />
<path d="M34.3243 10.3872
L34.2767 10.3396
" />
</g><text x="35.7600" y="26.3900"
textLength="1.9643" font-size="1.3333" lengthAdjust="spacingAndGlyphs"
text-anchor="middle" opacity="0">J3</text>
<g class="stroked-text"><desc>J3</desc>
<path d="M35.4267 25.3448
L35.4267 26.0591
" />
<path d="M35.4267 26.0591
L35.3790 26.2020
" />
<path d="M35.3790 26.2020
L35.2838 26.2972
" />
<path d="M35.2838 26.2972
L35.1410 26.3448
" />
<path d="M35.1410 26.3448
L35.0457 26.3448
" />
<path d="M35.8076 25.3448
L36.4267 25.3448
" />
<path d="M36.4267 25.3448
L36.0933 25.7258
" />
<path d="M36.0933 25.7258
L36.2362 25.7258
" />
<path d="M36.2362 25.7258
L36.3314 25.7734
" />
<path d="M36.3314 25.7734
L36.3790 25.8210
" />
<path d="M36.3790 25.8210
L36.4267 25.9162
" />
<path d="M36.4267 25.9162
L36.4267 26.1543
" />
<path d="M36.4267 26.1543
L36.3790 26.2496
" />
<path d="M36.3790 26.2496
L36.3314 26.2972
" />
<path d="M36.3314 26.2972
L36.2362 26.3448
" />
<path d="M36.2362 26.3448
L35.9505 26.3448
" />
<path d="M35.9505 26.3448
L35.8552 26.2972
" />
<path d="M35.8552 26.2972
L35.8076 26.2496
" />
</g><text x="2.6900" y="7.7900"
textLength="2.2024" font-size="1.3333" lengthAdjust="spacingAndGlyphs"
text-anchor="middle" opacity="0">R8</text>
<g class="stroked-text"><desc>R8</desc>
<path d="M2.5233 7.7448
L2.1900 7.2686
" />
<path d="M1.9519 7.7448
L1.9519 6.7448
" />
<path d="M1.9519 6.7448
L2.3329 6.7448
" />
<path d="M2.3329 6.7448
L2.4281 6.7924
" />
<path d="M2.4281 6.7924
L2.4757 6.8401
" />
<path d="M2.4757 6.8401
L2.5233 6.9353
" />
<path d="M2.5233 6.9353
L2.5233 7.0782
" />
<path d="M2.5233 7.0782
L2.4757 7.1734
" />
<path d="M2.4757 7.1734
L2.4281 7.2210
" />
<path d="M2.4281 7.2210
L2.3329 7.2686
" />
<path d="M2.3329 7.2686
L1.9519 7.2686
" />
<path d="M3.0948 7.1734
L2.9995 7.1258
" />
<path d="M2.9995 7.1258
L2.9519 7.0782
" />
<path d="M2.9519 7.0782
L2.9043 6.9829
" />
<path d="M2.9043 6.9829
L2.9043 6.9353
" />
<path d="M2.9043 6.9353
L2.9519 6.8401
" />
<path d="M2.9519 6.8401
L2.9995 6.7924
" />
<path d="M2.9995 6.7924
L3.0948 6.7448
" />
<path d="M3.0948 6.7448
L3.2852 6.7448
" />
<path d="M3.2852 6.7448
L3.3805 6.7924
" />
<path d="M3.3805 6.7924
L3.4281 6.8401
" />
<path d="M3.4281 6.8401
L3.4757 6.9353
" />
<path d="M3.4757 6.9353
L3.4757 6.9829
" />
<path d="M3.4757 6.9829
L3.4281 7.0782
" />
<path d="M3.4281 7.0782
L3.3805 7.1258
" />
<path d="M3.3805 7.1258
L3.2852 7.1734
" />
<path d="M3.2852 7.1734
L3.0948 7.1734
" />
<path d="M3.0948 7.1734
L2.9995 7.2210
" />
<path d="M2.9995 7.2210
L2.9519 7.2686
" />
<path d="M2.9519 7.2686
L2.9043 7.3639
" />
<path d="M2.9043 7.3639
L2.9043 7.5543
" />
<path d="M2.9043 7.5543
L2.9519 7.6496
" />
<path d="M2.9519 7.6496
L2.9995 7.6972
" />
<path d="M2.9995 7.6972
L3.0948 7.7448
" />
<path d="M3.0948 7.7448
L3.2852 7.7448
" />
<path d="M3.2852 7.7448
L3.3805 7.6972
" />
<path d="M3.3805 7.6972
L3.4281 7.6496
" />
<path d="M3.4281 7.6496
L3.4757 7.5543
" />
<path d="M3.4757 7.5543
L3.4757 7.3639
" />
<path d="M3.4757 7.3639
L3.4281 7.2686
" />
<path d="M3.4281 7.2686
L3.3805 7.2210
" />
<path d="M3.3805 7.2210
L3.2852 7.1734
" />
</g><text x="10.2420" y="9.4550"
textLength="3.1548" font-size="1.3333" lengthAdjust="spacingAndGlyphs"
text-anchor="middle" opacity="0">R12</text>
<g class="stroked-text"><desc>R12</desc>
<path d="M9.5991 9.4098
L9.2658 8.9336
" />
<path d="M9.0277 9.4098
L9.0277 8.4098
" />
<path d="M9.0277 8.4098
L9.4087 8.4098
" />
<path d="M9.4087 8.4098
L9.5039 8.4574
" />
<path d="M9.5039 8.4574
L9.5515 8.5051
" />
<path d="M9.5515 8.5051
L9.5991 8.6003
" />
<path d="M9.5991 8.6003
L9.5991 8.7432
" />
<path d="M9.5991 8.7432
L9.5515 8.8384
" />
<path d="M9.5515 8.8384
L9.5039 8.8860
" />
<path d="M9.5039 8.8860
L9.4087 8.9336
" />
<path d="M9.4087 8.9336
L9.0277 8.9336
" />
<path d="M10.5515 9.4098
L9.9801 9.4098
" />
<path d="M10.2658 9.4098
L10.2658 8.4098
" />
<path d="M10.2658 8.4098
L10.1706 8.5527
" />
<path d="M10.1706 8.5527
L10.0753 8.6479
" />
<path d="M10.0753 8.6479
L9.9801 8.6955
" />
<path d="M10.9325 8.5051
L10.9801 8.4574
" />
<path d="M10.9801 8.4574
L11.0753 8.4098
" />
<path d="M11.0753 8.4098
L11.3134 8.4098
" />
<path d="M11.3134 8.4098
L11.4087 8.4574
" />
<path d="M11.4087 8.4574
L11.4563 8.5051
" />
<path d="M11.4563 8.5051
L11.5039 8.6003
" />
<path d="M11.5039 8.6003
L11.5039 8.6955
" />
<path d="M11.5039 8.6955
L11.4563 8.8384
" />
<path d="M11.4563 8.8384
L10.8849 9.4098
" />
<path d="M10.8849 9.4098
L11.5039 9.4098
" />
</g><g transform="rotate(-90.000000 32.2600 21.4600)">
<text x="32.2600" y="21.9600"
textLength="3.1548" font-size="1.3333" lengthAdjust="spacingAndGlyphs"
text-anchor="middle" opacity="0">C13</text>
</g>
<g class="stroked-text"><desc>C13</desc>
<path d="M32.6196 22.1029
L32.6672 22.1505
" />
<path d="M32.6672 22.1505
L32.7148 22.2933
" />
<path d="M32.7148 22.2933
L32.7148 22.3886
" />
<path d="M32.7148 22.3886
L32.6672 22.5314
" />
<path d="M32.6672 22.5314
L32.5720 22.6267
" />
<path d="M32.5720 22.6267
L32.4767 22.6743
" />
<path d="M32.4767 22.6743
L32.2862 22.7219
" />
<path d="M32.2862 22.7219
L32.1434 22.7219
" />
<path d="M32.1434 22.7219
L31.9529 22.6743
" />
<path d="M31.9529 22.6743
L31.8577 22.6267
" />
<path d="M31.8577 22.6267
L31.7624 22.5314
" />
<path d="M31.7624 22.5314
L31.7148 22.3886
" />
<path d="M31.7148 22.3886
L31.7148 22.2933
" />
<path d="M31.7148 22.2933
L31.7624 22.1505
" />
<path d="M31.7624 22.1505
L31.8101 22.1029
" />
<path d="M32.7148 21.1505
L32.7148 21.7219
" />
<path d="M32.7148 21.4362
L31.7148 21.4362
" />
<path d="M31.7148 21.4362
L31.8577 21.5314
" />
<path d="M31.8577 21.5314
L31.9529 21.6267
" />
<path d="M31.9529 21.6267
L32.0005 21.7219
" />
<path d="M31.7148 20.8171
L31.7148 20.1981
" />
<path d="M31.7148 20.1981
L32.0958 20.5314
" />
<path d="M32.0958 20.5314
L32.0958 20.3886
" />
<path d="M32.0958 20.3886
L32.1434 20.2933
" />
<path d="M32.1434 20.2933
L32.1910 20.2457
" />
<path d="M32.1910 20.2457
L32.2862 20.1981
" />
<path d="M32.2862 20.1981
L32.5243 20.1981
" />
<path d="M32.5243 20.1981
L32.6196 20.2457
" />
<path d="M32.6196 20.2457
L32.6672 20.2933
" />
<path d="M32.6672 20.2933
L32.7148 20.3886
" />
<path d="M32.7148 20.3886
L32.7148 20.6743
" />
<path d="M32.7148 20.6743
L32.6672 20.7695
" />
<path d="M32.6672 20.7695
L32.6196 20.8171
" />
</g><g transform="rotate(-90.000000 59.1700 3.5700)">
<text x="59.1700" y="4.0700"
textLength="2.2024" font-size="1.3333" lengthAdjust="spacingAndGlyphs"
text-anchor="middle" opacity="0">C6</text>
</g>
<g class="stroked-text"><desc>C6</desc>
<path d="M59.5296 3.7367
L59.5772 3.7843
" />
<path d="M59.5772 3.7843
L59.6248 3.9271
" />
<path d="M59.6248 3.9271
L59.6248 4.0224
" />
<path d="M59.6248 4.0224
L59.5772 4.1652
" />
<path d="M59.5772 4.1652
L59.4820 4.2605
" />
<path d="M59.4820 4.2605
L59.3867 4.3081
" />
<path d="M59.3867 4.3081
L59.1962 4.3557
" />
<path d="M59.1962 4.3557
L59.0534 4.3557
" />
<path d="M59.0534 4.3557
L58.8629 4.3081
" />
<path d="M58.8629 4.3081
L58.7677 4.2605
" />
<path d="M58.7677 4.2605
L58.6724 4.1652
" />
<path d="M58.6724 4.1652
L58.6248 4.0224
" />
<path d="M58.6248 4.0224
L58.6248 3.9271
" />
<path d="M58.6248 3.9271
L58.6724 3.7843
" />
<path d="M58.6724 3.7843
L58.7201 3.7367
" />
<path d="M58.6248 2.8795
L58.6248 3.0700
" />
<path d="M58.6248 3.0700
L58.6724 3.1652
" />
<path d="M58.6724 3.1652
L58.7201 3.2129
" />
<path d="M58.7201 3.2129
L58.8629 3.3081
" />
<path d="M58.8629 3.3081
L59.0534 3.3557
" />
<path d="M59.0534 3.3557
L59.4343 3.3557
" />
<path d="M59.4343 3.3557
L59.5296 3.3081
" />
<path d="M59.5296 3.3081
L59.5772 3.2605
" />
<path d="M59.5772 3.2605
L59.6248 3.1652
" />
<path d="M59.6248 3.1652
L59.6248 2.9748
" />
<path d="M59.6248 2.9748
L59.5772 2.8795
" />
<path d="M59.5772 2.8795
L59.5296 2.8319
" />
<path d="M59.5296 2.8319
L59.4343 2.7843
" />
<path d="M59.4343 2.7843
L59.1962 2.7843
" />
<path d="M59.1962 2.7843
L59.1010 2.8319
" />
<path d="M59.1010 2.8319
L59.0534 2.8795
" />
<path d="M59.0534 2.8795
L59.0058 2.9748
" />
<path d="M59.0058 2.9748
L59.0058 3.1652
" />
<path d="M59.0058 3.1652
L59.0534 3.2605
" />
<path d="M59.0534 3.2605
L59.1010 3.3081
" />
<path d="M59.1010 3.3081
L59.1962 3.3557
" />
</g><g transform="rotate(-90.000000 61.4650 21.3000)">
<text x="61.4650" y="21.8000"
textLength="2.2024" font-size="1.3333" lengthAdjust="spacingAndGlyphs"
text-anchor="middle" opacity="0">C1</text>
</g>
<g class="stroked-text"><desc>C1</desc>
<path d="M61.8246 21.4667
L61.8722 21.5143
" />
<path d="M61.8722 21.5143
L61.9198 21.6571
" />
<path d="M61.9198 21.6571
L61.9198 21.7524
" />
<path d="M61.9198 21.7524
L61.8722 21.8952
" />
<path d="M61.8722 21.8952
L61.7770 21.9905
" />
<path d="M61.7770 21.9905
L61.6817 22.0381
" />
<path d="M61.6817 22.0381
L61.4912 22.0857
" />
<path d="M61.4912 22.0857
L61.3484 22.0857
" />
<path d="M61.3484 22.0857
L61.1579 22.0381
" />
<path d="M61.1579 22.0381
L61.0627 21.9905
" />
<path d="M61.0627 21.9905
L60.9674 21.8952
" />
<path d="M60.9674 21.8952
L60.9198 21.7524
" />
<path d="M60.9198 21.7524
L60.9198 21.6571
" />
<path d="M60.9198 21.6571
L60.9674 21.5143
" />
<path d="M60.9674 21.5143
L61.0151 21.4667
" />
<path d="M61.9198 20.5143
L61.9198 21.0857
" />
<path d="M61.9198 20.8000
L60.9198 20.8000
" />
<path d="M60.9198 20.8000
L61.0627 20.8952
" />
<path d="M61.0627 20.8952
L61.1579 20.9905
" />
<path d="M61.1579 20.9905
L61.2055 21.0857
" />
</g><g transform="rotate(-90.000000 52.9863 15.1330)">
<text x="52.9863" y="15.6330"
textLength="2.2024" font-size="1.3333" lengthAdjust="spacingAndGlyphs"
text-anchor="middle" opacity="0">R4</text>
</g>
<g class="stroked-text"><desc>R4</desc>
<path d="M53.4412 15.2997
L52.9650 15.6330
" />
<path d="M53.4412 15.8711
L52.4412 15.8711
" />
<path d="M52.4412 15.8711
L52.4412 15.4901
" />
<path d="M52.4412 15.4901
L52.4888 15.3949
" />
<path d="M52.4888 15.3949
L52.5364 15.3473
" />
<path d="M52.5364 15.3473
L52.6316 15.2997
" />
<path d="M52.6316 15.2997
L52.7745 15.2997
" />
<path d="M52.7745 15.2997
L52.8697 15.3473
" />
<path d="M52.8697 15.3473
L52.9173 15.3949
" />
<path d="M52.9173 15.3949
L52.9650 15.4901
" />
<path d="M52.9650 15.4901
L52.9650 15.8711
" />
<path d="M52.7745 14.4425
L53.4412 14.4425
" />
<path d="M52.3935 14.6806
L53.1078 14.9187
" />
<path d="M53.1078 14.9187
L53.1078 14.2997
" />
</g></g>
<g style="fill:#0D115E; fill-opacity:0.0; 
stroke:#0D115E; stroke-width:0.2540; stroke-opacity:1; 
stroke-linecap:round; stroke-linejoin:round;">
<g transform="rotate(-90.000000 58.5600 12.1150)">
<text x="58.5600" y="12.7500"
textLength="3.5923" font-size="1.6933" lengthAdjust="spacingAndGlyphs"
text-anchor="middle" opacity="0">IC4</text>
</g>
<g class="stroked-text"><desc>IC4</desc>
<path d="M59.1343 13.3548
L57.8643 13.3548
" />
<path d="M59.0134 12.0243
L59.0738 12.0848
" />
<path d="M59.0738 12.0848
L59.1343 12.2662
" />
<path d="M59.1343 12.2662
L59.1343 12.3871
" />
<path d="M59.1343 12.3871
L59.0738 12.5686
" />
<path d="M59.0738 12.5686
L58.9529 12.6895
" />
<path d="M58.9529 12.6895
L58.8319 12.7500
" />
<path d="M58.8319 12.7500
L58.5900 12.8105
" />
<path d="M58.5900 12.8105
L58.4086 12.8105
" />
<path d="M58.4086 12.8105
L58.1667 12.7500
" />
<path d="M58.1667 12.7500
L58.0457 12.6895
" />
<path d="M58.0457 12.6895
L57.9248 12.5686
" />
<path d="M57.9248 12.5686
L57.8643 12.3871
" />
<path d="M57.8643 12.3871
L57.8643 12.2662
" />
<path d="M57.8643 12.2662
L57.9248 12.0848
" />
<path d="M57.9248 12.0848
L57.9853 12.0243
" />
<path d="M58.2877 10.9357
L59.1343 10.9357
" />
<path d="M57.8038 11.2381
L58.7110 11.5405
" />
<path d="M58.7110 11.5405
L58.7110 10.7543
" />
</g></g>
<g style="fill:#0D115E; fill-opacity:0.0; 
stroke:#0D115E; stroke-width:0.1500; stroke-opacity:1; 
stroke-linecap:round; stroke-linejoin:round;">
<text x="28.5600" y="24.7800"
textLength="3.1548" font-size="1.3333" lengthAdjust="spacingAndGlyphs"
text-anchor="middle" opacity="0">R13</text>
<g class="stroked-text"><desc>R13</desc>
<path d="M27.9171 24.7348
L27.5838 24.2586
" />
<path d="M27.3457 24.7348
L27.3457 23.7348
" />
<path d="M27.3457 23.7348
L27.7267 23.7348
" />
<path d="M27.7267 23.7348
L27.8219 23.7824
" />
<path d="M27.8219 23.7824
L27.8695 23.8301
" />
<path d="M27.8695 23.8301
L27.9171 23.9253
" />
<path d="M27.9171 23.9253
L27.9171 24.0682
" />
<path d="M27.9171 24.0682
L27.8695 24.1634
" />
<path d="M27.8695 24.1634
L27.8219 24.2110
" />
<path d="M27.8219 24.2110
L27.7267 24.2586
" />
<path d="M27.7267 24.2586
L27.3457 24.2586
" />
<path d="M28.8695 24.7348
L28.2981 24.7348
" />
<path d="M28.5838 24.7348
L28.5838 23.7348
" />
<path d="M28.5838 23.7348
L28.4886 23.8777
" />
<path d="M28.4886 23.8777
L28.3933 23.9729
" />
<path d="M28.3933 23.9729
L28.2981 24.0205
" />
<path d="M29.2029 23.7348
L29.8219 23.7348
" />
<path d="M29.8219 23.7348
L29.4886 24.1158
" />
<path d="M29.4886 24.1158
L29.6314 24.1158
" />
<path d="M29.6314 24.1158
L29.7267 24.1634
" />
<path d="M29.7267 24.1634
L29.7743 24.2110
" />
<path d="M29.7743 24.2110
L29.8219 24.3062
" />
<path d="M29.8219 24.3062
L29.8219 24.5443
" />
<path d="M29.8219 24.5443
L29.7743 24.6396
" />
<path d="M29.7743 24.6396
L29.7267 24.6872
" />
<path d="M29.7267 24.6872
L29.6314 24.7348
" />
<path d="M29.6314 24.7348
L29.3457 24.7348
" />
<path d="M29.3457 24.7348
L29.2505 24.6872
" />
<path d="M29.2505 24.6872
L29.2029 24.6396
" />
</g><g transform="rotate(-90.000000 23.0200 7.8500)">
<text x="23.0200" y="8.3500"
textLength="2.2024" font-size="1.3333" lengthAdjust="spacingAndGlyphs"
text-anchor="middle" opacity="0">C4</text>
</g>
<g class="stroked-text"><desc>C4</desc>
<path d="M23.3796 8.0167
L23.4272 8.0643
" />
<path d="M23.4272 8.0643
L23.4748 8.2071
" />
<path d="M23.4748 8.2071
L23.4748 8.3024
" />
<path d="M23.4748 8.3024
L23.4272 8.4452
" />
<path d="M23.4272 8.4452
L23.3320 8.5405
" />
<path d="M23.3320 8.5405
L23.2367 8.5881
" />
<path d="M23.2367 8.5881
L23.0462 8.6357
" />
<path d="M23.0462 8.6357
L22.9034 8.6357
" />
<path d="M22.9034 8.6357
L22.7129 8.5881
" />
<path d="M22.7129 8.5881
L22.6177 8.5405
" />
<path d="M22.6177 8.5405
L22.5224 8.4452
" />
<path d="M22.5224 8.4452
L22.4748 8.3024
" />
<path d="M22.4748 8.3024
L22.4748 8.2071
" />
<path d="M22.4748 8.2071
L22.5224 8.0643
" />
<path d="M22.5224 8.0643
L22.5701 8.0167
" />
<path d="M22.8082 7.1595
L23.4748 7.1595
" />
<path d="M22.4272 7.3976
L23.1415 7.6357
" />
<path d="M23.1415 7.6357
L23.1415 7.0167
" />
</g><g transform="rotate(-90.000000 66.1800 16.1200)">
<text x="66.1800" y="16.6200"
textLength="1.9643" font-size="1.3333" lengthAdjust="spacingAndGlyphs"
text-anchor="middle" opacity="0">J2</text>
</g>
<g class="stroked-text"><desc>J2</desc>
<path d="M65.6348 16.4533
L66.3491 16.4533
" />
<path d="M66.3491 16.4533
L66.4920 16.5010
" />
<path d="M66.4920 16.5010
L66.5872 16.5962
" />
<path d="M66.5872 16.5962
L66.6348 16.7390
" />
<path d="M66.6348 16.7390
L66.6348 16.8343
" />
<path d="M65.7301 16.0248
L65.6824 15.9771
" />
<path d="M65.6824 15.9771
L65.6348 15.8819
" />
<path d="M65.6348 15.8819
L65.6348 15.6438
" />
<path d="M65.6348 15.6438
L65.6824 15.5486
" />
<path d="M65.6824 15.5486
L65.7301 15.5010
" />
<path d="M65.7301 15.5010
L65.8253 15.4533
" />
<path d="M65.8253 15.4533
L65.9205 15.4533
" />
<path d="M65.9205 15.4533
L66.0634 15.5010
" />
<path d="M66.0634 15.5010
L66.6348 16.0724
" />
<path d="M66.6348 16.0724
L66.6348 15.4533
" />
</g></g>
<g style="fill:#0D115E; fill-opacity:0.0; 
stroke:#0D115E; stroke-width:0.2540; stroke-opacity:1; 
stroke-linecap:round; stroke-linejoin:round;">
<g transform="rotate(-90.000000 28.9500 5.0500)">
<text x="28.9500" y="5.6850"
textLength="3.5923" font-size="1.6933" lengthAdjust="spacingAndGlyphs"
text-anchor="middle" opacity="0">IC2</text>
</g>
<g class="stroked-text"><desc>IC2</desc>
<path d="M29.5243 6.2898
L28.2543 6.2898
" />
<path d="M29.4034 4.9593
L29.4638 5.0198
" />
<path d="M29.4638 5.0198
L29.5243 5.2012
" />
<path d="M29.5243 5.2012
L29.5243 5.3221
" />
<path d="M29.5243 5.3221
L29.4638 5.5036
" />
<path d="M29.4638 5.5036
L29.3429 5.6245
" />
<path d="M29.3429 5.6245
L29.2219 5.6850
" />
<path d="M29.2219 5.6850
L28.9800 5.7455
" />
<path d="M28.9800 5.7455
L28.7986 5.7455
" />
<path d="M28.7986 5.7455
L28.5567 5.6850
" />
<path d="M28.5567 5.6850
L28.4357 5.6245
" />
<path d="M28.4357 5.6245
L28.3148 5.5036
" />
<path d="M28.3148 5.5036
L28.2543 5.3221
" />
<path d="M28.2543 5.3221
L28.2543 5.2012
" />
<path d="M28.2543 5.2012
L28.3148 5.0198
" />
<path d="M28.3148 5.0198
L28.3753 4.9593
" />
<path d="M28.3753 4.4755
L28.3148 4.4150
" />
<path d="M28.3148 4.4150
L28.2543 4.2940
" />
<path d="M28.2543 4.2940
L28.2543 3.9917
" />
<path d="M28.2543 3.9917
L28.3148 3.8707
" />
<path d="M28.3148 3.8707
L28.3753 3.8102
" />
<path d="M28.3753 3.8102
L28.4962 3.7498
" />
<path d="M28.4962 3.7498
L28.6172 3.7498
" />
<path d="M28.6172 3.7498
L28.7986 3.8102
" />
<path d="M28.7986 3.8102
L29.5243 4.5360
" />
<path d="M29.5243 4.5360
L29.5243 3.7498
" />
</g></g>
<g style="fill:#0D115E; fill-opacity:0.0; 
stroke:#0D115E; stroke-width:0.1500; stroke-opacity:1; 
stroke-linecap:round; stroke-linejoin:round;">
<text x="42.3250" y="8.0862"
textLength="2.0595" font-size="1.3333" lengthAdjust="spacingAndGlyphs"
text-anchor="middle" opacity="0">Y1</text>
<g class="stroked-text"><desc>Y1</desc>
<path d="M41.8488 7.5648
L41.8488 8.0410
" />
<path d="M41.5155 7.0410
L41.8488 7.5648
" />
<path d="M41.8488 7.5648
L42.1821 7.0410
" />
<path d="M43.0393 8.0410
L42.4679 8.0410
" />
<path d="M42.7536 8.0410
L42.7536 7.0410
" />
<path d="M42.7536 7.0410
L42.6583 7.1838
" />
<path d="M42.6583 7.1838
L42.5631 7.2791
" />
<path d="M42.5631 7.2791
L42.4679 7.3267
" />
</g><g transform="rotate(-90.000000 62.7250 19.6000)">
<text x="62.7250" y="20.1000"
textLength="2.2024" font-size="1.3333" lengthAdjust="spacingAndGlyphs"
text-anchor="middle" opacity="0">R1</text>
</g>
<g class="stroked-text"><desc>R1</desc>
<path d="M63.1798 19.7667
L62.7036 20.1000
" />
<path d="M63.1798 20.3381
L62.1798 20.3381
" />
<path d="M62.1798 20.3381
L62.1798 19.9571
" />
<path d="M62.1798 19.9571
L62.2274 19.8619
" />
<path d="M62.2274 19.8619
L62.2751 19.8143
" />
<path d="M62.2751 19.8143
L62.3703 19.7667
" />
<path d="M62.3703 19.7667
L62.5132 19.7667
" />
<path d="M62.5132 19.7667
L62.6084 19.8143
" />
<path d="M62.6084 19.8143
L62.6560 19.8619
" />
<path d="M62.6560 19.8619
L62.7036 19.9571
" />
<path d="M62.7036 19.9571
L62.7036 20.3381
" />
<path d="M63.1798 18.8143
L63.1798 19.3857
" />
<path d="M63.1798 19.1000
L62.1798 19.1000
" />
<path d="M62.1798 19.1000
L62.3227 19.1952
" />
<path d="M62.3227 19.1952
L62.4179 19.2905
" />
<path d="M62.4179 19.2905
L62.4655 19.3857
" />
</g></g>
<g style="fill:#0D115E; fill-opacity:0.0; 
stroke:#0D115E; stroke-width:0.2540; stroke-opacity:1; 
stroke-linecap:round; stroke-linejoin:round;">
<text x="21.0550" y="17.1100"
textLength="3.5923" font-size="1.6933" lengthAdjust="spacingAndGlyphs"
text-anchor="middle" opacity="0">IC1</text>
<g class="stroked-text"><desc>IC1</desc>
<path d="M19.8152 17.0493
L19.8152 15.7793
" />
<path d="M21.1457 16.9284
L21.0852 16.9888
" />
<path d="M21.0852 16.9888
L20.9038 17.0493
" />
<path d="M20.9038 17.0493
L20.7829 17.0493
" />
<path d="M20.7829 17.0493
L20.6014 16.9888
" />
<path d="M20.6014 16.9888
L20.4805 16.8679
" />
<path d="M20.4805 16.8679
L20.4200 16.7469
" />
<path d="M20.4200 16.7469
L20.3595 16.5050
" />
<path d="M20.3595 16.5050
L20.3595 16.3236
" />
<path d="M20.3595 16.3236
L20.4200 16.0817
" />
<path d="M20.4200 16.0817
L20.4805 15.9607
" />
<path d="M20.4805 15.9607
L20.6014 15.8398
" />
<path d="M20.6014 15.8398
L20.7829 15.7793
" />
<path d="M20.7829 15.7793
L20.9038 15.7793
" />
<path d="M20.9038 15.7793
L21.0852 15.8398
" />
<path d="M21.0852 15.8398
L21.1457 15.9003
" />
<path d="M22.3552 17.0493
L21.6295 17.0493
" />
<path d="M21.9924 17.0493
L21.9924 15.7793
" />
<path d="M21.9924 15.7793
L21.8714 15.9607
" />
<path d="M21.8714 15.9607
L21.7505 16.0817
" />
<path d="M21.7505 16.0817
L21.6295 16.1422
" />
</g></g>
<g style="fill:#0D115E; fill-opacity:0.0; 
stroke:#0D115E; stroke-width:0.1500; stroke-opacity:1; 
stroke-linecap:round; stroke-linejoin:round;">
<g transform="rotate(-90.000000 57.5600 3.5800)">
<text x="57.5600" y="4.0800"
textLength="2.2024" font-size="1.3333" lengthAdjust="spacingAndGlyphs"
text-anchor="middle" opacity="0">R3</text>
</g>
<g class="stroked-text"><desc>R3</desc>
<path d="M58.0148 3.7467
L57.5386 4.0800
" />
<path d="M58.0148 4.3181
L57.0148 4.3181
" />
<path d="M57.0148 4.3181
L57.0148 3.9371
" />
<path d="M57.0148 3.9371
L57.0624 3.8419
" />
<path d="M57.0624 3.8419
L57.1101 3.7943
" />
<path d="M57.1101 3.7943
L57.2053 3.7467
" />
<path d="M57.2053 3.7467
L57.3482 3.7467
" />
<path d="M57.3482 3.7467
L57.4434 3.7943
" />
<path d="M57.4434 3.7943
L57.4910 3.8419
" />
<path d="M57.4910 3.8419
L57.5386 3.9371
" />
<path d="M57.5386 3.9371
L57.5386 4.3181
" />
<path d="M57.0148 3.4133
L57.0148 2.7943
" />
<path d="M57.0148 2.7943
L57.3958 3.1276
" />
<path d="M57.3958 3.1276
L57.3958 2.9848
" />
<path d="M57.3958 2.9848
L57.4434 2.8895
" />
<path d="M57.4434 2.8895
L57.4910 2.8419
" />
<path d="M57.4910 2.8419
L57.5862 2.7943
" />
<path d="M57.5862 2.7943
L57.8243 2.7943
" />
<path d="M57.8243 2.7943
L57.9196 2.8419
" />
<path d="M57.9196 2.8419
L57.9672 2.8895
" />
<path d="M57.9672 2.8895
L58.0148 2.9848
" />
<path d="M58.0148 2.9848
L58.0148 3.2705
" />
<path d="M58.0148 3.2705
L57.9672 3.3657
" />
<path d="M57.9672 3.3657
L57.9196 3.4133
" />
</g><text x="41.0500" y="6.5062"
textLength="3.1548" font-size="1.3333" lengthAdjust="spacingAndGlyphs"
text-anchor="middle" opacity="0">C15</text>
<g class="stroked-text"><desc>C15</desc>
<path d="M40.4071 6.3657
L40.3595 6.4134
" />
<path d="M40.3595 6.4134
L40.2167 6.4610
" />
<path d="M40.2167 6.4610
L40.1214 6.4610
" />
<path d="M40.1214 6.4610
L39.9786 6.4134
" />
<path d="M39.9786 6.4134
L39.8833 6.3181
" />
<path d="M39.8833 6.3181
L39.8357 6.2229
" />
<path d="M39.8357 6.2229
L39.7881 6.0324
" />
<path d="M39.7881 6.0324
L39.7881 5.8896
" />
<path d="M39.7881 5.8896
L39.8357 5.6991
" />
<path d="M39.8357 5.6991
L39.8833 5.6038
" />
<path d="M39.8833 5.6038
L39.9786 5.5086
" />
<path d="M39.9786 5.5086
L40.1214 5.4610
" />
<path d="M40.1214 5.4610
L40.2167 5.4610
" />
<path d="M40.2167 5.4610
L40.3595 5.5086
" />
<path d="M40.3595 5.5086
L40.4071 5.5562
" />
<path d="M41.3595 6.4610
L40.7881 6.4610
" />
<path d="M41.0738 6.4610
L41.0738 5.4610
" />
<path d="M41.0738 5.4610
L40.9786 5.6038
" />
<path d="M40.9786 5.6038
L40.8833 5.6991
" />
<path d="M40.8833 5.6991
L40.7881 5.7467
" />
<path d="M42.2643 5.4610
L41.7881 5.4610
" />
<path d="M41.7881 5.4610
L41.7405 5.9372
" />
<path d="M41.7405 5.9372
L41.7881 5.8896
" />
<path d="M41.7881 5.8896
L41.8833 5.8419
" />
<path d="M41.8833 5.8419
L42.1214 5.8419
" />
<path d="M42.1214 5.8419
L42.2167 5.8896
" />
<path d="M42.2167 5.8896
L42.2643 5.9372
" />
<path d="M42.2643 5.9372
L42.3119 6.0324
" />
<path d="M42.3119 6.0324
L42.3119 6.2705
" />
<path d="M42.3119 6.2705
L42.2643 6.3657
" />
<path d="M42.2643 6.3657
L42.2167 6.4134
" />
<path d="M42.2167 6.4134
L42.1214 6.4610
" />
<path d="M42.1214 6.4610
L41.8833 6.4610
" />
<path d="M41.8833 6.4610
L41.7881 6.4134
" />
<path d="M41.7881 6.4134
L41.7405 6.3657
" />
</g><text x="6.0450" y="25.5100"
textLength="1.9643" font-size="1.3333" lengthAdjust="spacingAndGlyphs"
text-anchor="middle" opacity="0">J4</text>
<g class="stroked-text"><desc>J4</desc>
<path d="M5.7117 24.4648
L5.7117 25.1791
" />
<path d="M5.7117 25.1791
L5.6640 25.3220
" />
<path d="M5.6640 25.3220
L5.5688 25.4172
" />
<path d="M5.5688 25.4172
L5.4260 25.4648
" />
<path d="M5.4260 25.4648
L5.3307 25.4648
" />
<path d="M6.6164 24.7982
L6.6164 25.4648
" />
<path d="M6.3783 24.4172
L6.1402 25.1315
" />
<path d="M6.1402 25.1315
L6.7593 25.1315
" />
</g><text x="60.2500" y="28.7800"
textLength="3.1548" font-size="1.3333" lengthAdjust="spacingAndGlyphs"
text-anchor="middle" opacity="0">R14</text>
<g class="stroked-text"><desc>R14</desc>
<path d="M59.6071 28.7348
L59.2738 28.2586
" />
<path d="M59.0357 28.7348
L59.0357 27.7348
" />
<path d="M59.0357 27.7348
L59.4167 27.7348
" />
<path d="M59.4167 27.7348
L59.5119 27.7824
" />
<path d="M59.5119 27.7824
L59.5595 27.8301
" />
<path d="M59.5595 27.8301
L59.6071 27.9253
" />
<path d="M59.6071 27.9253
L59.6071 28.0682
" />
<path d="M59.6071 28.0682
L59.5595 28.1634
" />
<path d="M59.5595 28.1634
L59.5119 28.2110
" />
<path d="M59.5119 28.2110
L59.4167 28.2586
" />
<path d="M59.4167 28.2586
L59.0357 28.2586
" />
<path d="M60.5595 28.7348
L59.9881 28.7348
" />
<path d="M60.2738 28.7348
L60.2738 27.7348
" />
<path d="M60.2738 27.7348
L60.1786 27.8777
" />
<path d="M60.1786 27.8777
L60.0833 27.9729
" />
<path d="M60.0833 27.9729
L59.9881 28.0205
" />
<path d="M61.4167 28.0682
L61.4167 28.7348
" />
<path d="M61.1786 27.6872
L60.9405 28.4015
" />
<path d="M60.9405 28.4015
L61.5595 28.4015
" />
</g><text x="55.8000" y="26.3700"
textLength="3.1548" font-size="1.3333" lengthAdjust="spacingAndGlyphs"
text-anchor="middle" opacity="0">C14</text>
<g class="stroked-text"><desc>C14</desc>
<path d="M55.1571 26.2296
L55.1095 26.2772
" />
<path d="M55.1095 26.2772
L54.9667 26.3248
" />
<path d="M54.9667 26.3248
L54.8714 26.3248
" />
<path d="M54.8714 26.3248
L54.7286 26.2772
" />
<path d="M54.7286 26.2772
L54.6333 26.1820
" />
<path d="M54.6333 26.1820
L54.5857 26.0867
" />
<path d="M54.5857 26.0867
L54.5381 25.8962
" />
<path d="M54.5381 25.8962
L54.5381 25.7534
" />
<path d="M54.5381 25.7534
L54.5857 25.5629
" />
<path d="M54.5857 25.5629
L54.6333 25.4677
" />
<path d="M54.6333 25.4677
L54.7286 25.3724
" />
<path d="M54.7286 25.3724
L54.8714 25.3248
" />
<path d="M54.8714 25.3248
L54.9667 25.3248
" />
<path d="M54.9667 25.3248
L55.1095 25.3724
" />
<path d="M55.1095 25.3724
L55.1571 25.4201
" />
<path d="M56.1095 26.3248
L55.5381 26.3248
" />
<path d="M55.8238 26.3248
L55.8238 25.3248
" />
<path d="M55.8238 25.3248
L55.7286 25.4677
" />
<path d="M55.7286 25.4677
L55.6333 25.5629
" />
<path d="M55.6333 25.5629
L55.5381 25.6105
" />
<path d="M56.9667 25.6582
L56.9667 26.3248
" />
<path d="M56.7286 25.2772
L56.4905 25.9915
" />
<path d="M56.4905 25.9915
L57.1095 25.9915
" />
</g><text x="17.8600" y="25.7900"
textLength="1.9643" font-size="1.3333" lengthAdjust="spacingAndGlyphs"
text-anchor="middle" opacity="0">J5</text>
<g class="stroked-text"><desc>J5</desc>
<path d="M17.5267 24.7448
L17.5267 25.4591
" />
<path d="M17.5267 25.4591
L17.4790 25.6020
" />
<path d="M17.4790 25.6020
L17.3838 25.6972
" />
<path d="M17.3838 25.6972
L17.2410 25.7448
" />
<path d="M17.2410 25.7448
L17.1457 25.7448
" />
<path d="M18.4790 24.7448
L18.0029 24.7448
" />
<path d="M18.0029 24.7448
L17.9552 25.2210
" />
<path d="M17.9552 25.2210
L18.0029 25.1734
" />
<path d="M18.0029 25.1734
L18.0981 25.1258
" />
<path d="M18.0981 25.1258
L18.3362 25.1258
" />
<path d="M18.3362 25.1258
L18.4314 25.1734
" />
<path d="M18.4314 25.1734
L18.4790 25.2210
" />
<path d="M18.4790 25.2210
L18.5267 25.3162
" />
<path d="M18.5267 25.3162
L18.5267 25.5543
" />
<path d="M18.5267 25.5543
L18.4790 25.6496
" />
<path d="M18.4790 25.6496
L18.4314 25.6972
" />
<path d="M18.4314 25.6972
L18.3362 25.7448
" />
<path d="M18.3362 25.7448
L18.0981 25.7448
" />
<path d="M18.0981 25.7448
L18.0029 25.6972
" />
<path d="M18.0029 25.6972
L17.9552 25.6496
" />
</g><g transform="rotate(-90.000000 46.7800 22.1900)">
<text x="46.7800" y="22.6900"
textLength="2.2500" font-size="1.3333" lengthAdjust="spacingAndGlyphs"
text-anchor="middle" opacity="0">U1</text>
</g>
<g class="stroked-text"><desc>U1</desc>
<path d="M46.2348 22.9519
L47.0443 22.9519
" />
<path d="M47.0443 22.9519
L47.1396 22.9043
" />
<path d="M47.1396 22.9043
L47.1872 22.8567
" />
<path d="M47.1872 22.8567
L47.2348 22.7614
" />
<path d="M47.2348 22.7614
L47.2348 22.5710
" />
<path d="M47.2348 22.5710
L47.1872 22.4757
" />
<path d="M47.1872 22.4757
L47.1396 22.4281
" />
<path d="M47.1396 22.4281
L47.0443 22.3805
" />
<path d="M47.0443 22.3805
L46.2348 22.3805
" />
<path d="M47.2348 21.3805
L47.2348 21.9519
" />
<path d="M47.2348 21.6662
L46.2348 21.6662
" />
<path d="M46.2348 21.6662
L46.3777 21.7614
" />
<path d="M46.3777 21.7614
L46.4729 21.8567
" />
<path d="M46.4729 21.8567
L46.5205 21.9519
" />
</g><text x="5.9400" y="8.8900"
textLength="1.9643" font-size="1.3333" lengthAdjust="spacingAndGlyphs"
text-anchor="middle" opacity="0">J7</text>
<g class="stroked-text"><desc>J7</desc>
<path d="M5.6067 7.8448
L5.6067 8.5591
" />
<path d="M5.6067 8.5591
L5.5590 8.7020
" />
<path d="M5.5590 8.7020
L5.4638 8.7972
" />
<path d="M5.4638 8.7972
L5.3210 8.8448
" />
<path d="M5.3210 8.8448
L5.2257 8.8448
" />
<path d="M5.9876 7.8448
L6.6543 7.8448
" />
<path d="M6.6543 7.8448
L6.2257 8.8448
" />
</g><text x="2.6050" y="16.8600"
textLength="2.2024" font-size="1.3333" lengthAdjust="spacingAndGlyphs"
text-anchor="middle" opacity="0">R9</text>
<g class="stroked-text"><desc>R9</desc>
<path d="M2.4383 16.8148
L2.1050 16.3386
" />
<path d="M1.8669 16.8148
L1.8669 15.8148
" />
<path d="M1.8669 15.8148
L2.2479 15.8148
" />
<path d="M2.2479 15.8148
L2.3431 15.8624
" />
<path d="M2.3431 15.8624
L2.3907 15.9101
" />
<path d="M2.3907 15.9101
L2.4383 16.0053
" />
<path d="M2.4383 16.0053
L2.4383 16.1482
" />
<path d="M2.4383 16.1482
L2.3907 16.2434
" />
<path d="M2.3907 16.2434
L2.3431 16.2910
" />
<path d="M2.3431 16.2910
L2.2479 16.3386
" />
<path d="M2.2479 16.3386
L1.8669 16.3386
" />
<path d="M2.9145 16.8148
L3.1050 16.8148
" />
<path d="M3.1050 16.8148
L3.2002 16.7672
" />
<path d="M3.2002 16.7672
L3.2479 16.7196
" />
<path d="M3.2479 16.7196
L3.3431 16.5767
" />
<path d="M3.3431 16.5767
L3.3907 16.3862
" />
<path d="M3.3907 16.3862
L3.3907 16.0053
" />
<path d="M3.3907 16.0053
L3.3431 15.9101
" />
<path d="M3.3431 15.9101
L3.2955 15.8624
" />
<path d="M3.2955 15.8624
L3.2002 15.8148
" />
<path d="M3.2002 15.8148
L3.0098 15.8148
" />
<path d="M3.0098 15.8148
L2.9145 15.8624
" />
<path d="M2.9145 15.8624
L2.8669 15.9101
" />
<path d="M2.8669 15.9101
L2.8193 16.0053
" />
<path d="M2.8193 16.0053
L2.8193 16.2434
" />
<path d="M2.8193 16.2434
L2.8669 16.3386
" />
<path d="M2.8669 16.3386
L2.9145 16.3862
" />
<path d="M2.9145 16.3862
L3.0098 16.4339
" />
<path d="M3.0098 16.4339
L3.2002 16.4339
" />
<path d="M3.2002 16.4339
L3.2955 16.3862
" />
<path d="M3.2955 16.3862
L3.3431 16.3386
" />
<path d="M3.3431 16.3386
L3.3907 16.2434
" />
</g><text x="17.6800" y="8.5100"
textLength="1.9643" font-size="1.3333" lengthAdjust="spacingAndGlyphs"
text-anchor="middle" opacity="0">J6</text>
<g class="stroked-text"><desc>J6</desc>
<path d="M17.3467 7.4648
L17.3467 8.1791
" />
<path d="M17.3467 8.1791
L17.2990 8.3220
" />
<path d="M17.2990 8.3220
L17.2038 8.4172
" />
<path d="M17.2038 8.4172
L17.0610 8.4648
" />
<path d="M17.0610 8.4648
L16.9657 8.4648
" />
<path d="M18.2514 7.4648
L18.0610 7.4648
" />
<path d="M18.0610 7.4648
L17.9657 7.5124
" />
<path d="M17.9657 7.5124
L17.9181 7.5601
" />
<path d="M17.9181 7.5601
L17.8229 7.7029
" />
<path d="M17.8229 7.7029
L17.7752 7.8934
" />
<path d="M17.7752 7.8934
L17.7752 8.2743
" />
<path d="M17.7752 8.2743
L17.8229 8.3696
" />
<path d="M17.8229 8.3696
L17.8705 8.4172
" />
<path d="M17.8705 8.4172
L17.9657 8.4648
" />
<path d="M17.9657 8.4648
L18.1562 8.4648
" />
<path d="M18.1562 8.4648
L18.2514 8.4172
" />
<path d="M18.2514 8.4172
L18.2990 8.3696
" />
<path d="M18.2990 8.3696
L18.3467 8.2743
" />
<path d="M18.3467 8.2743
L18.3467 8.0362
" />
<path d="M18.3467 8.0362
L18.2990 7.9410
" />
<path d="M18.2990 7.9410
L18.2514 7.8934
" />
<path d="M18.2514 7.8934
L18.1562 7.8458
" />
<path d="M18.1562 7.8458
L17.9657 7.8458
" />
<path d="M17.9657 7.8458
L17.8705 7.8934
" />
<path d="M17.8705 7.8934
L17.8229 7.9410
" />
<path d="M17.8229 7.9410
L17.7752 8.0362
" />
</g><g transform="rotate(-90.000000 49.9800 19.7100)">
<text x="49.9800" y="20.2100"
textLength="3.1548" font-size="1.3333" lengthAdjust="spacingAndGlyphs"
text-anchor="middle" opacity="0">C11</text>
</g>
<g class="stroked-text"><desc>C11</desc>
<path d="M50.3396 20.3529
L50.3872 20.4005
" />
<path d="M50.3872 20.4005
L50.4348 20.5433
" />
<path d="M50.4348 20.5433
L50.4348 20.6386
" />
<path d="M50.4348 20.6386
L50.3872 20.7814
" />
<path d="M50.3872 20.7814
L50.2920 20.8767
" />
<path d="M50.2920 20.8767
L50.1967 20.9243
" />
<path d="M50.1967 20.9243
L50.0062 20.9719
" />
<path d="M50.0062 20.9719
L49.8634 20.9719
" />
<path d="M49.8634 20.9719
L49.6729 20.9243
" />
<path d="M49.6729 20.9243
L49.5777 20.8767
" />
<path d="M49.5777 20.8767
L49.4824 20.7814
" />
<path d="M49.4824 20.7814
L49.4348 20.6386
" />
<path d="M49.4348 20.6386
L49.4348 20.5433
" />
<path d="M49.4348 20.5433
L49.4824 20.4005
" />
<path d="M49.4824 20.4005
L49.5301 20.3529
" />
<path d="M50.4348 19.4005
L50.4348 19.9719
" />
<path d="M50.4348 19.6862
L49.4348 19.6862
" />
<path d="M49.4348 19.6862
L49.5777 19.7814
" />
<path d="M49.5777 19.7814
L49.6729 19.8767
" />
<path d="M49.6729 19.8767
L49.7205 19.9719
" />
<path d="M50.4348 18.4481
L50.4348 19.0195
" />
<path d="M50.4348 18.7338
L49.4348 18.7338
" />
<path d="M49.4348 18.7338
L49.5777 18.8290
" />
<path d="M49.5777 18.8290
L49.6729 18.9243
" />
<path d="M49.6729 18.9243
L49.7205 19.0195
" />
</g><text x="44.0700" y="6.5000"
textLength="3.1548" font-size="1.3333" lengthAdjust="spacingAndGlyphs"
text-anchor="middle" opacity="0">C16</text>
<g class="stroked-text"><desc>C16</desc>
<path d="M43.4271 6.3596
L43.3795 6.4072
" />
<path d="M43.3795 6.4072
L43.2367 6.4548
" />
<path d="M43.2367 6.4548
L43.1414 6.4548
" />
<path d="M43.1414 6.4548
L42.9986 6.4072
" />
<path d="M42.9986 6.4072
L42.9033 6.3120
" />
<path d="M42.9033 6.3120
L42.8557 6.2167
" />
<path d="M42.8557 6.2167
L42.8081 6.0262
" />
<path d="M42.8081 6.0262
L42.8081 5.8834
" />
<path d="M42.8081 5.8834
L42.8557 5.6929
" />
<path d="M42.8557 5.6929
L42.9033 5.5977
" />
<path d="M42.9033 5.5977
L42.9986 5.5024
" />
<path d="M42.9986 5.5024
L43.1414 5.4548
" />
<path d="M43.1414 5.4548
L43.2367 5.4548
" />
<path d="M43.2367 5.4548
L43.3795 5.5024
" />
<path d="M43.3795 5.5024
L43.4271 5.5501
" />
<path d="M44.3795 6.4548
L43.8081 6.4548
" />
<path d="M44.0938 6.4548
L44.0938 5.4548
" />
<path d="M44.0938 5.4548
L43.9986 5.5977
" />
<path d="M43.9986 5.5977
L43.9033 5.6929
" />
<path d="M43.9033 5.6929
L43.8081 5.7405
" />
<path d="M45.2367 5.4548
L45.0462 5.4548
" />
<path d="M45.0462 5.4548
L44.9510 5.5024
" />
<path d="M44.9510 5.5024
L44.9033 5.5501
" />
<path d="M44.9033 5.5501
L44.8081 5.6929
" />
<path d="M44.8081 5.6929
L44.7605 5.8834
" />
<path d="M44.7605 5.8834
L44.7605 6.2643
" />
<path d="M44.7605 6.2643
L44.8081 6.3596
" />
<path d="M44.8081 6.3596
L44.8557 6.4072
" />
<path d="M44.8557 6.4072
L44.9510 6.4548
" />
<path d="M44.9510 6.4548
L45.1414 6.4548
" />
<path d="M45.1414 6.4548
L45.2367 6.4072
" />
<path d="M45.2367 6.4072
L45.2843 6.3596
" />
<path d="M45.2843 6.3596
L45.3319 6.2643
" />
<path d="M45.3319 6.2643
L45.3319 6.0262
" />
<path d="M45.3319 6.0262
L45.2843 5.9310
" />
<path d="M45.2843 5.9310
L45.2367 5.8834
" />
<path d="M45.2367 5.8834
L45.1414 5.8358
" />
<path d="M45.1414 5.8358
L44.9510 5.8358
" />
<path d="M44.9510 5.8358
L44.8557 5.8834
" />
<path d="M44.8557 5.8834
L44.8081 5.9310
" />
<path d="M44.8081 5.9310
L44.7605 6.0262
" />
</g><g transform="rotate(-90.000000 60.7300 3.5700)">
<text x="60.7300" y="4.0700"
textLength="2.2024" font-size="1.3333" lengthAdjust="spacingAndGlyphs"
text-anchor="middle" opacity="0">C5</text>
</g>
<g class="stroked-text"><desc>C5</desc>
<path d="M61.0896 3.7367
L61.1372 3.7843
" />
<path d="M61.1372 3.7843
L61.1848 3.9271
" />
<path d="M61.1848 3.9271
L61.1848 4.0224
" />
<path d="M61.1848 4.0224
L61.1372 4.1652
" />
<path d="M61.1372 4.1652
L61.0420 4.2605
" />
<path d="M61.0420 4.2605
L60.9467 4.3081
" />
<path d="M60.9467 4.3081
L60.7562 4.3557
" />
<path d="M60.7562 4.3557
L60.6134 4.3557
" />
<path d="M60.6134 4.3557
L60.4229 4.3081
" />
<path d="M60.4229 4.3081
L60.3277 4.2605
" />
<path d="M60.3277 4.2605
L60.2324 4.1652
" />
<path d="M60.2324 4.1652
L60.1848 4.0224
" />
<path d="M60.1848 4.0224
L60.1848 3.9271
" />
<path d="M60.1848 3.9271
L60.2324 3.7843
" />
<path d="M60.2324 3.7843
L60.2801 3.7367
" />
<path d="M60.1848 2.8319
L60.1848 3.3081
" />
<path d="M60.1848 3.3081
L60.6610 3.3557
" />
<path d="M60.6610 3.3557
L60.6134 3.3081
" />
<path d="M60.6134 3.3081
L60.5658 3.2129
" />
<path d="M60.5658 3.2129
L60.5658 2.9748
" />
<path d="M60.5658 2.9748
L60.6134 2.8795
" />
<path d="M60.6134 2.8795
L60.6610 2.8319
" />
<path d="M60.6610 2.8319
L60.7562 2.7843
" />
<path d="M60.7562 2.7843
L60.9943 2.7843
" />
<path d="M60.9943 2.7843
L61.0896 2.8319
" />
<path d="M61.0896 2.8319
L61.1372 2.8795
" />
<path d="M61.1372 2.8795
L61.1848 2.9748
" />
<path d="M61.1848 2.9748
L61.1848 3.2129
" />
<path d="M61.1848 3.2129
L61.1372 3.3081
" />
<path d="M61.1372 3.3081
L61.0896 3.3557
" />
</g><text x="2.6900" y="14.8900"
textLength="2.2024" font-size="1.3333" lengthAdjust="spacingAndGlyphs"
text-anchor="middle" opacity="0">R6</text>
<g class="stroked-text"><desc>R6</desc>
<path d="M2.5233 14.8448
L2.1900 14.3686
" />
<path d="M1.9519 14.8448
L1.9519 13.8448
" />
<path d="M1.9519 13.8448
L2.3329 13.8448
" />
<path d="M2.3329 13.8448
L2.4281 13.8924
" />
<path d="M2.4281 13.8924
L2.4757 13.9401
" />
<path d="M2.4757 13.9401
L2.5233 14.0353
" />
<path d="M2.5233 14.0353
L2.5233 14.1782
" />
<path d="M2.5233 14.1782
L2.4757 14.2734
" />
<path d="M2.4757 14.2734
L2.4281 14.3210
" />
<path d="M2.4281 14.3210
L2.3329 14.3686
" />
<path d="M2.3329 14.3686
L1.9519 14.3686
" />
<path d="M3.3805 13.8448
L3.1900 13.8448
" />
<path d="M3.1900 13.8448
L3.0948 13.8924
" />
<path d="M3.0948 13.8924
L3.0471 13.9401
" />
<path d="M3.0471 13.9401
L2.9519 14.0829
" />
<path d="M2.9519 14.0829
L2.9043 14.2734
" />
<path d="M2.9043 14.2734
L2.9043 14.6543
" />
<path d="M2.9043 14.6543
L2.9519 14.7496
" />
<path d="M2.9519 14.7496
L2.9995 14.7972
" />
<path d="M2.9995 14.7972
L3.0948 14.8448
" />
<path d="M3.0948 14.8448
L3.2852 14.8448
" />
<path d="M3.2852 14.8448
L3.3805 14.7972
" />
<path d="M3.3805 14.7972
L3.4281 14.7496
" />
<path d="M3.4281 14.7496
L3.4757 14.6543
" />
<path d="M3.4757 14.6543
L3.4757 14.4162
" />
<path d="M3.4757 14.4162
L3.4281 14.3210
" />
<path d="M3.4281 14.3210
L3.3805 14.2734
" />
<path d="M3.3805 14.2734
L3.2852 14.2258
" />
<path d="M3.2852 14.2258
L3.0948 14.2258
" />
<path d="M3.0948 14.2258
L2.9995 14.2734
" />
<path d="M2.9995 14.2734
L2.9519 14.3210
" />
<path d="M2.9519 14.3210
L2.9043 14.4162
" />
</g><text x="2.7050" y="23.6400"
textLength="3.1548" font-size="1.3333" lengthAdjust="spacingAndGlyphs"
text-anchor="middle" opacity="0">R10</text>
<g class="stroked-text"><desc>R10</desc>
<path d="M2.0621 23.5948
L1.7288 23.1186
" />
<path d="M1.4907 23.5948
L1.4907 22.5948
" />
<path d="M1.4907 22.5948
L1.8717 22.5948
" />
<path d="M1.8717 22.5948
L1.9669 22.6424
" />
<path d="M1.9669 22.6424
L2.0145 22.6901
" />
<path d="M2.0145 22.6901
L2.0621 22.7853
" />
<path d="M2.0621 22.7853
L2.0621 22.9282
" />
<path d="M2.0621 22.9282
L2.0145 23.0234
" />
<path d="M2.0145 23.0234
L1.9669 23.0710
" />
<path d="M1.9669 23.0710
L1.8717 23.1186
" />
<path d="M1.8717 23.1186
L1.4907 23.1186
" />
<path d="M3.0145 23.5948
L2.4431 23.5948
" />
<path d="M2.7288 23.5948
L2.7288 22.5948
" />
<path d="M2.7288 22.5948
L2.6336 22.7377
" />
<path d="M2.6336 22.7377
L2.5383 22.8329
" />
<path d="M2.5383 22.8329
L2.4431 22.8805
" />
<path d="M3.6336 22.5948
L3.7288 22.5948
" />
<path d="M3.7288 22.5948
L3.8240 22.6424
" />
<path d="M3.8240 22.6424
L3.8717 22.6901
" />
<path d="M3.8717 22.6901
L3.9193 22.7853
" />
<path d="M3.9193 22.7853
L3.9669 22.9758
" />
<path d="M3.9669 22.9758
L3.9669 23.2139
" />
<path d="M3.9669 23.2139
L3.9193 23.4043
" />
<path d="M3.9193 23.4043
L3.8717 23.4996
" />
<path d="M3.8717 23.4996
L3.8240 23.5472
" />
<path d="M3.8240 23.5472
L3.7288 23.5948
" />
<path d="M3.7288 23.5948
L3.6336 23.5948
" />
<path d="M3.6336 23.5948
L3.5383 23.5472
" />
<path d="M3.5383 23.5472
L3.4907 23.4996
" />
<path d="M3.4907 23.4996
L3.4431 23.4043
" />
<path d="M3.4431 23.4043
L3.3955 23.2139
" />
<path d="M3.3955 23.2139
L3.3955 22.9758
" />
<path d="M3.3955 22.9758
L3.4431 22.7853
" />
<path d="M3.4431 22.7853
L3.4907 22.6901
" />
<path d="M3.4907 22.6901
L3.5383 22.6424
" />
<path d="M3.5383 22.6424
L3.6336 22.5948
" />
</g><text x="55.8500" y="28.8500"
textLength="3.2976" font-size="1.3333" lengthAdjust="spacingAndGlyphs"
text-anchor="middle" opacity="0">SW1</text>
<g class="stroked-text"><desc>SW1</desc>
<path d="M54.5167 28.7572
L54.6595 28.8048
" />
<path d="M54.6595 28.8048
L54.8976 28.8048
" />
<path d="M54.8976 28.8048
L54.9929 28.7572
" />
<path d="M54.9929 28.7572
L55.0405 28.7096
" />
<path d="M55.0405 28.7096
L55.0881 28.6143
" />
<path d="M55.0881 28.6143
L55.0881 28.5191
" />
<path d="M55.0881 28.5191
L55.0405 28.4239
" />
<path d="M55.0405 28.4239
L54.9929 28.3762
" />
<path d="M54.9929 28.3762
L54.8976 28.3286
" />
<path d="M54.8976 28.3286
L54.7071 28.2810
" />
<path d="M54.7071 28.2810
L54.6119 28.2334
" />
<path d="M54.6119 28.2334
L54.5643 28.1858
" />
<path d="M54.5643 28.1858
L54.5167 28.0905
" />
<path d="M54.5167 28.0905
L54.5167 27.9953
" />
<path d="M54.5167 27.9953
L54.5643 27.9001
" />
<path d="M54.5643 27.9001
L54.6119 27.8524
" />
<path d="M54.6119 27.8524
L54.7071 27.8048
" />
<path d="M54.7071 27.8048
L54.9452 27.8048
" />
<path d="M54.9452 27.8048
L55.0881 27.8524
" />
<path d="M55.4214 27.8048
L55.6595 28.8048
" />
<path d="M55.6595 28.8048
L55.8500 28.0905
" />
<path d="M55.8500 28.0905
L56.0405 28.8048
" />
<path d="M56.0405 28.8048
L56.2786 27.8048
" />
<path d="M57.1833 28.8048
L56.6119 28.8048
" />
<path d="M56.8976 28.8048
L56.8976 27.8048
" />
<path d="M56.8976 27.8048
L56.8024 27.9477
" />
<path d="M56.8024 27.9477
L56.7071 28.0429
" />
<path d="M56.7071 28.0429
L56.6119 28.0905
" />
</g><g transform="rotate(-90.000000 48.4600 19.7300)">
<text x="48.4600" y="20.2300"
textLength="3.1548" font-size="1.3333" lengthAdjust="spacingAndGlyphs"
text-anchor="middle" opacity="0">C10</text>
</g>
<g class="stroked-text"><desc>C10</desc>
<path d="M48.8196 20.3729
L48.8672 20.4205
" />
<path d="M48.8672 20.4205
L48.9148 20.5633
" />
<path d="M48.9148 20.5633
L48.9148 20.6586
" />
<path d="M48.9148 20.6586
L48.8672 20.8014
" />
<path d="M48.8672 20.8014
L48.7720 20.8967
" />
<path d="M48.7720 20.8967
L48.6767 20.9443
" />
<path d="M48.6767 20.9443
L48.4862 20.9919
" />
<path d="M48.4862 20.9919
L48.3434 20.9919
" />
<path d="M48.3434 20.9919
L48.1529 20.9443
" />
<path d="M48.1529 20.9443
L48.0577 20.8967
" />
<path d="M48.0577 20.8967
L47.9624 20.8014
" />
<path d="M47.9624 20.8014
L47.9148 20.6586
" />
<path d="M47.9148 20.6586
L47.9148 20.5633
" />
<path d="M47.9148 20.5633
L47.9624 20.4205
" />
<path d="M47.9624 20.4205
L48.0101 20.3729
" />
<path d="M48.9148 19.4205
L48.9148 19.9919
" />
<path d="M48.9148 19.7062
L47.9148 19.7062
" />
<path d="M47.9148 19.7062
L48.0577 19.8014
" />
<path d="M48.0577 19.8014
L48.1529 19.8967
" />
<path d="M48.1529 19.8967
L48.2005 19.9919
" />
<path d="M47.9148 18.8014
L47.9148 18.7062
" />
<path d="M47.9148 18.7062
L47.9624 18.6110
" />
<path d="M47.9624 18.6110
L48.0101 18.5633
" />
<path d="M48.0101 18.5633
L48.1053 18.5157
" />
<path d="M48.1053 18.5157
L48.2958 18.4681
" />
<path d="M48.2958 18.4681
L48.5339 18.4681
" />
<path d="M48.5339 18.4681
L48.7243 18.5157
" />
<path d="M48.7243 18.5157
L48.8196 18.5633
" />
<path d="M48.8196 18.5633
L48.8672 18.6110
" />
<path d="M48.8672 18.6110
L48.9148 18.7062
" />
<path d="M48.9148 18.7062
L48.9148 18.8014
" />
<path d="M48.9148 18.8014
L48.8672 18.8967
" />
<path d="M48.8672 18.8967
L48.8196 18.9443
" />
<path d="M48.8196 18.9443
L48.7243 18.9919
" />
<path d="M48.7243 18.9919
L48.5339 19.0395
" />
<path d="M48.5339 19.0395
L48.2958 19.0395
" />
<path d="M48.2958 19.0395
L48.1053 18.9919
" />
<path d="M48.1053 18.9919
L48.0101 18.9443
" />
<path d="M48.0101 18.9443
L47.9624 18.8967
" />
<path d="M47.9624 18.8967
L47.9148 18.8014
" />
</g></g>
<g style="fill:#0D115E; fill-opacity:0.0; 
stroke:#0D115E; stroke-width:0.2540; stroke-opacity:1; 
stroke-linecap:round; stroke-linejoin:round;">
<text x="4.9550" y="21.6150"
textLength="3.0480" font-size="1.6933" lengthAdjust="spacingAndGlyphs"
text-anchor="middle" opacity="0">Q1</text>
<g class="stroked-text"><desc>Q1</desc>
<path d="M4.8340 21.6753
L4.7131 21.6148
" />
<path d="M4.7131 21.6148
L4.5921 21.4938
" />
<path d="M4.5921 21.4938
L4.4107 21.3124
" />
<path d="M4.4107 21.3124
L4.2898 21.2519
" />
<path d="M4.2898 21.2519
L4.1688 21.2519
" />
<path d="M4.2293 21.5543
L4.1083 21.4938
" />
<path d="M4.1083 21.4938
L3.9874 21.3729
" />
<path d="M3.9874 21.3729
L3.9269 21.1310
" />
<path d="M3.9269 21.1310
L3.9269 20.7077
" />
<path d="M3.9269 20.7077
L3.9874 20.4657
" />
<path d="M3.9874 20.4657
L4.1083 20.3448
" />
<path d="M4.1083 20.3448
L4.2293 20.2843
" />
<path d="M4.2293 20.2843
L4.4712 20.2843
" />
<path d="M4.4712 20.2843
L4.5921 20.3448
" />
<path d="M4.5921 20.3448
L4.7131 20.4657
" />
<path d="M4.7131 20.4657
L4.7736 20.7077
" />
<path d="M4.7736 20.7077
L4.7736 21.1310
" />
<path d="M4.7736 21.1310
L4.7131 21.3729
" />
<path d="M4.7131 21.3729
L4.5921 21.4938
" />
<path d="M4.5921 21.4938
L4.4712 21.5543
" />
<path d="M4.4712 21.5543
L4.2293 21.5543
" />
<path d="M5.9831 21.5543
L5.2574 21.5543
" />
<path d="M5.6202 21.5543
L5.6202 20.2843
" />
<path d="M5.6202 20.2843
L5.4993 20.4657
" />
<path d="M5.4993 20.4657
L5.3783 20.5867
" />
<path d="M5.3783 20.5867
L5.2574 20.6472
" />
</g></g>
<g style="fill:#0D115E; fill-opacity:0.0; 
stroke:#0D115E; stroke-width:0.1500; stroke-opacity:1; 
stroke-linecap:round; stroke-linejoin:round;">
<text x="10.3400" y="20.6400"
textLength="2.2024" font-size="1.3333" lengthAdjust="spacingAndGlyphs"
text-anchor="middle" opacity="0">R5</text>
<g class="stroked-text"><desc>R5</desc>
<path d="M10.1733 20.5948
L9.8400 20.1186
" />
<path d="M9.6019 20.5948
L9.6019 19.5948
" />
<path d="M9.6019 19.5948
L9.9829 19.5948
" />
<path d="M9.9829 19.5948
L10.0781 19.6424
" />
<path d="M10.0781 19.6424
L10.1257 19.6901
" />
<path d="M10.1257 19.6901
L10.1733 19.7853
" />
<path d="M10.1733 19.7853
L10.1733 19.9282
" />
<path d="M10.1733 19.9282
L10.1257 20.0234
" />
<path d="M10.1257 20.0234
L10.0781 20.0710
" />
<path d="M10.0781 20.0710
L9.9829 20.1186
" />
<path d="M9.9829 20.1186
L9.6019 20.1186
" />
<path d="M11.0781 19.5948
L10.6019 19.5948
" />
<path d="M10.6019 19.5948
L10.5543 20.0710
" />
<path d="M10.5543 20.0710
L10.6019 20.0234
" />
<path d="M10.6019 20.0234
L10.6971 19.9758
" />
<path d="M10.6971 19.9758
L10.9352 19.9758
" />
<path d="M10.9352 19.9758
L11.0305 20.0234
" />
<path d="M11.0305 20.0234
L11.0781 20.0710
" />
<path d="M11.0781 20.0710
L11.1257 20.1662
" />
<path d="M11.1257 20.1662
L11.1257 20.4043
" />
<path d="M11.1257 20.4043
L11.0781 20.4996
" />
<path d="M11.0781 20.4996
L11.0305 20.5472
" />
<path d="M11.0305 20.5472
L10.9352 20.5948
" />
<path d="M10.9352 20.5948
L10.6971 20.5948
" />
<path d="M10.6971 20.5948
L10.6019 20.5472
" />
<path d="M10.6019 20.5472
L10.5543 20.4996
" />
</g><text x="56.5200" y="18.4100"
textLength="2.2500" font-size="1.3333" lengthAdjust="spacingAndGlyphs"
text-anchor="middle" opacity="0">U2</text>
<g class="stroked-text"><desc>U2</desc>
<path d="M55.7581 17.3648
L55.7581 18.1743
" />
<path d="M55.7581 18.1743
L55.8057 18.2696
" />
<path d="M55.8057 18.2696
L55.8533 18.3172
" />
<path d="M55.8533 18.3172
L55.9486 18.3648
" />
<path d="M55.9486 18.3648
L56.1390 18.3648
" />
<path d="M56.1390 18.3648
L56.2343 18.3172
" />
<path d="M56.2343 18.3172
L56.2819 18.2696
" />
<path d="M56.2819 18.2696
L56.3295 18.1743
" />
<path d="M56.3295 18.1743
L56.3295 17.3648
" />
<path d="M56.7581 17.4601
L56.8057 17.4124
" />
<path d="M56.8057 17.4124
L56.9010 17.3648
" />
<path d="M56.9010 17.3648
L57.1390 17.3648
" />
<path d="M57.1390 17.3648
L57.2343 17.4124
" />
<path d="M57.2343 17.4124
L57.2819 17.4601
" />
<path d="M57.2819 17.4601
L57.3295 17.5553
" />
<path d="M57.3295 17.5553
L57.3295 17.6505
" />
<path d="M57.3295 17.6505
L57.2819 17.7934
" />
<path d="M57.2819 17.7934
L56.7105 18.3648
" />
<path d="M56.7105 18.3648
L57.3295 18.3648
" />
</g></g>
<g style="fill:#0D115E; fill-opacity:0.0; 
stroke:#0D115E; stroke-width:0.2540; stroke-opacity:1; 
stroke-linecap:round; stroke-linejoin:round;">
<text x="4.9300" y="12.9150"
textLength="3.0480" font-size="1.6933" lengthAdjust="spacingAndGlyphs"
text-anchor="middle" opacity="0">Q2</text>
<g class="stroked-text"><desc>Q2</desc>
<path d="M4.8090 12.9753
L4.6881 12.9148
" />
<path d="M4.6881 12.9148
L4.5671 12.7938
" />
<path d="M4.5671 12.7938
L4.3857 12.6124
" />
<path d="M4.3857 12.6124
L4.2648 12.5519
" />
<path d="M4.2648 12.5519
L4.1438 12.5519
" />
<path d="M4.2043 12.8543
L4.0833 12.7938
" />
<path d="M4.0833 12.7938
L3.9624 12.6729
" />
<path d="M3.9624 12.6729
L3.9019 12.4310
" />
<path d="M3.9019 12.4310
L3.9019 12.0077
" />
<path d="M3.9019 12.0077
L3.9624 11.7657
" />
<path d="M3.9624 11.7657
L4.0833 11.6448
" />
<path d="M4.0833 11.6448
L4.2043 11.5843
" />
<path d="M4.2043 11.5843
L4.4462 11.5843
" />
<path d="M4.4462 11.5843
L4.5671 11.6448
" />
<path d="M4.5671 11.6448
L4.6881 11.7657
" />
<path d="M4.6881 11.7657
L4.7486 12.0077
" />
<path d="M4.7486 12.0077
L4.7486 12.4310
" />
<path d="M4.7486 12.4310
L4.6881 12.6729
" />
<path d="M4.6881 12.6729
L4.5671 12.7938
" />
<path d="M4.5671 12.7938
L4.4462 12.8543
" />
<path d="M4.4462 12.8543
L4.2043 12.8543
" />
<path d="M5.2324 11.7053
L5.2929 11.6448
" />
<path d="M5.2929 11.6448
L5.4138 11.5843
" />
<path d="M5.4138 11.5843
L5.7162 11.5843
" />
<path d="M5.7162 11.5843
L5.8371 11.6448
" />
<path d="M5.8371 11.6448
L5.8976 11.7053
" />
<path d="M5.8976 11.7053
L5.9581 11.8262
" />
<path d="M5.9581 11.8262
L5.9581 11.9472
" />
<path d="M5.9581 11.9472
L5.8976 12.1286
" />
<path d="M5.8976 12.1286
L5.1719 12.8543
" />
<path d="M5.1719 12.8543
L5.9581 12.8543
" />
</g></g>
<g style="fill:#0D115E; fill-opacity:0.0; 
stroke:#0D115E; stroke-width:0.1500; stroke-opacity:1; 
stroke-linecap:round; stroke-linejoin:round;">
<text x="10.3550" y="18.1500"
textLength="2.2024" font-size="1.3333" lengthAdjust="spacingAndGlyphs"
text-anchor="middle" opacity="0">R7</text>
<g class="stroked-text"><desc>R7</desc>
<path d="M10.1883 18.1048
L9.8550 17.6286
" />
<path d="M9.6169 18.1048
L9.6169 17.1048
" />
<path d="M9.6169 17.1048
L9.9979 17.1048
" />
<path d="M9.9979 17.1048
L10.0931 17.1524
" />
<path d="M10.0931 17.1524
L10.1407 17.2001
" />
<path d="M10.1407 17.2001
L10.1883 17.2953
" />
<path d="M10.1883 17.2953
L10.1883 17.4382
" />
<path d="M10.1883 17.4382
L10.1407 17.5334
" />
<path d="M10.1407 17.5334
L10.0931 17.5810
" />
<path d="M10.0931 17.5810
L9.9979 17.6286
" />
<path d="M9.9979 17.6286
L9.6169 17.6286
" />
<path d="M10.5217 17.1048
L11.1883 17.1048
" />
<path d="M11.1883 17.1048
L10.7598 18.1048
" />
</g><g transform="rotate(-90.000000 63.1600 24.4950)">
<text x="63.1600" y="24.9950"
textLength="1.9643" font-size="1.3333" lengthAdjust="spacingAndGlyphs"
text-anchor="middle" opacity="0">J1</text>
</g>
<g class="stroked-text"><desc>J1</desc>
<path d="M62.6148 24.8283
L63.3291 24.8283
" />
<path d="M63.3291 24.8283
L63.4720 24.8760
" />
<path d="M63.4720 24.8760
L63.5672 24.9712
" />
<path d="M63.5672 24.9712
L63.6148 25.1140
" />
<path d="M63.6148 25.1140
L63.6148 25.2093
" />
<path d="M63.6148 23.8283
L63.6148 24.3998
" />
<path d="M63.6148 24.1140
L62.6148 24.1140
" />
<path d="M62.6148 24.1140
L62.7577 24.2093
" />
<path d="M62.7577 24.2093
L62.8529 24.3045
" />
<path d="M62.8529 24.3045
L62.9005 24.3998
" />
</g><text x="45.2150" y="28.4580"
textLength="2.2024" font-size="1.3333" lengthAdjust="spacingAndGlyphs"
text-anchor="middle" opacity="0">C8</text>
<g class="stroked-text"><desc>C8</desc>
<path d="M45.0483 28.3176
L45.0007 28.3652
" />
<path d="M45.0007 28.3652
L44.8579 28.4128
" />
<path d="M44.8579 28.4128
L44.7626 28.4128
" />
<path d="M44.7626 28.4128
L44.6198 28.3652
" />
<path d="M44.6198 28.3652
L44.5245 28.2700
" />
<path d="M44.5245 28.2700
L44.4769 28.1747
" />
<path d="M44.4769 28.1747
L44.4293 27.9843
" />
<path d="M44.4293 27.9843
L44.4293 27.8414
" />
<path d="M44.4293 27.8414
L44.4769 27.6509
" />
<path d="M44.4769 27.6509
L44.5245 27.5557
" />
<path d="M44.5245 27.5557
L44.6198 27.4604
" />
<path d="M44.6198 27.4604
L44.7626 27.4128
" />
<path d="M44.7626 27.4128
L44.8579 27.4128
" />
<path d="M44.8579 27.4128
L45.0007 27.4604
" />
<path d="M45.0007 27.4604
L45.0483 27.5081
" />
<path d="M45.6198 27.8414
L45.5245 27.7938
" />
<path d="M45.5245 27.7938
L45.4769 27.7462
" />
<path d="M45.4769 27.7462
L45.4293 27.6509
" />
<path d="M45.4293 27.6509
L45.4293 27.6033
" />
<path d="M45.4293 27.6033
L45.4769 27.5081
" />
<path d="M45.4769 27.5081
L45.5245 27.4604
" />
<path d="M45.5245 27.4604
L45.6198 27.4128
" />
<path d="M45.6198 27.4128
L45.8102 27.4128
" />
<path d="M45.8102 27.4128
L45.9055 27.4604
" />
<path d="M45.9055 27.4604
L45.9531 27.5081
" />
<path d="M45.9531 27.5081
L46.0007 27.6033
" />
<path d="M46.0007 27.6033
L46.0007 27.6509
" />
<path d="M46.0007 27.6509
L45.9531 27.7462
" />
<path d="M45.9531 27.7462
L45.9055 27.7938
" />
<path d="M45.9055 27.7938
L45.8102 27.8414
" />
<path d="M45.8102 27.8414
L45.6198 27.8414
" />
<path d="M45.6198 27.8414
L45.5245 27.8890
" />
<path d="M45.5245 27.8890
L45.4769 27.9366
" />
<path d="M45.4769 27.9366
L45.4293 28.0319
" />
<path d="M45.4293 28.0319
L45.4293 28.2223
" />
<path d="M45.4293 28.2223
L45.4769 28.3176
" />
<path d="M45.4769 28.3176
L45.5245 28.3652
" />
<path d="M45.5245 28.3652
L45.6198 28.4128
" />
<path d="M45.6198 28.4128
L45.8102 28.4128
" />
<path d="M45.8102 28.4128
L45.9055 28.3652
" />
<path d="M45.9055 28.3652
L45.9531 28.3176
" />
<path d="M45.9531 28.3176
L46.0007 28.2223
" />
<path d="M46.0007 28.2223
L46.0007 28.0319
" />
<path d="M46.0007 28.0319
L45.9531 27.9366
" />
<path d="M45.9531 27.9366
L45.9055 27.8890
" />
<path d="M45.9055 27.8890
L45.8102 27.8414
" />
</g><g transform="rotate(-90.000000 53.0800 17.5600)">
<text x="53.0800" y="18.0600"
textLength="2.2024" font-size="1.3333" lengthAdjust="spacingAndGlyphs"
text-anchor="middle" opacity="0">C2</text>
</g>
<g class="stroked-text"><desc>C2</desc>
<path d="M53.4396 17.7267
L53.4872 17.7743
" />
<path d="M53.4872 17.7743
L53.5348 17.9171
" />
<path d="M53.5348 17.9171
L53.5348 18.0124
" />
<path d="M53.5348 18.0124
L53.4872 18.1552
" />
<path d="M53.4872 18.1552
L53.3920 18.2505
" />
<path d="M53.3920 18.2505
L53.2967 18.2981
" />
<path d="M53.2967 18.2981
L53.1062 18.3457
" />
<path d="M53.1062 18.3457
L52.9634 18.3457
" />
<path d="M52.9634 18.3457
L52.7729 18.2981
" />
<path d="M52.7729 18.2981
L52.6777 18.2505
" />
<path d="M52.6777 18.2505
L52.5824 18.1552
" />
<path d="M52.5824 18.1552
L52.5348 18.0124
" />
<path d="M52.5348 18.0124
L52.5348 17.9171
" />
<path d="M52.5348 17.9171
L52.5824 17.7743
" />
<path d="M52.5824 17.7743
L52.6301 17.7267
" />
<path d="M52.6301 17.3457
L52.5824 17.2981
" />
<path d="M52.5824 17.2981
L52.5348 17.2029
" />
<path d="M52.5348 17.2029
L52.5348 16.9648
" />
<path d="M52.5348 16.9648
L52.5824 16.8695
" />
<path d="M52.5824 16.8695
L52.6301 16.8219
" />
<path d="M52.6301 16.8219
L52.7253 16.7743
" />
<path d="M52.7253 16.7743
L52.8205 16.7743
" />
<path d="M52.8205 16.7743
L52.9634 16.8219
" />
<path d="M52.9634 16.8219
L53.5348 17.3933
" />
<path d="M53.5348 17.3933
L53.5348 16.7743
" />
</g><text x="45.2150" y="26.7100"
textLength="2.1548" font-size="1.3333" lengthAdjust="spacingAndGlyphs"
text-anchor="middle" opacity="0">CE</text>
<g class="stroked-text"><desc>CE</desc>
<path d="M45.0721 26.5696
L45.0245 26.6172
" />
<path d="M45.0245 26.6172
L44.8817 26.6648
" />
<path d="M44.8817 26.6648
L44.7864 26.6648
" />
<path d="M44.7864 26.6648
L44.6436 26.6172
" />
<path d="M44.6436 26.6172
L44.5483 26.5220
" />
<path d="M44.5483 26.5220
L44.5007 26.4267
" />
<path d="M44.5007 26.4267
L44.4531 26.2362
" />
<path d="M44.4531 26.2362
L44.4531 26.0934
" />
<path d="M44.4531 26.0934
L44.5007 25.9029
" />
<path d="M44.5007 25.9029
L44.5483 25.8077
" />
<path d="M44.5483 25.8077
L44.6436 25.7124
" />
<path d="M44.6436 25.7124
L44.7864 25.6648
" />
<path d="M44.7864 25.6648
L44.8817 25.6648
" />
<path d="M44.8817 25.6648
L45.0245 25.7124
" />
<path d="M45.0245 25.7124
L45.0721 25.7601
" />
<path d="M45.5007 26.1410
L45.8340 26.1410
" />
<path d="M45.9769 26.6648
L45.5007 26.6648
" />
<path d="M45.5007 26.6648
L45.5007 25.6648
" />
<path d="M45.5007 25.6648
L45.9769 25.6648
" />
</g><g transform="rotate(-90.000000 62.7250 22.6250)">
<text x="62.7250" y="23.1250"
textLength="2.2024" font-size="1.3333" lengthAdjust="spacingAndGlyphs"
text-anchor="middle" opacity="0">R2</text>
</g>
<g class="stroked-text"><desc>R2</desc>
<path d="M63.1798 22.7917
L62.7036 23.1250
" />
<path d="M63.1798 23.3631
L62.1798 23.3631
" />
<path d="M62.1798 23.3631
L62.1798 22.9821
" />
<path d="M62.1798 22.9821
L62.2274 22.8869
" />
<path d="M62.2274 22.8869
L62.2751 22.8393
" />
<path d="M62.2751 22.8393
L62.3703 22.7917
" />
<path d="M62.3703 22.7917
L62.5132 22.7917
" />
<path d="M62.5132 22.7917
L62.6084 22.8393
" />
<path d="M62.6084 22.8393
L62.6560 22.8869
" />
<path d="M62.6560 22.8869
L62.7036 22.9821
" />
<path d="M62.7036 22.9821
L62.7036 23.3631
" />
<path d="M62.2751 22.4107
L62.2274 22.3631
" />
<path d="M62.2274 22.3631
L62.1798 22.2679
" />
<path d="M62.1798 22.2679
L62.1798 22.0298
" />
<path d="M62.1798 22.0298
L62.2274 21.9345
" />
<path d="M62.2274 21.9345
L62.2751 21.8869
" />
<path d="M62.2751 21.8869
L62.3703 21.8393
" />
<path d="M62.3703 21.8393
L62.4655 21.8393
" />
<path d="M62.4655 21.8393
L62.6084 21.8869
" />
<path d="M62.6084 21.8869
L63.1798 22.4583
" />
<path d="M63.1798 22.4583
L63.1798 21.8393
" />
</g><text x="10.2670" y="11.9550"
textLength="3.1548" font-size="1.3333" lengthAdjust="spacingAndGlyphs"
text-anchor="middle" opacity="0">R11</text>
<g class="stroked-text"><desc>R11</desc>
<path d="M9.6241 11.9098
L9.2908 11.4336
" />
<path d="M9.0527 11.9098
L9.0527 10.9098
" />
<path d="M9.0527 10.9098
L9.4337 10.9098
" />
<path d="M9.4337 10.9098
L9.5289 10.9574
" />
<path d="M9.5289 10.9574
L9.5765 11.0051
" />
<path d="M9.5765 11.0051
L9.6241 11.1003
" />
<path d="M9.6241 11.1003
L9.6241 11.2432
" />
<path d="M9.6241 11.2432
L9.5765 11.3384
" />
<path d="M9.5765 11.3384
L9.5289 11.3860
" />
<path d="M9.5289 11.3860
L9.4337 11.4336
" />
<path d="M9.4337 11.4336
L9.0527 11.4336
" />
<path d="M10.5765 11.9098
L10.0051 11.9098
" />
<path d="M10.2908 11.9098
L10.2908 10.9098
" />
<path d="M10.2908 10.9098
L10.1956 11.0527
" />
<path d="M10.1956 11.0527
L10.1003 11.1479
" />
<path d="M10.1003 11.1479
L10.0051 11.1955
" />
<path d="M11.5289 11.9098
L10.9575 11.9098
" />
<path d="M11.2432 11.9098
L11.2432 10.9098
" />
<path d="M11.2432 10.9098
L11.1480 11.0527
" />
<path d="M11.1480 11.0527
L11.0527 11.1479
" />
<path d="M11.0527 11.1479
L10.9575 11.1955
" />
</g><text x="24.0950" y="22.6600"
textLength="2.2024" font-size="1.3333" lengthAdjust="spacingAndGlyphs"
text-anchor="middle" opacity="0">C7</text>
<g class="stroked-text"><desc>C7</desc>
<path d="M23.9283 22.5196
L23.8807 22.5672
" />
<path d="M23.8807 22.5672
L23.7379 22.6148
" />
<path d="M23.7379 22.6148
L23.6426 22.6148
" />
<path d="M23.6426 22.6148
L23.4998 22.5672
" />
<path d="M23.4998 22.5672
L23.4045 22.4720
" />
<path d="M23.4045 22.4720
L23.3569 22.3767
" />
<path d="M23.3569 22.3767
L23.3093 22.1862
" />
<path d="M23.3093 22.1862
L23.3093 22.0434
" />
<path d="M23.3093 22.0434
L23.3569 21.8529
" />
<path d="M23.3569 21.8529
L23.4045 21.7577
" />
<path d="M23.4045 21.7577
L23.4998 21.6624
" />
<path d="M23.4998 21.6624
L23.6426 21.6148
" />
<path d="M23.6426 21.6148
L23.7379 21.6148
" />
<path d="M23.7379 21.6148
L23.8807 21.6624
" />
<path d="M23.8807 21.6624
L23.9283 21.7101
" />
<path d="M24.2617 21.6148
L24.9283 21.6148
" />
<path d="M24.9283 21.6148
L24.4998 22.6148
" />
</g><g transform="rotate(-90.000000 33.7700 21.4550)">
<text x="33.7700" y="21.9550"
textLength="3.1548" font-size="1.3333" lengthAdjust="spacingAndGlyphs"
text-anchor="middle" opacity="0">C12</text>
</g>
<g class="stroked-text"><desc>C12</desc>
<path d="M34.1296 22.0979
L34.1772 22.1455
" />
<path d="M34.1772 22.1455
L34.2248 22.2883
" />
<path d="M34.2248 22.2883
L34.2248 22.3836
" />
<path d="M34.2248 22.3836
L34.1772 22.5264
" />
<path d="M34.1772 22.5264
L34.0820 22.6217
" />
<path d="M34.0820 22.6217
L33.9867 22.6693
" />
<path d="M33.9867 22.6693
L33.7962 22.7169
" />
<path d="M33.7962 22.7169
L33.6534 22.7169
" />
<path d="M33.6534 22.7169
L33.4629 22.6693
" />
<path d="M33.4629 22.6693
L33.3677 22.6217
" />
<path d="M33.3677 22.6217
L33.2724 22.5264
" />
<path d="M33.2724 22.5264
L33.2248 22.3836
" />
<path d="M33.2248 22.3836
L33.2248 22.2883
" />
<path d="M33.2248 22.2883
L33.2724 22.1455
" />
<path d="M33.2724 22.1455
L33.3201 22.0979
" />
<path d="M34.2248 21.1455
L34.2248 21.7169
" />
<path d="M34.2248 21.4312
L33.2248 21.4312
" />
<path d="M33.2248 21.4312
L33.3677 21.5264
" />
<path d="M33.3677 21.5264
L33.4629 21.6217
" />
<path d="M33.4629 21.6217
L33.5105 21.7169
" />
<path d="M33.3201 20.7645
L33.2724 20.7169
" />
<path d="M33.2724 20.7169
L33.2248 20.6217
" />
<path d="M33.2248 20.6217
L33.2248 20.3836
" />
<path d="M33.2248 20.3836
L33.2724 20.2883
" />
<path d="M33.2724 20.2883
L33.3201 20.2407
" />
<path d="M33.3201 20.2407
L33.4153 20.1931
" />
<path d="M33.4153 20.1931
L33.5105 20.1931
" />
<path d="M33.5105 20.1931
L33.6534 20.2407
" />
<path d="M33.6534 20.2407
L34.2248 20.8121
" />
<path d="M34.2248 20.8121
L34.2248 20.1931
" />
</g></g>
<g style="fill:#0D115E; fill-opacity:0.0; 
stroke:#0D115E; stroke-width:0.1200; stroke-opacity:1; 
stroke-linecap:round; stroke-linejoin:round;">
<path d="M34.2506 9.0600
L33.9694 9.0600
" />
<path d="M34.2506 8.0400
L33.9694 8.0400
" />
<path d="M28.8800 32.7100
L28.8800 33.4500
" />
<path d="M28.8800 33.4500
L29.3800 33.4500
" />
<path d="M29.1200 26.8900
L29.1200 33.2100
" />
<path d="M29.1200 26.8900
L42.4000 26.8900
" />
<path d="M29.1200 27.3500
L42.4000 27.3500
" />
<path d="M29.1200 32.6500
L42.4000 32.6500
" />
<path d="M29.1200 33.2100
L42.4000 33.2100
" />
<path d="M42.4000 26.8900
L42.4000 33.2100
" />
<path d="M2.4527 8.1975
L2.9273 8.1975
" />
<path d="M2.4527 9.2425
L2.9273 9.2425
" />
<path d="M10.0047 9.8625
L10.4793 9.8625
" />
<path d="M10.0047 10.9075
L10.4793 10.9075
" />
<path d="M33.1800 21.6006
L33.1800 21.3194
" />
<path d="M34.2000 21.6006
L34.2000 21.3194
" />
<path d="M59.6100 5.8044
L59.6100 6.0856
" />
<path d="M58.5900 5.8044
L58.5900 6.0856
" />
<path d="M62.3850 21.4406
L62.3850 21.1594
" />
<path d="M63.4050 21.4406
L63.4050 21.1594
" />
<path d="M52.0788 14.8957
L52.0788 15.3703
" />
<path d="M51.0338 14.8957
L51.0338 15.3703
" />
</g>
<g style="fill:#0D115E; fill-opacity:0.0; 
stroke:#0D115E; stroke-width:0.2000; stroke-opacity:1; 
stroke-linecap:round; stroke-linejoin:round;">
<path d="M55.8600 15.5650
L55.8600 14.1650
" />
</g>
<g style="fill:#0D115E; fill-opacity:0.0; 
stroke:#0D115E; stroke-width:0.1200; stroke-opacity:1; 
stroke-linecap:round; stroke-linejoin:round;">
<path d="M28.7973 23.3725
L28.3227 23.3725
" />
<path d="M28.7973 22.3275
L28.3227 22.3275
" />
<path d="M23.9400 7.9906
L23.9400 7.7094
" />
<path d="M24.9600 7.9906
L24.9600 7.7094
" />
</g>
<g style="fill:#0D115E; fill-opacity:0.0; 
stroke:#0D115E; stroke-width:0.2000; stroke-opacity:1; 
stroke-linecap:round; stroke-linejoin:round;">
<path d="M55.3525 1.6100
L55.3525 13.1100
" />
<path d="M47.8025 1.6100
L55.3525 1.6100
" />
<path d="M55.3525 13.1100
L47.8025 13.1100
" />
<path d="M47.8025 13.1100
L47.8025 1.6100
" />
</g>
<g style="fill:#0D115E; fill-opacity:1.0000; 
stroke:#0D115E; stroke-width:0.0000; stroke-opacity:1; 
stroke-linecap:round; stroke-linejoin:round;">
<circle cx="47.0235" cy="4.8590" r="0.1960" /> 
</g>
<g style="fill:#0D115E; fill-opacity:1.0000; 
stroke:#0D115E; stroke-width:0.1200; stroke-opacity:1; 
stroke-linecap:round; stroke-linejoin:round;">
</g>
<g style="fill:#0D115E; fill-opacity:0.0; 
stroke:#0D115E; stroke-width:0.1200; stroke-opacity:1; 
stroke-linecap:round; stroke-linejoin:round;">
<path d="M66.5750 14.6000
L64.8750 14.6000
" />
<path d="M66.5750 5.2600
L64.8750 5.2600
" />
</g>
<g style="fill:#0D115E; fill-opacity:0.0; 
stroke:#0D115E; stroke-width:0.2000; stroke-opacity:1; 
stroke-linecap:round; stroke-linejoin:round;">
<path d="M25.8500 9.0750
L25.8500 7.2250
" />
<path d="M25.7000 6.8000
L25.7000 3.3000
" />
<path d="M32.2000 6.8000
L25.7000 6.8000
" />
<path d="M25.7000 3.3000
L32.2000 3.3000
" />
<path d="M32.2000 3.3000
L32.2000 6.8000
" />
</g>
<g style="fill:#0D115E; fill-opacity:0.0; 
stroke:#0D115E; stroke-width:0.1200; stroke-opacity:1; 
stroke-linecap:round; stroke-linejoin:round;">
<path d="M40.2250 8.5862
L44.9250 8.5862
" />
<path d="M40.2250 12.2862
L44.9250 12.2862
" />
<path d="M40.2250 8.5862 A1.8500 1.8500 0.0 0 0 40.2250 12.2862" />
<path d="M44.9250 12.2862 A1.8500 1.8500 0.0 0 0 44.9250 8.5862" />
<path d="M61.8175 19.3627
L61.8175 19.8373
" />
<path d="M60.7725 19.3627
L60.7725 19.8373
" />
</g>
<g style="fill:#0D115E; fill-opacity:0.0; 
stroke:#0D115E; stroke-width:0.2000; stroke-opacity:1; 
stroke-linecap:round; stroke-linejoin:round;">
<path d="M17.4050 11.4750
L18.8550 11.4750
" />
</g>
<g style="fill:#0D115E; fill-opacity:0.0; 
stroke:#0D115E; stroke-width:0.1200; stroke-opacity:1; 
stroke-linecap:round; stroke-linejoin:round;">
<path d="M58.0225 5.7077
L58.0225 6.1823
" />
<path d="M56.9775 5.7077
L56.9775 6.1823
" />
<path d="M40.9094 6.9262
L41.1906 6.9262
" />
<path d="M40.9094 7.9462
L41.1906 7.9462
" />
<path d="M0.6100 32.1100
L0.6100 32.8500
" />
<path d="M0.6100 32.8500
L1.1100 32.8500
" />
<path d="M0.8500 26.2900
L0.8500 32.6100
" />
<path d="M0.8500 26.2900
L11.5900 26.2900
" />
<path d="M0.8500 26.7500
L11.5900 26.7500
" />
<path d="M0.8500 32.0500
L11.5900 32.0500
" />
<path d="M0.8500 32.6100
L11.5900 32.6100
" />
<path d="M11.5900 26.2900
L11.5900 32.6100
" />
<path d="M60.4873 27.3725
L60.0127 27.3725
" />
<path d="M60.4873 26.3275
L60.0127 26.3275
" />
<path d="M55.6594 26.7900
L55.9406 26.7900
" />
<path d="M55.6594 27.8100
L55.9406 27.8100
" />
<path d="M12.2500 32.1100
L12.2500 32.8500
" />
<path d="M12.2500 32.8500
L12.7500 32.8500
" />
<path d="M12.4900 26.2900
L12.4900 32.6100
" />
<path d="M12.4900 26.2900
L23.2300 26.2900
" />
<path d="M12.4900 26.7500
L23.2300 26.7500
" />
<path d="M12.4900 32.0500
L23.2300 32.0500
" />
<path d="M12.4900 32.6100
L23.2300 32.6100
" />
<path d="M23.2300 26.2900
L23.2300 32.6100
" />
<path d="M45.8230 14.3525
L45.3730 14.3525
" />
<path d="M45.3730 14.3525
L45.3730 13.0625
" />
<path d="M38.6030 14.3525
L39.0530 14.3525
" />
<path d="M45.8230 14.8025
L45.8230 14.3525
" />
<path d="M38.6030 14.8025
L38.6030 14.3525
" />
<path d="M45.8230 21.1225
L45.8230 21.5725
" />
<path d="M38.6030 21.1225
L38.6030 21.5725
" />
<path d="M45.8230 21.5725
L45.3730 21.5725
" />
<path d="M38.6030 21.5725
L39.0530 21.5725
" />
<path d="M11.6500 1.1900
L11.6500 0.4500
" />
<path d="M11.6500 0.4500
L11.1500 0.4500
" />
<path d="M11.4100 7.0100
L11.4100 0.6900
" />
<path d="M11.4100 7.0100
L0.6700 7.0100
" />
<path d="M11.4100 6.5500
L0.6700 6.5500
" />
<path d="M11.4100 1.2500
L0.6700 1.2500
" />
<path d="M11.4100 0.6900
L0.6700 0.6900
" />
<path d="M0.6700 7.0100
L0.6700 0.6900
" />
<path d="M2.4677 16.8875
L2.9423 16.8875
" />
<path d="M2.4677 17.9325
L2.9423 17.9325
" />
<path d="M23.2900 1.1900
L23.2900 0.4500
" />
<path d="M23.2900 0.4500
L22.7900 0.4500
" />
<path d="M23.0500 7.0100
L23.0500 0.6900
" />
<path d="M23.0500 7.0100
L12.3100 7.0100
" />
<path d="M23.0500 6.5500
L12.3100 6.5500
" />
<path d="M23.0500 1.2500
L12.3100 1.2500
" />
<path d="M23.0500 0.6900
L12.3100 0.6900
" />
<path d="M12.3100 7.0100
L12.3100 0.6900
" />
<path d="M50.5300 16.7444
L50.5300 17.0256
" />
<path d="M49.5100 16.7444
L49.5100 17.0256
" />
<path d="M44.2156 7.9462
L43.9344 7.9462
" />
<path d="M44.2156 6.9262
L43.9344 6.9262
" />
<path d="M61.2100 5.8044
L61.2100 6.0856
" />
<path d="M60.1900 5.8044
L60.1900 6.0856
" />
<path d="M2.4527 15.2975
L2.9273 15.2975
" />
<path d="M2.4527 16.3425
L2.9273 16.3425
" />
<path d="M2.4677 24.0475
L2.9423 24.0475
" />
<path d="M2.4677 25.0925
L2.9423 25.0925
" />
<path d="M52.7900 29.1400
L58.9100 29.1400
" />
<path d="M52.7900 32.7600
L52.7900 29.1400
" />
<path d="M58.9100 29.1400
L58.9100 32.7600
" />
<path d="M58.9100 32.7600
L52.7900 32.7600
" />
<path d="M49.0363 16.7074
L49.0363 16.9886
" />
<path d="M48.0163 16.7074
L48.0163 16.9886
" />
</g>
<g style="fill:#0D115E; fill-opacity:0.0; 
stroke:#0D115E; stroke-width:0.2000; stroke-opacity:1; 
stroke-linecap:round; stroke-linejoin:round;">
<path d="M8.4300 23.5850
L6.9050 23.5850
" />
<path d="M6.5550 23.4300
L3.3550 23.4300
" />
<path d="M6.5550 18.5300
L6.5550 23.4300
" />
<path d="M3.3550 23.4300
L3.3550 18.5300
" />
<path d="M3.3550 18.5300
L6.5550 18.5300
" />
</g>
<g style="fill:#0D115E; fill-opacity:0.0; 
stroke:#0D115E; stroke-width:0.1200; stroke-opacity:1; 
stroke-linecap:round; stroke-linejoin:round;">
<path d="M10.1027 21.0475
L10.5773 21.0475
" />
<path d="M10.1027 22.0925
L10.5773 22.0925
" />
<path d="M56.3700 18.6000
L52.9200 18.6000
" />
<path d="M56.3700 18.6000
L58.3200 18.6000
" />
<path d="M56.3700 23.7200
L54.4200 23.7200
" />
<path d="M56.3700 23.7200
L58.3200 23.7200
" />
</g>
<g style="fill:#0D115E; fill-opacity:0.0; 
stroke:#0D115E; stroke-width:0.2000; stroke-opacity:1; 
stroke-linecap:round; stroke-linejoin:round;">
<path d="M8.4050 14.8850
L6.8800 14.8850
" />
<path d="M6.5300 14.7300
L3.3300 14.7300
" />
<path d="M6.5300 9.8300
L6.5300 14.7300
" />
<path d="M3.3300 14.7300
L3.3300 9.8300
" />
<path d="M3.3300 9.8300
L6.5300 9.8300
" />
</g>
<g style="fill:#0D115E; fill-opacity:0.0; 
stroke:#0D115E; stroke-width:0.1200; stroke-opacity:1; 
stroke-linecap:round; stroke-linejoin:round;">
<path d="M10.1177 18.5575
L10.5923 18.5575
" />
<path d="M10.1177 19.6025
L10.5923 19.6025
" />
<path d="M70.0350 28.6300
L70.7750 28.6300
" />
<path d="M70.7750 28.6300
L70.7750 28.1300
" />
<path d="M64.2150 28.3900
L70.5350 28.3900
" />
<path d="M64.2150 28.3900
L64.2150 17.6500
" />
<path d="M64.6750 28.3900
L64.6750 17.6500
" />
<path d="M69.9750 28.3900
L69.9750 17.6500
" />
<path d="M70.5350 28.3900
L70.5350 17.6500
" />
<path d="M64.2150 17.6500
L70.5350 17.6500
" />
<path d="M45.3556 27.0380
L45.0744 27.0380
" />
<path d="M45.3556 26.0180
L45.0744 26.0180
" />
<path d="M52.0663 18.1424
L52.0663 18.4236
" />
<path d="M51.0463 18.1424
L51.0463 18.4236
" />
<path d="M45.3556 25.2900
L45.0744 25.2900
" />
<path d="M45.3556 24.2700
L45.0744 24.2700
" />
<path d="M61.8175 22.3877
L61.8175 22.8623
" />
<path d="M60.7725 22.3877
L60.7725 22.8623
" />
<path d="M10.0297 12.3625
L10.5043 12.3625
" />
<path d="M10.0297 13.4075
L10.5043 13.4075
" />
<path d="M23.9544 23.0800
L24.2356 23.0800
" />
<path d="M23.9544 24.1000
L24.2356 24.1000
" />
<path d="M34.6900 21.5956
L34.6900 21.3144
" />
<path d="M35.7100 21.5956
L35.7100 21.3144
" />
<g >
</g>
<g >
</g>
<g >
</g>
<g >
</g>
<g >
</g>
<g >
</g>
<g >
</g>
<g >
</g>
<g >
</g>
<g >
</g>
<g >
</g>
<g >
</g>
<g >
</g>
<g >
</g>
<g >
</g>
<g >
</g>
<g >
</g>
<g >
</g>
<g >
</g>
<g >
</g>
<g >
</g>
<g >
</g>
<g >
</g>
<g >
</g>
<g >
</g>
<g >
</g>
<g >
</g>
<g >
</g>
<g >
</g>
<g >
</g>
<g >
</g>
<g >
</g>
<g >
</g>
<g >
</g>
<g >
</g>
<g >
</g>
<g >
</g>
<g >
</g>
<g >
</g>
<g >
</g>
<g >
</g>
<g >
</g>
<g >
</g>
<g >
</g>
<g >
</g>
<g >
</g>
<g >
</g>
<g >
</g>
<g >
</g>
<g >
</g>
</g>
<g style="fill:#FFFFFF; fill-opacity:0.0; 
stroke:#FFFFFF; stroke-width:0.1200; stroke-opacity:1; 
stroke-linecap:round; stroke-linejoin:round;">
</g>
<g style="fill:#2F2D31; fill-opacity:0.0; 
stroke:#2F2D31; stroke-width:0.1200; stroke-opacity:1; 
stroke-linecap:round; stroke-linejoin:round;">
</g>
<g style="fill:#2F2D31; fill-opacity:0.0; 
stroke:#2F2D31; stroke-width:0.1000; stroke-opacity:1; 
stroke-linecap:round; stroke-linejoin:round;">
<path d="M0.0500 0.0500
L70.0500 0.0500
" />
<path d="M70.0500 0.0500
L70.0500 33.5500
" />
<path d="M0.0500 33.5500
L0.0500 0.0500
" />
<path d="M70.0500 33.5500
L0.0500 33.5500
" />
<g >
</g>
<g >
</g>
<g >
</g>
<g >
</g>
<g >
</g>
<g >
</g>
<g >
</g>
<g >
</g>
<g >
</g>
<g >
</g>
<g >
</g>
<g >
</g>
<g >
</g>
<g >
</g>
<g >
</g>
<g >
</g>
<g >
</g>
<g >
</g>
<g >
</g>
<g >
</g>
<g >
</g>
<g >
</g>
<g >
</g>
<g >
</g>
<g >
</g>
<g >
</g>
<g >
</g>
<g >
</g>
<g >
</g>
<g >
</g>
<g >
</g>
<g >
</g>
<g >
</g>
<g >
</g>
<g >
</g>
<g >
</g>
<g >
</g>
<g >
</g>
<g >
</g>
<g >
</g>
<g >
</g>
<g >
</g>
<g >
</g>
<g >
</g>
<g >
</g>
<g >
</g>
<g >
</g>
<g >
</g>
<g >
</g>
<g >
</g>
</g> 
</svg>
