<?xml version="1.0" standalone="no"?>
 <!DOCTYPE svg PUBLIC "-//W3C//DTD SVG 1.1//EN" 
 "http://www.w3.org/Graphics/SVG/1.1/DTD/svg11.dtd"> 
<svg
  xmlns:svg="http://www.w3.org/2000/svg"
  xmlns="http://www.w3.org/2000/svg"
  xmlns:xlink="http://www.w3.org/1999/xlink"
  version="1.1"
  width="70.9930mm" height="33.6550mm" viewBox="0.0000 0.0000 70.9930 33.6550">
<title>SVG Image created as iolink-F_Paste.svg date 2024/02/25 00:57:53 </title>
  <desc>Image generated by PCBNEW </desc>
<g style="fill:#000000; fill-opacity:1.0000;stroke:#000000; stroke-opacity:1.0000;
stroke-linecap:round; stroke-linejoin:round;"
 transform="translate(0 0) scale(1 1)">
</g>
<g style="fill:#000000; fill-opacity:0.0; 
stroke:#000000; stroke-width:0.0000; stroke-opacity:1; 
stroke-linecap:round; stroke-linejoin:round;">
</g>
<g style="fill:#000000; fill-opacity:1.0000; 
stroke:#000000; stroke-width:0.0212; stroke-opacity:1; 
stroke-linecap:round; stroke-linejoin:round;">
<rect x="-5.000000" y="-5.000000" width="81.000000" height="43.675000" rx="0.000000" />
</g>
<g style="fill:#FFFFFF; fill-opacity:1.0000; 
stroke:#FFFFFF; stroke-width:0.0212; stroke-opacity:1; 
stroke-linecap:round; stroke-linejoin:round;">
<g >
</g>
<g style="fill:#4A5F65; fill-opacity:0.9000; 
stroke:#4A5F65; stroke-width:0.0212; stroke-opacity:1; 
stroke-linecap:round; stroke-linejoin:round;">
</g>
<g style="fill:#4A5F65; fill-opacity:0.9000; 
stroke:#4A5F65; stroke-width:0.0000; stroke-opacity:1; 
stroke-linecap:round; stroke-linejoin:round;">
<path style="fill:#4A5F65; fill-opacity:0.9000; 
stroke:#4A5F65; stroke-width:0.0000; stroke-opacity:1; 
stroke-linecap:round; stroke-linejoin:round;fill-rule:evenodd;"
d="M 35.3350,8.8000
35.3179,8.8861
35.2691,8.9591
35.1961,9.0079
35.1100,9.0250
34.6600,9.0250
34.5739,9.0079
34.5009,8.9591
34.4521,8.8861
34.4350,8.8000
34.4350,8.3000
34.4521,8.2139
34.5009,8.1409
34.5739,8.0921
34.6600,8.0750
35.1100,8.0750
35.1961,8.0921
35.2691,8.1409
35.3179,8.2139
35.3350,8.3000
Z" /> 
<path style="fill:#4A5F65; fill-opacity:0.9000; 
stroke:#4A5F65; stroke-width:0.0000; stroke-opacity:1; 
stroke-linecap:round; stroke-linejoin:round;fill-rule:evenodd;"
d="M 33.7850,8.8000
33.7679,8.8861
33.7191,8.9591
33.6461,9.0079
33.5600,9.0250
33.1100,9.0250
33.0239,9.0079
32.9509,8.9591
32.9021,8.8861
32.8850,8.8000
32.8850,8.3000
32.9021,8.2139
32.9509,8.1409
33.0239,8.0921
33.1100,8.0750
33.5600,8.0750
33.6461,8.0921
33.7191,8.1409
33.7679,8.2139
33.7850,8.3000
Z" /> 
</g>
<g >
</g>
<g >
</g>
<g style="fill:#4A5F65; fill-opacity:0.9000; 
stroke:#4A5F65; stroke-width:0.0000; stroke-opacity:1; 
stroke-linecap:round; stroke-linejoin:round;">
<path style="fill:#4A5F65; fill-opacity:0.9000; 
stroke:#4A5F65; stroke-width:0.0000; stroke-opacity:1; 
stroke-linecap:round; stroke-linejoin:round;fill-rule:evenodd;"
d="M 1.4650,8.4450
1.4802,8.3685
1.5236,8.3036
1.5885,8.2602
1.6650,8.2450
2.0650,8.2450
2.1415,8.2602
2.2064,8.3036
2.2498,8.3685
2.2650,8.4450
2.2650,8.9950
2.2498,9.0715
2.2064,9.1364
2.1415,9.1798
2.0650,9.1950
1.6650,9.1950
1.5885,9.1798
1.5236,9.1364
1.4802,9.0715
1.4650,8.9950
Z" /> 
<path style="fill:#4A5F65; fill-opacity:0.9000; 
stroke:#4A5F65; stroke-width:0.0000; stroke-opacity:1; 
stroke-linecap:round; stroke-linejoin:round;fill-rule:evenodd;"
d="M 3.1150,8.4450
3.1302,8.3685
3.1736,8.3036
3.2385,8.2602
3.3150,8.2450
3.7150,8.2450
3.7915,8.2602
3.8564,8.3036
3.8998,8.3685
3.9150,8.4450
3.9150,8.9950
3.8998,9.0715
3.8564,9.1364
3.7915,9.1798
3.7150,9.1950
3.3150,9.1950
3.2385,9.1798
3.1736,9.1364
3.1302,9.0715
3.1150,8.9950
Z" /> 
</g>
<g >
</g>
<g style="fill:#4A5F65; fill-opacity:0.9000; 
stroke:#4A5F65; stroke-width:0.0000; stroke-opacity:1; 
stroke-linecap:round; stroke-linejoin:round;">
<path style="fill:#4A5F65; fill-opacity:0.9000; 
stroke:#4A5F65; stroke-width:0.0000; stroke-opacity:1; 
stroke-linecap:round; stroke-linejoin:round;fill-rule:evenodd;"
d="M 9.0170,10.1100
9.0322,10.0335
9.0756,9.9686
9.1405,9.9252
9.2170,9.9100
9.6170,9.9100
9.6935,9.9252
9.7584,9.9686
9.8018,10.0335
9.8170,10.1100
9.8170,10.6600
9.8018,10.7365
9.7584,10.8014
9.6935,10.8448
9.6170,10.8600
9.2170,10.8600
9.1405,10.8448
9.0756,10.8014
9.0322,10.7365
9.0170,10.6600
Z" /> 
<path style="fill:#4A5F65; fill-opacity:0.9000; 
stroke:#4A5F65; stroke-width:0.0000; stroke-opacity:1; 
stroke-linecap:round; stroke-linejoin:round;fill-rule:evenodd;"
d="M 10.6670,10.1100
10.6822,10.0335
10.7256,9.9686
10.7905,9.9252
10.8670,9.9100
11.2670,9.9100
11.3435,9.9252
11.4084,9.9686
11.4518,10.0335
11.4670,10.1100
11.4670,10.6600
11.4518,10.7365
11.4084,10.8014
11.3435,10.8448
11.2670,10.8600
10.8670,10.8600
10.7905,10.8448
10.7256,10.8014
10.6822,10.7365
10.6670,10.6600
Z" /> 
</g>
<g >
</g>
<g style="fill:#4A5F65; fill-opacity:0.9000; 
stroke:#4A5F65; stroke-width:0.0000; stroke-opacity:1; 
stroke-linecap:round; stroke-linejoin:round;">
<path style="fill:#4A5F65; fill-opacity:0.9000; 
stroke:#4A5F65; stroke-width:0.0000; stroke-opacity:1; 
stroke-linecap:round; stroke-linejoin:round;fill-rule:evenodd;"
d="M 33.4400,22.6850
33.3539,22.6679
33.2809,22.6191
33.2321,22.5461
33.2150,22.4600
33.2150,22.0100
33.2321,21.9239
33.2809,21.8509
33.3539,21.8021
33.4400,21.7850
33.9400,21.7850
34.0261,21.8021
34.0991,21.8509
34.1479,21.9239
34.1650,22.0100
34.1650,22.4600
34.1479,22.5461
34.0991,22.6191
34.0261,22.6679
33.9400,22.6850
Z" /> 
<path style="fill:#4A5F65; fill-opacity:0.9000; 
stroke:#4A5F65; stroke-width:0.0000; stroke-opacity:1; 
stroke-linecap:round; stroke-linejoin:round;fill-rule:evenodd;"
d="M 33.4400,21.1350
33.3539,21.1179
33.2809,21.0691
33.2321,20.9961
33.2150,20.9100
33.2150,20.4600
33.2321,20.3739
33.2809,20.3009
33.3539,20.2521
33.4400,20.2350
33.9400,20.2350
34.0261,20.2521
34.0991,20.3009
34.1479,20.3739
34.1650,20.4600
34.1650,20.9100
34.1479,20.9961
34.0991,21.0691
34.0261,21.1179
33.9400,21.1350
Z" /> 
</g>
<g >
</g>
<g style="fill:#4A5F65; fill-opacity:0.9000; 
stroke:#4A5F65; stroke-width:0.0000; stroke-opacity:1; 
stroke-linecap:round; stroke-linejoin:round;">
<path style="fill:#4A5F65; fill-opacity:0.9000; 
stroke:#4A5F65; stroke-width:0.0000; stroke-opacity:1; 
stroke-linecap:round; stroke-linejoin:round;fill-rule:evenodd;"
d="M 59.3500,4.7200
59.4361,4.7371
59.5091,4.7859
59.5579,4.8589
59.5750,4.9450
59.5750,5.3950
59.5579,5.4811
59.5091,5.5541
59.4361,5.6029
59.3500,5.6200
58.8500,5.6200
58.7639,5.6029
58.6909,5.5541
58.6421,5.4811
58.6250,5.3950
58.6250,4.9450
58.6421,4.8589
58.6909,4.7859
58.7639,4.7371
58.8500,4.7200
Z" /> 
<path style="fill:#4A5F65; fill-opacity:0.9000; 
stroke:#4A5F65; stroke-width:0.0000; stroke-opacity:1; 
stroke-linecap:round; stroke-linejoin:round;fill-rule:evenodd;"
d="M 59.3500,6.2700
59.4361,6.2871
59.5091,6.3359
59.5579,6.4089
59.5750,6.4950
59.5750,6.9450
59.5579,7.0311
59.5091,7.1041
59.4361,7.1529
59.3500,7.1700
58.8500,7.1700
58.7639,7.1529
58.6909,7.1041
58.6421,7.0311
58.6250,6.9450
58.6250,6.4950
58.6421,6.4089
58.6909,6.3359
58.7639,6.2871
58.8500,6.2700
Z" /> 
</g>
<g >
</g>
<g style="fill:#4A5F65; fill-opacity:0.9000; 
stroke:#4A5F65; stroke-width:0.0000; stroke-opacity:1; 
stroke-linecap:round; stroke-linejoin:round;">
<path style="fill:#4A5F65; fill-opacity:0.9000; 
stroke:#4A5F65; stroke-width:0.0000; stroke-opacity:1; 
stroke-linecap:round; stroke-linejoin:round;fill-rule:evenodd;"
d="M 62.6450,22.5250
62.5589,22.5079
62.4859,22.4591
62.4371,22.3861
62.4200,22.3000
62.4200,21.8500
62.4371,21.7639
62.4859,21.6909
62.5589,21.6421
62.6450,21.6250
63.1450,21.6250
63.2311,21.6421
63.3041,21.6909
63.3529,21.7639
63.3700,21.8500
63.3700,22.3000
63.3529,22.3861
63.3041,22.4591
63.2311,22.5079
63.1450,22.5250
Z" /> 
<path style="fill:#4A5F65; fill-opacity:0.9000; 
stroke:#4A5F65; stroke-width:0.0000; stroke-opacity:1; 
stroke-linecap:round; stroke-linejoin:round;fill-rule:evenodd;"
d="M 62.6450,20.9750
62.5589,20.9579
62.4859,20.9091
62.4371,20.8361
62.4200,20.7500
62.4200,20.3000
62.4371,20.2139
62.4859,20.1409
62.5589,20.0921
62.6450,20.0750
63.1450,20.0750
63.2311,20.0921
63.3041,20.1409
63.3529,20.2139
63.3700,20.3000
63.3700,20.7500
63.3529,20.8361
63.3041,20.9091
63.2311,20.9579
63.1450,20.9750
Z" /> 
</g>
<g >
</g>
<g style="fill:#4A5F65; fill-opacity:0.9000; 
stroke:#4A5F65; stroke-width:0.0000; stroke-opacity:1; 
stroke-linecap:round; stroke-linejoin:round;">
<path style="fill:#4A5F65; fill-opacity:0.9000; 
stroke:#4A5F65; stroke-width:0.0000; stroke-opacity:1; 
stroke-linecap:round; stroke-linejoin:round;fill-rule:evenodd;"
d="M 51.8313,13.9080
51.9079,13.9232
51.9728,13.9666
52.0161,14.0315
52.0313,14.1080
52.0313,14.5080
52.0161,14.5845
51.9728,14.6494
51.9079,14.6928
51.8313,14.7080
51.2813,14.7080
51.2048,14.6928
51.1399,14.6494
51.0966,14.5845
51.0813,14.5080
51.0813,14.1080
51.0966,14.0315
51.1399,13.9666
51.2048,13.9232
51.2813,13.9080
Z" /> 
<path style="fill:#4A5F65; fill-opacity:0.9000; 
stroke:#4A5F65; stroke-width:0.0000; stroke-opacity:1; 
stroke-linecap:round; stroke-linejoin:round;fill-rule:evenodd;"
d="M 51.8313,15.5580
51.9079,15.5732
51.9728,15.6166
52.0161,15.6815
52.0313,15.7580
52.0313,16.1580
52.0161,16.2345
51.9728,16.2994
51.9079,16.3428
51.8313,16.3580
51.2813,16.3580
51.2048,16.3428
51.1399,16.2994
51.0966,16.2345
51.0813,16.1580
51.0813,15.7580
51.0966,15.6815
51.1399,15.6166
51.2048,15.5732
51.2813,15.5580
Z" /> 
</g>
<g >
</g>
<g style="fill:#4A5F65; fill-opacity:0.9000; 
stroke:#4A5F65; stroke-width:0.0000; stroke-opacity:1; 
stroke-linecap:round; stroke-linejoin:round;">
<path style="fill:#4A5F65; fill-opacity:0.9000; 
stroke:#4A5F65; stroke-width:0.0000; stroke-opacity:1; 
stroke-linecap:round; stroke-linejoin:round;fill-rule:evenodd;"
d="M 56.9100,14.1650
56.9100,15.5650
56.2100,15.5650
56.2100,14.1650
Z" /> 
<path style="fill:#4A5F65; fill-opacity:0.9000; 
stroke:#4A5F65; stroke-width:0.0000; stroke-opacity:1; 
stroke-linecap:round; stroke-linejoin:round;fill-rule:evenodd;"
d="M 57.9100,14.1650
57.9100,15.5650
57.2100,15.5650
57.2100,14.1650
Z" /> 
<path style="fill:#4A5F65; fill-opacity:0.9000; 
stroke:#4A5F65; stroke-width:0.0000; stroke-opacity:1; 
stroke-linecap:round; stroke-linejoin:round;fill-rule:evenodd;"
d="M 58.9100,14.1650
58.9100,15.5650
58.2100,15.5650
58.2100,14.1650
Z" /> 
<path style="fill:#4A5F65; fill-opacity:0.9000; 
stroke:#4A5F65; stroke-width:0.0000; stroke-opacity:1; 
stroke-linecap:round; stroke-linejoin:round;fill-rule:evenodd;"
d="M 59.9100,14.1650
59.9100,15.5650
59.2100,15.5650
59.2100,14.1650
Z" /> 
<path style="fill:#4A5F65; fill-opacity:0.9000; 
stroke:#4A5F65; stroke-width:0.0000; stroke-opacity:1; 
stroke-linecap:round; stroke-linejoin:round;fill-rule:evenodd;"
d="M 60.9100,14.1650
60.9100,15.5650
60.2100,15.5650
60.2100,14.1650
Z" /> 
<path style="fill:#4A5F65; fill-opacity:0.9000; 
stroke:#4A5F65; stroke-width:0.0000; stroke-opacity:1; 
stroke-linecap:round; stroke-linejoin:round;fill-rule:evenodd;"
d="M 60.9100,8.6650
60.9100,10.0650
60.2100,10.0650
60.2100,8.6650
Z" /> 
<path style="fill:#4A5F65; fill-opacity:0.9000; 
stroke:#4A5F65; stroke-width:0.0000; stroke-opacity:1; 
stroke-linecap:round; stroke-linejoin:round;fill-rule:evenodd;"
d="M 59.9100,8.6650
59.9100,10.0650
59.2100,10.0650
59.2100,8.6650
Z" /> 
<path style="fill:#4A5F65; fill-opacity:0.9000; 
stroke:#4A5F65; stroke-width:0.0000; stroke-opacity:1; 
stroke-linecap:round; stroke-linejoin:round;fill-rule:evenodd;"
d="M 58.9100,8.6650
58.9100,10.0650
58.2100,10.0650
58.2100,8.6650
Z" /> 
<path style="fill:#4A5F65; fill-opacity:0.9000; 
stroke:#4A5F65; stroke-width:0.0000; stroke-opacity:1; 
stroke-linecap:round; stroke-linejoin:round;fill-rule:evenodd;"
d="M 57.9100,8.6650
57.9100,10.0650
57.2100,10.0650
57.2100,8.6650
Z" /> 
<path style="fill:#4A5F65; fill-opacity:0.9000; 
stroke:#4A5F65; stroke-width:0.0000; stroke-opacity:1; 
stroke-linecap:round; stroke-linejoin:round;fill-rule:evenodd;"
d="M 56.9100,8.6650
56.9100,10.0650
56.2100,10.0650
56.2100,8.6650
Z" /> 
<path style="fill:#4A5F65; fill-opacity:0.9000; 
stroke:#4A5F65; stroke-width:0.0000; stroke-opacity:1; 
stroke-linecap:round; stroke-linejoin:round;fill-rule:evenodd;"
d="M 60.1600,13.2650
56.9600,13.2650
56.9600,10.9650
60.1600,10.9650
Z" /> 
</g>
<g >
</g>
<g style="fill:#4A5F65; fill-opacity:0.9000; 
stroke:#4A5F65; stroke-width:0.0000; stroke-opacity:1; 
stroke-linecap:round; stroke-linejoin:round;">
<path style="fill:#4A5F65; fill-opacity:0.9000; 
stroke:#4A5F65; stroke-width:0.0000; stroke-opacity:1; 
stroke-linecap:round; stroke-linejoin:round;fill-rule:evenodd;"
d="M 29.7850,23.1250
29.7698,23.2015
29.7264,23.2664
29.6615,23.3098
29.5850,23.3250
29.1850,23.3250
29.1085,23.3098
29.0436,23.2664
29.0002,23.2015
28.9850,23.1250
28.9850,22.5750
29.0002,22.4985
29.0436,22.4336
29.1085,22.3902
29.1850,22.3750
29.5850,22.3750
29.6615,22.3902
29.7264,22.4336
29.7698,22.4985
29.7850,22.5750
Z" /> 
<path style="fill:#4A5F65; fill-opacity:0.9000; 
stroke:#4A5F65; stroke-width:0.0000; stroke-opacity:1; 
stroke-linecap:round; stroke-linejoin:round;fill-rule:evenodd;"
d="M 28.1350,23.1250
28.1198,23.2015
28.0764,23.2664
28.0115,23.3098
27.9350,23.3250
27.5350,23.3250
27.4585,23.3098
27.3936,23.2664
27.3502,23.2015
27.3350,23.1250
27.3350,22.5750
27.3502,22.4985
27.3936,22.4336
27.4585,22.3902
27.5350,22.3750
27.9350,22.3750
28.0115,22.3902
28.0764,22.4336
28.1198,22.4985
28.1350,22.5750
Z" /> 
</g>
<g >
</g>
<g style="fill:#4A5F65; fill-opacity:0.9000; 
stroke:#4A5F65; stroke-width:0.0000; stroke-opacity:1; 
stroke-linecap:round; stroke-linejoin:round;">
<path style="fill:#4A5F65; fill-opacity:0.9000; 
stroke:#4A5F65; stroke-width:0.0000; stroke-opacity:1; 
stroke-linecap:round; stroke-linejoin:round;fill-rule:evenodd;"
d="M 24.2000,9.0750
24.1139,9.0579
24.0409,9.0091
23.9921,8.9361
23.9750,8.8500
23.9750,8.4000
23.9921,8.3139
24.0409,8.2409
24.1139,8.1921
24.2000,8.1750
24.7000,8.1750
24.7861,8.1921
24.8591,8.2409
24.9079,8.3139
24.9250,8.4000
24.9250,8.8500
24.9079,8.9361
24.8591,9.0091
24.7861,9.0579
24.7000,9.0750
Z" /> 
<path style="fill:#4A5F65; fill-opacity:0.9000; 
stroke:#4A5F65; stroke-width:0.0000; stroke-opacity:1; 
stroke-linecap:round; stroke-linejoin:round;fill-rule:evenodd;"
d="M 24.2000,7.5250
24.1139,7.5079
24.0409,7.4591
23.9921,7.3861
23.9750,7.3000
23.9750,6.8500
23.9921,6.7639
24.0409,6.6909
24.1139,6.6421
24.2000,6.6250
24.7000,6.6250
24.7861,6.6421
24.8591,6.6909
24.9079,6.7639
24.9250,6.8500
24.9250,7.3000
24.9079,7.3861
24.8591,7.4591
24.7861,7.5079
24.7000,7.5250
Z" /> 
</g>
<g >
</g>
<g >
</g>
<g style="fill:#4A5F65; fill-opacity:0.9000; 
stroke:#4A5F65; stroke-width:0.0000; stroke-opacity:1; 
stroke-linecap:round; stroke-linejoin:round;">
<path style="fill:#4A5F65; fill-opacity:0.9000; 
stroke:#4A5F65; stroke-width:0.0000; stroke-opacity:1; 
stroke-linecap:round; stroke-linejoin:round;fill-rule:evenodd;"
d="M 62.5700,13.4300
62.5126,13.4186
62.4639,13.3861
62.4314,13.3374
62.4200,13.2800
62.4200,12.9800
62.4314,12.9226
62.4639,12.8739
62.5126,12.8414
62.5700,12.8300
63.4200,12.8300
63.4774,12.8414
63.5261,12.8739
63.5586,12.9226
63.5700,12.9800
63.5700,13.2800
63.5586,13.3374
63.5261,13.3861
63.4774,13.4186
63.4200,13.4300
Z" /> 
<path style="fill:#4A5F65; fill-opacity:0.9000; 
stroke:#4A5F65; stroke-width:0.0000; stroke-opacity:1; 
stroke-linecap:round; stroke-linejoin:round;fill-rule:evenodd;"
d="M 62.5700,12.6300
62.5126,12.6186
62.4639,12.5861
62.4314,12.5374
62.4200,12.4800
62.4200,12.1800
62.4314,12.1226
62.4639,12.0739
62.5126,12.0414
62.5700,12.0300
63.4200,12.0300
63.4774,12.0414
63.5261,12.0739
63.5586,12.1226
63.5700,12.1800
63.5700,12.4800
63.5586,12.5374
63.5261,12.5861
63.4774,12.6186
63.4200,12.6300
Z" /> 
<path style="fill:#4A5F65; fill-opacity:0.9000; 
stroke:#4A5F65; stroke-width:0.0000; stroke-opacity:1; 
stroke-linecap:round; stroke-linejoin:round;fill-rule:evenodd;"
d="M 62.4950,11.3300
62.4663,11.3243
62.4420,11.3080
62.4257,11.2837
62.4200,11.2550
62.4200,11.1050
62.4257,11.0763
62.4420,11.0520
62.4663,11.0357
62.4950,11.0300
63.4950,11.0300
63.5237,11.0357
63.5480,11.0520
63.5643,11.0763
63.5700,11.1050
63.5700,11.2550
63.5643,11.2837
63.5480,11.3080
63.5237,11.3243
63.4950,11.3300
Z" /> 
<path style="fill:#4A5F65; fill-opacity:0.9000; 
stroke:#4A5F65; stroke-width:0.0000; stroke-opacity:1; 
stroke-linecap:round; stroke-linejoin:round;fill-rule:evenodd;"
d="M 62.4950,10.3300
62.4663,10.3243
62.4420,10.3080
62.4257,10.2837
62.4200,10.2550
62.4200,10.1050
62.4257,10.0763
62.4420,10.0520
62.4663,10.0357
62.4950,10.0300
63.4950,10.0300
63.5237,10.0357
63.5480,10.0520
63.5643,10.0763
63.5700,10.1050
63.5700,10.2550
63.5643,10.2837
63.5480,10.3080
63.5237,10.3243
63.4950,10.3300
Z" /> 
<path style="fill:#4A5F65; fill-opacity:0.9000; 
stroke:#4A5F65; stroke-width:0.0000; stroke-opacity:1; 
stroke-linecap:round; stroke-linejoin:round;fill-rule:evenodd;"
d="M 62.4950,9.8300
62.4663,9.8243
62.4420,9.8080
62.4257,9.7837
62.4200,9.7550
62.4200,9.6050
62.4257,9.5763
62.4420,9.5520
62.4663,9.5357
62.4950,9.5300
63.4950,9.5300
63.5237,9.5357
63.5480,9.5520
63.5643,9.5763
63.5700,9.6050
63.5700,9.7550
63.5643,9.7837
63.5480,9.8080
63.5237,9.8243
63.4950,9.8300
Z" /> 
<path style="fill:#4A5F65; fill-opacity:0.9000; 
stroke:#4A5F65; stroke-width:0.0000; stroke-opacity:1; 
stroke-linecap:round; stroke-linejoin:round;fill-rule:evenodd;"
d="M 62.4950,8.8300
62.4663,8.8243
62.4420,8.8080
62.4257,8.7837
62.4200,8.7550
62.4200,8.6050
62.4257,8.5763
62.4420,8.5520
62.4663,8.5357
62.4950,8.5300
63.4950,8.5300
63.5237,8.5357
63.5480,8.5520
63.5643,8.5763
63.5700,8.6050
63.5700,8.7550
63.5643,8.7837
63.5480,8.8080
63.5237,8.8243
63.4950,8.8300
Z" /> 
<path style="fill:#4A5F65; fill-opacity:0.9000; 
stroke:#4A5F65; stroke-width:0.0000; stroke-opacity:1; 
stroke-linecap:round; stroke-linejoin:round;fill-rule:evenodd;"
d="M 62.5700,7.8300
62.5126,7.8186
62.4639,7.7861
62.4314,7.7374
62.4200,7.6800
62.4200,7.3800
62.4314,7.3226
62.4639,7.2739
62.5126,7.2414
62.5700,7.2300
63.4200,7.2300
63.4774,7.2414
63.5261,7.2739
63.5586,7.3226
63.5700,7.3800
63.5700,7.6800
63.5586,7.7374
63.5261,7.7861
63.4774,7.8186
63.4200,7.8300
Z" /> 
<path style="fill:#4A5F65; fill-opacity:0.9000; 
stroke:#4A5F65; stroke-width:0.0000; stroke-opacity:1; 
stroke-linecap:round; stroke-linejoin:round;fill-rule:evenodd;"
d="M 62.5700,7.0300
62.5126,7.0186
62.4639,6.9861
62.4314,6.9374
62.4200,6.8800
62.4200,6.5800
62.4314,6.5226
62.4639,6.4739
62.5126,6.4414
62.5700,6.4300
63.4200,6.4300
63.4774,6.4414
63.5261,6.4739
63.5586,6.5226
63.5700,6.5800
63.5700,6.8800
63.5586,6.9374
63.5261,6.9861
63.4774,7.0186
63.4200,7.0300
Z" /> 
<path style="fill:#4A5F65; fill-opacity:0.9000; 
stroke:#4A5F65; stroke-width:0.0000; stroke-opacity:1; 
stroke-linecap:round; stroke-linejoin:round;fill-rule:evenodd;"
d="M 62.5700,7.0300
62.5126,7.0186
62.4639,6.9861
62.4314,6.9374
62.4200,6.8800
62.4200,6.5800
62.4314,6.5226
62.4639,6.4739
62.5126,6.4414
62.5700,6.4300
63.4200,6.4300
63.4774,6.4414
63.5261,6.4739
63.5586,6.5226
63.5700,6.5800
63.5700,6.8800
63.5586,6.9374
63.5261,6.9861
63.4774,7.0186
63.4200,7.0300
Z" /> 
<path style="fill:#4A5F65; fill-opacity:0.9000; 
stroke:#4A5F65; stroke-width:0.0000; stroke-opacity:1; 
stroke-linecap:round; stroke-linejoin:round;fill-rule:evenodd;"
d="M 62.5700,7.8300
62.5126,7.8186
62.4639,7.7861
62.4314,7.7374
62.4200,7.6800
62.4200,7.3800
62.4314,7.3226
62.4639,7.2739
62.5126,7.2414
62.5700,7.2300
63.4200,7.2300
63.4774,7.2414
63.5261,7.2739
63.5586,7.3226
63.5700,7.3800
63.5700,7.6800
63.5586,7.7374
63.5261,7.7861
63.4774,7.8186
63.4200,7.8300
Z" /> 
<path style="fill:#4A5F65; fill-opacity:0.9000; 
stroke:#4A5F65; stroke-width:0.0000; stroke-opacity:1; 
stroke-linecap:round; stroke-linejoin:round;fill-rule:evenodd;"
d="M 62.4950,8.3300
62.4663,8.3243
62.4420,8.3080
62.4257,8.2837
62.4200,8.2550
62.4200,8.1050
62.4257,8.0763
62.4420,8.0520
62.4663,8.0357
62.4950,8.0300
63.4950,8.0300
63.5237,8.0357
63.5480,8.0520
63.5643,8.0763
63.5700,8.1050
63.5700,8.2550
63.5643,8.2837
63.5480,8.3080
63.5237,8.3243
63.4950,8.3300
Z" /> 
<path style="fill:#4A5F65; fill-opacity:0.9000; 
stroke:#4A5F65; stroke-width:0.0000; stroke-opacity:1; 
stroke-linecap:round; stroke-linejoin:round;fill-rule:evenodd;"
d="M 62.4950,9.3300
62.4663,9.3243
62.4420,9.3080
62.4257,9.2837
62.4200,9.2550
62.4200,9.1050
62.4257,9.0763
62.4420,9.0520
62.4663,9.0357
62.4950,9.0300
63.4950,9.0300
63.5237,9.0357
63.5480,9.0520
63.5643,9.0763
63.5700,9.1050
63.5700,9.2550
63.5643,9.2837
63.5480,9.3080
63.5237,9.3243
63.4950,9.3300
Z" /> 
<path style="fill:#4A5F65; fill-opacity:0.9000; 
stroke:#4A5F65; stroke-width:0.0000; stroke-opacity:1; 
stroke-linecap:round; stroke-linejoin:round;fill-rule:evenodd;"
d="M 62.4950,10.8300
62.4663,10.8243
62.4420,10.8080
62.4257,10.7837
62.4200,10.7550
62.4200,10.6050
62.4257,10.5763
62.4420,10.5520
62.4663,10.5357
62.4950,10.5300
63.4950,10.5300
63.5237,10.5357
63.5480,10.5520
63.5643,10.5763
63.5700,10.6050
63.5700,10.7550
63.5643,10.7837
63.5480,10.8080
63.5237,10.8243
63.4950,10.8300
Z" /> 
<path style="fill:#4A5F65; fill-opacity:0.9000; 
stroke:#4A5F65; stroke-width:0.0000; stroke-opacity:1; 
stroke-linecap:round; stroke-linejoin:round;fill-rule:evenodd;"
d="M 62.4950,11.8300
62.4663,11.8243
62.4420,11.8080
62.4257,11.7837
62.4200,11.7550
62.4200,11.6050
62.4257,11.5763
62.4420,11.5520
62.4663,11.5357
62.4950,11.5300
63.4950,11.5300
63.5237,11.5357
63.5480,11.5520
63.5643,11.5763
63.5700,11.6050
63.5700,11.7550
63.5643,11.7837
63.5480,11.8080
63.5237,11.8243
63.4950,11.8300
Z" /> 
<path style="fill:#4A5F65; fill-opacity:0.9000; 
stroke:#4A5F65; stroke-width:0.0000; stroke-opacity:1; 
stroke-linecap:round; stroke-linejoin:round;fill-rule:evenodd;"
d="M 62.5700,12.6300
62.5126,12.6186
62.4639,12.5861
62.4314,12.5374
62.4200,12.4800
62.4200,12.1800
62.4314,12.1226
62.4639,12.0739
62.5126,12.0414
62.5700,12.0300
63.4200,12.0300
63.4774,12.0414
63.5261,12.0739
63.5586,12.1226
63.5700,12.1800
63.5700,12.4800
63.5586,12.5374
63.5261,12.5861
63.4774,12.6186
63.4200,12.6300
Z" /> 
<path style="fill:#4A5F65; fill-opacity:0.9000; 
stroke:#4A5F65; stroke-width:0.0000; stroke-opacity:1; 
stroke-linecap:round; stroke-linejoin:round;fill-rule:evenodd;"
d="M 62.5700,13.4300
62.5126,13.4186
62.4639,13.3861
62.4314,13.3374
62.4200,13.2800
62.4200,12.9800
62.4314,12.9226
62.4639,12.8739
62.5126,12.8414
62.5700,12.8300
63.4200,12.8300
63.4774,12.8414
63.5261,12.8739
63.5586,12.9226
63.5700,12.9800
63.5700,13.2800
63.5586,13.3374
63.5261,13.3861
63.4774,13.4186
63.4200,13.4300
Z" /> 
</g>
<g style="fill:#4A5F65; fill-opacity:0.9000; 
stroke:#4A5F65; stroke-width:1.0000; stroke-opacity:1; 
stroke-linecap:round; stroke-linejoin:round;">
</g>
<g style="fill:#4A5F65; fill-opacity:0.0; 
stroke:#4A5F65; stroke-width:1.0000; stroke-opacity:1; 
stroke-linecap:round; stroke-linejoin:round;">
<path d="M63.0200 14.2500
L64.1200 14.2500
" />
<path d="M67.3500 14.2500
L68.1500 14.2500
" />
<path d="M63.0200 5.6100
L64.1200 5.6100
" />
<path d="M67.3500 5.6100
L68.1500 5.6100
" />
</g>
<g >
</g>
<g style="fill:#4A5F65; fill-opacity:0.0; 
stroke:#4A5F65; stroke-width:1.0000; stroke-opacity:1; 
stroke-linecap:round; stroke-linejoin:round;">
</g>
<g style="fill:#4A5F65; fill-opacity:0.0; 
stroke:#4A5F65; stroke-width:0.0000; stroke-opacity:1; 
stroke-linecap:round; stroke-linejoin:round;">
</g>
<g style="fill:#4A5F65; fill-opacity:0.9000; 
stroke:#4A5F65; stroke-width:0.0000; stroke-opacity:1; 
stroke-linecap:round; stroke-linejoin:round;">
<path style="fill:#4A5F65; fill-opacity:0.9000; 
stroke:#4A5F65; stroke-width:0.0000; stroke-opacity:1; 
stroke-linecap:round; stroke-linejoin:round;fill-rule:evenodd;"
d="M 27.1000,7.2250
27.1000,9.0750
26.2000,9.0750
26.2000,7.2250
Z" /> 
<path style="fill:#4A5F65; fill-opacity:0.9000; 
stroke:#4A5F65; stroke-width:0.0000; stroke-opacity:1; 
stroke-linecap:round; stroke-linejoin:round;fill-rule:evenodd;"
d="M 29.4000,7.2250
29.4000,9.0750
28.5000,9.0750
28.5000,7.2250
Z" /> 
<path style="fill:#4A5F65; fill-opacity:0.9000; 
stroke:#4A5F65; stroke-width:0.0000; stroke-opacity:1; 
stroke-linecap:round; stroke-linejoin:round;fill-rule:evenodd;"
d="M 31.7000,7.2250
31.7000,9.0750
30.8000,9.0750
30.8000,7.2250
Z" /> 
<path style="fill:#4A5F65; fill-opacity:0.9000; 
stroke:#4A5F65; stroke-width:0.0000; stroke-opacity:1; 
stroke-linecap:round; stroke-linejoin:round;fill-rule:evenodd;"
d="M 30.5500,2.8750
27.3500,2.8750
27.3500,1.0250
30.5500,1.0250
Z" /> 
</g>
<g >
</g>
<g >
</g>
<g style="fill:#4A5F65; fill-opacity:0.9000; 
stroke:#4A5F65; stroke-width:0.0000; stroke-opacity:1; 
stroke-linecap:round; stroke-linejoin:round;">
<path style="fill:#4A5F65; fill-opacity:0.9000; 
stroke:#4A5F65; stroke-width:0.0000; stroke-opacity:1; 
stroke-linecap:round; stroke-linejoin:round;fill-rule:evenodd;"
d="M 61.5700,18.3750
61.6465,18.3902
61.7114,18.4336
61.7548,18.4985
61.7700,18.5750
61.7700,18.9750
61.7548,19.0515
61.7114,19.1164
61.6465,19.1598
61.5700,19.1750
61.0200,19.1750
60.9435,19.1598
60.8786,19.1164
60.8352,19.0515
60.8200,18.9750
60.8200,18.5750
60.8352,18.4985
60.8786,18.4336
60.9435,18.3902
61.0200,18.3750
Z" /> 
<path style="fill:#4A5F65; fill-opacity:0.9000; 
stroke:#4A5F65; stroke-width:0.0000; stroke-opacity:1; 
stroke-linecap:round; stroke-linejoin:round;fill-rule:evenodd;"
d="M 61.5700,20.0250
61.6465,20.0402
61.7114,20.0836
61.7548,20.1485
61.7700,20.2250
61.7700,20.6250
61.7548,20.7015
61.7114,20.7664
61.6465,20.8098
61.5700,20.8250
61.0200,20.8250
60.9435,20.8098
60.8786,20.7664
60.8352,20.7015
60.8200,20.6250
60.8200,20.2250
60.8352,20.1485
60.8786,20.0836
60.9435,20.0402
61.0200,20.0250
Z" /> 
</g>
<g >
</g>
<g style="fill:#4A5F65; fill-opacity:0.9000; 
stroke:#4A5F65; stroke-width:0.0000; stroke-opacity:1; 
stroke-linecap:round; stroke-linejoin:round;">
<path style="fill:#4A5F65; fill-opacity:0.9000; 
stroke:#4A5F65; stroke-width:0.0000; stroke-opacity:1; 
stroke-linecap:round; stroke-linejoin:round;fill-rule:evenodd;"
d="M 18.8550,12.1250
17.4050,12.1250
17.4050,11.8250
18.8550,11.8250
Z" /> 
<path style="fill:#4A5F65; fill-opacity:0.9000; 
stroke:#4A5F65; stroke-width:0.0000; stroke-opacity:1; 
stroke-linecap:round; stroke-linejoin:round;fill-rule:evenodd;"
d="M 18.8550,12.6250
17.4050,12.6250
17.4050,12.3250
18.8550,12.3250
Z" /> 
<path style="fill:#4A5F65; fill-opacity:0.9000; 
stroke:#4A5F65; stroke-width:0.0000; stroke-opacity:1; 
stroke-linecap:round; stroke-linejoin:round;fill-rule:evenodd;"
d="M 18.8550,13.1250
17.4050,13.1250
17.4050,12.8250
18.8550,12.8250
Z" /> 
<path style="fill:#4A5F65; fill-opacity:0.9000; 
stroke:#4A5F65; stroke-width:0.0000; stroke-opacity:1; 
stroke-linecap:round; stroke-linejoin:round;fill-rule:evenodd;"
d="M 18.8550,13.6250
17.4050,13.6250
17.4050,13.3250
18.8550,13.3250
Z" /> 
<path style="fill:#4A5F65; fill-opacity:0.9000; 
stroke:#4A5F65; stroke-width:0.0000; stroke-opacity:1; 
stroke-linecap:round; stroke-linejoin:round;fill-rule:evenodd;"
d="M 18.8550,14.1250
17.4050,14.1250
17.4050,13.8250
18.8550,13.8250
Z" /> 
<path style="fill:#4A5F65; fill-opacity:0.9000; 
stroke:#4A5F65; stroke-width:0.0000; stroke-opacity:1; 
stroke-linecap:round; stroke-linejoin:round;fill-rule:evenodd;"
d="M 18.8550,14.6250
17.4050,14.6250
17.4050,14.3250
18.8550,14.3250
Z" /> 
<path style="fill:#4A5F65; fill-opacity:0.9000; 
stroke:#4A5F65; stroke-width:0.0000; stroke-opacity:1; 
stroke-linecap:round; stroke-linejoin:round;fill-rule:evenodd;"
d="M 18.8550,15.1250
17.4050,15.1250
17.4050,14.8250
18.8550,14.8250
Z" /> 
<path style="fill:#4A5F65; fill-opacity:0.9000; 
stroke:#4A5F65; stroke-width:0.0000; stroke-opacity:1; 
stroke-linecap:round; stroke-linejoin:round;fill-rule:evenodd;"
d="M 18.8550,15.6250
17.4050,15.6250
17.4050,15.3250
18.8550,15.3250
Z" /> 
<path style="fill:#4A5F65; fill-opacity:0.9000; 
stroke:#4A5F65; stroke-width:0.0000; stroke-opacity:1; 
stroke-linecap:round; stroke-linejoin:round;fill-rule:evenodd;"
d="M 18.8550,16.1250
17.4050,16.1250
17.4050,15.8250
18.8550,15.8250
Z" /> 
<path style="fill:#4A5F65; fill-opacity:0.9000; 
stroke:#4A5F65; stroke-width:0.0000; stroke-opacity:1; 
stroke-linecap:round; stroke-linejoin:round;fill-rule:evenodd;"
d="M 18.8550,16.6250
17.4050,16.6250
17.4050,16.3250
18.8550,16.3250
Z" /> 
<path style="fill:#4A5F65; fill-opacity:0.9000; 
stroke:#4A5F65; stroke-width:0.0000; stroke-opacity:1; 
stroke-linecap:round; stroke-linejoin:round;fill-rule:evenodd;"
d="M 18.8550,17.1250
17.4050,17.1250
17.4050,16.8250
18.8550,16.8250
Z" /> 
<path style="fill:#4A5F65; fill-opacity:0.9000; 
stroke:#4A5F65; stroke-width:0.0000; stroke-opacity:1; 
stroke-linecap:round; stroke-linejoin:round;fill-rule:evenodd;"
d="M 18.8550,17.6250
17.4050,17.6250
17.4050,17.3250
18.8550,17.3250
Z" /> 
<path style="fill:#4A5F65; fill-opacity:0.9000; 
stroke:#4A5F65; stroke-width:0.0000; stroke-opacity:1; 
stroke-linecap:round; stroke-linejoin:round;fill-rule:evenodd;"
d="M 18.8550,18.1250
17.4050,18.1250
17.4050,17.8250
18.8550,17.8250
Z" /> 
<path style="fill:#4A5F65; fill-opacity:0.9000; 
stroke:#4A5F65; stroke-width:0.0000; stroke-opacity:1; 
stroke-linecap:round; stroke-linejoin:round;fill-rule:evenodd;"
d="M 18.8550,18.6250
17.4050,18.6250
17.4050,18.3250
18.8550,18.3250
Z" /> 
<path style="fill:#4A5F65; fill-opacity:0.9000; 
stroke:#4A5F65; stroke-width:0.0000; stroke-opacity:1; 
stroke-linecap:round; stroke-linejoin:round;fill-rule:evenodd;"
d="M 18.8550,19.1250
17.4050,19.1250
17.4050,18.8250
18.8550,18.8250
Z" /> 
<path style="fill:#4A5F65; fill-opacity:0.9000; 
stroke:#4A5F65; stroke-width:0.0000; stroke-opacity:1; 
stroke-linecap:round; stroke-linejoin:round;fill-rule:evenodd;"
d="M 18.8550,19.6250
17.4050,19.6250
17.4050,19.3250
18.8550,19.3250
Z" /> 
<path style="fill:#4A5F65; fill-opacity:0.9000; 
stroke:#4A5F65; stroke-width:0.0000; stroke-opacity:1; 
stroke-linecap:round; stroke-linejoin:round;fill-rule:evenodd;"
d="M 18.8550,20.1250
17.4050,20.1250
17.4050,19.8250
18.8550,19.8250
Z" /> 
<path style="fill:#4A5F65; fill-opacity:0.9000; 
stroke:#4A5F65; stroke-width:0.0000; stroke-opacity:1; 
stroke-linecap:round; stroke-linejoin:round;fill-rule:evenodd;"
d="M 18.8550,20.6250
17.4050,20.6250
17.4050,20.3250
18.8550,20.3250
Z" /> 
<path style="fill:#4A5F65; fill-opacity:0.9000; 
stroke:#4A5F65; stroke-width:0.0000; stroke-opacity:1; 
stroke-linecap:round; stroke-linejoin:round;fill-rule:evenodd;"
d="M 18.8550,21.1250
17.4050,21.1250
17.4050,20.8250
18.8550,20.8250
Z" /> 
<path style="fill:#4A5F65; fill-opacity:0.9000; 
stroke:#4A5F65; stroke-width:0.0000; stroke-opacity:1; 
stroke-linecap:round; stroke-linejoin:round;fill-rule:evenodd;"
d="M 24.7050,21.1250
23.2550,21.1250
23.2550,20.8250
24.7050,20.8250
Z" /> 
<path style="fill:#4A5F65; fill-opacity:0.9000; 
stroke:#4A5F65; stroke-width:0.0000; stroke-opacity:1; 
stroke-linecap:round; stroke-linejoin:round;fill-rule:evenodd;"
d="M 24.7050,20.6250
23.2550,20.6250
23.2550,20.3250
24.7050,20.3250
Z" /> 
<path style="fill:#4A5F65; fill-opacity:0.9000; 
stroke:#4A5F65; stroke-width:0.0000; stroke-opacity:1; 
stroke-linecap:round; stroke-linejoin:round;fill-rule:evenodd;"
d="M 24.7050,20.1250
23.2550,20.1250
23.2550,19.8250
24.7050,19.8250
Z" /> 
<path style="fill:#4A5F65; fill-opacity:0.9000; 
stroke:#4A5F65; stroke-width:0.0000; stroke-opacity:1; 
stroke-linecap:round; stroke-linejoin:round;fill-rule:evenodd;"
d="M 24.7050,19.6250
23.2550,19.6250
23.2550,19.3250
24.7050,19.3250
Z" /> 
<path style="fill:#4A5F65; fill-opacity:0.9000; 
stroke:#4A5F65; stroke-width:0.0000; stroke-opacity:1; 
stroke-linecap:round; stroke-linejoin:round;fill-rule:evenodd;"
d="M 24.7050,19.1250
23.2550,19.1250
23.2550,18.8250
24.7050,18.8250
Z" /> 
<path style="fill:#4A5F65; fill-opacity:0.9000; 
stroke:#4A5F65; stroke-width:0.0000; stroke-opacity:1; 
stroke-linecap:round; stroke-linejoin:round;fill-rule:evenodd;"
d="M 24.7050,18.6250
23.2550,18.6250
23.2550,18.3250
24.7050,18.3250
Z" /> 
<path style="fill:#4A5F65; fill-opacity:0.9000; 
stroke:#4A5F65; stroke-width:0.0000; stroke-opacity:1; 
stroke-linecap:round; stroke-linejoin:round;fill-rule:evenodd;"
d="M 24.7050,18.1250
23.2550,18.1250
23.2550,17.8250
24.7050,17.8250
Z" /> 
<path style="fill:#4A5F65; fill-opacity:0.9000; 
stroke:#4A5F65; stroke-width:0.0000; stroke-opacity:1; 
stroke-linecap:round; stroke-linejoin:round;fill-rule:evenodd;"
d="M 24.7050,17.6250
23.2550,17.6250
23.2550,17.3250
24.7050,17.3250
Z" /> 
<path style="fill:#4A5F65; fill-opacity:0.9000; 
stroke:#4A5F65; stroke-width:0.0000; stroke-opacity:1; 
stroke-linecap:round; stroke-linejoin:round;fill-rule:evenodd;"
d="M 24.7050,17.1250
23.2550,17.1250
23.2550,16.8250
24.7050,16.8250
Z" /> 
<path style="fill:#4A5F65; fill-opacity:0.9000; 
stroke:#4A5F65; stroke-width:0.0000; stroke-opacity:1; 
stroke-linecap:round; stroke-linejoin:round;fill-rule:evenodd;"
d="M 24.7050,16.6250
23.2550,16.6250
23.2550,16.3250
24.7050,16.3250
Z" /> 
<path style="fill:#4A5F65; fill-opacity:0.9000; 
stroke:#4A5F65; stroke-width:0.0000; stroke-opacity:1; 
stroke-linecap:round; stroke-linejoin:round;fill-rule:evenodd;"
d="M 24.7050,16.1250
23.2550,16.1250
23.2550,15.8250
24.7050,15.8250
Z" /> 
<path style="fill:#4A5F65; fill-opacity:0.9000; 
stroke:#4A5F65; stroke-width:0.0000; stroke-opacity:1; 
stroke-linecap:round; stroke-linejoin:round;fill-rule:evenodd;"
d="M 24.7050,15.6250
23.2550,15.6250
23.2550,15.3250
24.7050,15.3250
Z" /> 
<path style="fill:#4A5F65; fill-opacity:0.9000; 
stroke:#4A5F65; stroke-width:0.0000; stroke-opacity:1; 
stroke-linecap:round; stroke-linejoin:round;fill-rule:evenodd;"
d="M 24.7050,15.1250
23.2550,15.1250
23.2550,14.8250
24.7050,14.8250
Z" /> 
<path style="fill:#4A5F65; fill-opacity:0.9000; 
stroke:#4A5F65; stroke-width:0.0000; stroke-opacity:1; 
stroke-linecap:round; stroke-linejoin:round;fill-rule:evenodd;"
d="M 24.7050,14.6250
23.2550,14.6250
23.2550,14.3250
24.7050,14.3250
Z" /> 
<path style="fill:#4A5F65; fill-opacity:0.9000; 
stroke:#4A5F65; stroke-width:0.0000; stroke-opacity:1; 
stroke-linecap:round; stroke-linejoin:round;fill-rule:evenodd;"
d="M 24.7050,14.1250
23.2550,14.1250
23.2550,13.8250
24.7050,13.8250
Z" /> 
<path style="fill:#4A5F65; fill-opacity:0.9000; 
stroke:#4A5F65; stroke-width:0.0000; stroke-opacity:1; 
stroke-linecap:round; stroke-linejoin:round;fill-rule:evenodd;"
d="M 24.7050,13.6250
23.2550,13.6250
23.2550,13.3250
24.7050,13.3250
Z" /> 
<path style="fill:#4A5F65; fill-opacity:0.9000; 
stroke:#4A5F65; stroke-width:0.0000; stroke-opacity:1; 
stroke-linecap:round; stroke-linejoin:round;fill-rule:evenodd;"
d="M 24.7050,13.1250
23.2550,13.1250
23.2550,12.8250
24.7050,12.8250
Z" /> 
<path style="fill:#4A5F65; fill-opacity:0.9000; 
stroke:#4A5F65; stroke-width:0.0000; stroke-opacity:1; 
stroke-linecap:round; stroke-linejoin:round;fill-rule:evenodd;"
d="M 24.7050,12.6250
23.2550,12.6250
23.2550,12.3250
24.7050,12.3250
Z" /> 
<path style="fill:#4A5F65; fill-opacity:0.9000; 
stroke:#4A5F65; stroke-width:0.0000; stroke-opacity:1; 
stroke-linecap:round; stroke-linejoin:round;fill-rule:evenodd;"
d="M 24.7050,12.1250
23.2550,12.1250
23.2550,11.8250
24.7050,11.8250
Z" /> 
<path style="fill:#4A5F65; fill-opacity:0.9000; 
stroke:#4A5F65; stroke-width:0.0000; stroke-opacity:1; 
stroke-linecap:round; stroke-linejoin:round;fill-rule:evenodd;"
d="M 19.6850,18.8500
19.6850,14.1000
22.4250,14.1000
22.4250,18.8500
Z" /> 
</g>
<g >
</g>
<g style="fill:#4A5F65; fill-opacity:0.9000; 
stroke:#4A5F65; stroke-width:0.0000; stroke-opacity:1; 
stroke-linecap:round; stroke-linejoin:round;">
<path style="fill:#4A5F65; fill-opacity:0.9000; 
stroke:#4A5F65; stroke-width:0.0000; stroke-opacity:1; 
stroke-linecap:round; stroke-linejoin:round;fill-rule:evenodd;"
d="M 57.7750,4.7200
57.8515,4.7352
57.9164,4.7786
57.9598,4.8435
57.9750,4.9200
57.9750,5.3200
57.9598,5.3965
57.9164,5.4614
57.8515,5.5048
57.7750,5.5200
57.2250,5.5200
57.1485,5.5048
57.0836,5.4614
57.0402,5.3965
57.0250,5.3200
57.0250,4.9200
57.0402,4.8435
57.0836,4.7786
57.1485,4.7352
57.2250,4.7200
Z" /> 
<path style="fill:#4A5F65; fill-opacity:0.9000; 
stroke:#4A5F65; stroke-width:0.0000; stroke-opacity:1; 
stroke-linecap:round; stroke-linejoin:round;fill-rule:evenodd;"
d="M 57.7750,6.3700
57.8515,6.3852
57.9164,6.4286
57.9598,6.4935
57.9750,6.5700
57.9750,6.9700
57.9598,7.0465
57.9164,7.1114
57.8515,7.1548
57.7750,7.1700
57.2250,7.1700
57.1485,7.1548
57.0836,7.1114
57.0402,7.0465
57.0250,6.9700
57.0250,6.5700
57.0402,6.4935
57.0836,6.4286
57.1485,6.3852
57.2250,6.3700
Z" /> 
</g>
<g >
</g>
<g style="fill:#4A5F65; fill-opacity:0.9000; 
stroke:#4A5F65; stroke-width:0.0000; stroke-opacity:1; 
stroke-linecap:round; stroke-linejoin:round;">
<path style="fill:#4A5F65; fill-opacity:0.9000; 
stroke:#4A5F65; stroke-width:0.0000; stroke-opacity:1; 
stroke-linecap:round; stroke-linejoin:round;fill-rule:evenodd;"
d="M 39.8250,7.1862
39.8421,7.1001
39.8909,7.0271
39.9639,6.9783
40.0500,6.9612
40.5000,6.9612
40.5861,6.9783
40.6591,7.0271
40.7079,7.1001
40.7250,7.1862
40.7250,7.6862
40.7079,7.7723
40.6591,7.8453
40.5861,7.8940
40.5000,7.9112
40.0500,7.9112
39.9639,7.8940
39.8909,7.8453
39.8421,7.7723
39.8250,7.6862
Z" /> 
<path style="fill:#4A5F65; fill-opacity:0.9000; 
stroke:#4A5F65; stroke-width:0.0000; stroke-opacity:1; 
stroke-linecap:round; stroke-linejoin:round;fill-rule:evenodd;"
d="M 41.3750,7.1862
41.3921,7.1001
41.4409,7.0271
41.5139,6.9783
41.6000,6.9612
42.0500,6.9612
42.1361,6.9783
42.2091,7.0271
42.2579,7.1001
42.2750,7.1862
42.2750,7.6862
42.2579,7.7723
42.2091,7.8453
42.1361,7.8940
42.0500,7.9112
41.6000,7.9112
41.5139,7.8940
41.4409,7.8453
41.3921,7.7723
41.3750,7.6862
Z" /> 
</g>
<g >
</g>
<g >
</g>
<g style="fill:#4A5F65; fill-opacity:0.9000; 
stroke:#4A5F65; stroke-width:0.0000; stroke-opacity:1; 
stroke-linecap:round; stroke-linejoin:round;">
<path style="fill:#4A5F65; fill-opacity:0.9000; 
stroke:#4A5F65; stroke-width:0.0000; stroke-opacity:1; 
stroke-linecap:round; stroke-linejoin:round;fill-rule:evenodd;"
d="M 61.4750,27.1250
61.4598,27.2015
61.4164,27.2664
61.3515,27.3098
61.2750,27.3250
60.8750,27.3250
60.7985,27.3098
60.7336,27.2664
60.6902,27.2015
60.6750,27.1250
60.6750,26.5750
60.6902,26.4985
60.7336,26.4336
60.7985,26.3902
60.8750,26.3750
61.2750,26.3750
61.3515,26.3902
61.4164,26.4336
61.4598,26.4985
61.4750,26.5750
Z" /> 
<path style="fill:#4A5F65; fill-opacity:0.9000; 
stroke:#4A5F65; stroke-width:0.0000; stroke-opacity:1; 
stroke-linecap:round; stroke-linejoin:round;fill-rule:evenodd;"
d="M 59.8250,27.1250
59.8098,27.2015
59.7664,27.2664
59.7015,27.3098
59.6250,27.3250
59.2250,27.3250
59.1485,27.3098
59.0836,27.2664
59.0402,27.2015
59.0250,27.1250
59.0250,26.5750
59.0402,26.4985
59.0836,26.4336
59.1485,26.3902
59.2250,26.3750
59.6250,26.3750
59.7015,26.3902
59.7664,26.4336
59.8098,26.4985
59.8250,26.5750
Z" /> 
</g>
<g >
</g>
<g style="fill:#4A5F65; fill-opacity:0.9000; 
stroke:#4A5F65; stroke-width:0.0000; stroke-opacity:1; 
stroke-linecap:round; stroke-linejoin:round;">
<path style="fill:#4A5F65; fill-opacity:0.9000; 
stroke:#4A5F65; stroke-width:0.0000; stroke-opacity:1; 
stroke-linecap:round; stroke-linejoin:round;fill-rule:evenodd;"
d="M 54.5750,27.0500
54.5921,26.9639
54.6409,26.8909
54.7139,26.8421
54.8000,26.8250
55.2500,26.8250
55.3361,26.8421
55.4091,26.8909
55.4579,26.9639
55.4750,27.0500
55.4750,27.5500
55.4579,27.6361
55.4091,27.7091
55.3361,27.7579
55.2500,27.7750
54.8000,27.7750
54.7139,27.7579
54.6409,27.7091
54.5921,27.6361
54.5750,27.5500
Z" /> 
<path style="fill:#4A5F65; fill-opacity:0.9000; 
stroke:#4A5F65; stroke-width:0.0000; stroke-opacity:1; 
stroke-linecap:round; stroke-linejoin:round;fill-rule:evenodd;"
d="M 56.1250,27.0500
56.1421,26.9639
56.1909,26.8909
56.2639,26.8421
56.3500,26.8250
56.8000,26.8250
56.8861,26.8421
56.9591,26.8909
57.0079,26.9639
57.0250,27.0500
57.0250,27.5500
57.0079,27.6361
56.9591,27.7091
56.8861,27.7579
56.8000,27.7750
56.3500,27.7750
56.2639,27.7579
56.1909,27.7091
56.1421,27.6361
56.1250,27.5500
Z" /> 
</g>
<g >
</g>
<g >
</g>
<g style="fill:#4A5F65; fill-opacity:0.9000; 
stroke:#4A5F65; stroke-width:0.0000; stroke-opacity:1; 
stroke-linecap:round; stroke-linejoin:round;">
<path style="fill:#4A5F65; fill-opacity:0.9000; 
stroke:#4A5F65; stroke-width:0.0000; stroke-opacity:1; 
stroke-linecap:round; stroke-linejoin:round;fill-rule:evenodd;"
d="M 45.0380,13.0625
45.0667,13.0682
45.0910,13.0845
45.1073,13.1088
45.1130,13.1375
45.1130,14.4625
45.1073,14.4912
45.0910,14.5155
45.0667,14.5318
45.0380,14.5375
44.8880,14.5375
44.8593,14.5318
44.8350,14.5155
44.8187,14.4912
44.8130,14.4625
44.8130,13.1375
44.8187,13.1088
44.8350,13.0845
44.8593,13.0682
44.8880,13.0625
Z" /> 
<path style="fill:#4A5F65; fill-opacity:0.9000; 
stroke:#4A5F65; stroke-width:0.0000; stroke-opacity:1; 
stroke-linecap:round; stroke-linejoin:round;fill-rule:evenodd;"
d="M 44.5380,13.0625
44.5667,13.0682
44.5910,13.0845
44.6073,13.1088
44.6130,13.1375
44.6130,14.4625
44.6073,14.4912
44.5910,14.5155
44.5667,14.5318
44.5380,14.5375
44.3880,14.5375
44.3593,14.5318
44.3350,14.5155
44.3187,14.4912
44.3130,14.4625
44.3130,13.1375
44.3187,13.1088
44.3350,13.0845
44.3593,13.0682
44.3880,13.0625
Z" /> 
<path style="fill:#4A5F65; fill-opacity:0.9000; 
stroke:#4A5F65; stroke-width:0.0000; stroke-opacity:1; 
stroke-linecap:round; stroke-linejoin:round;fill-rule:evenodd;"
d="M 44.0380,13.0625
44.0667,13.0682
44.0910,13.0845
44.1073,13.1088
44.1130,13.1375
44.1130,14.4625
44.1073,14.4912
44.0910,14.5155
44.0667,14.5318
44.0380,14.5375
43.8880,14.5375
43.8593,14.5318
43.8350,14.5155
43.8187,14.4912
43.8130,14.4625
43.8130,13.1375
43.8187,13.1088
43.8350,13.0845
43.8593,13.0682
43.8880,13.0625
Z" /> 
<path style="fill:#4A5F65; fill-opacity:0.9000; 
stroke:#4A5F65; stroke-width:0.0000; stroke-opacity:1; 
stroke-linecap:round; stroke-linejoin:round;fill-rule:evenodd;"
d="M 43.5380,13.0625
43.5667,13.0682
43.5910,13.0845
43.6073,13.1088
43.6130,13.1375
43.6130,14.4625
43.6073,14.4912
43.5910,14.5155
43.5667,14.5318
43.5380,14.5375
43.3880,14.5375
43.3593,14.5318
43.3350,14.5155
43.3187,14.4912
43.3130,14.4625
43.3130,13.1375
43.3187,13.1088
43.3350,13.0845
43.3593,13.0682
43.3880,13.0625
Z" /> 
<path style="fill:#4A5F65; fill-opacity:0.9000; 
stroke:#4A5F65; stroke-width:0.0000; stroke-opacity:1; 
stroke-linecap:round; stroke-linejoin:round;fill-rule:evenodd;"
d="M 43.0380,13.0625
43.0667,13.0682
43.0910,13.0845
43.1073,13.1088
43.1130,13.1375
43.1130,14.4625
43.1073,14.4912
43.0910,14.5155
43.0667,14.5318
43.0380,14.5375
42.8880,14.5375
42.8593,14.5318
42.8350,14.5155
42.8187,14.4912
42.8130,14.4625
42.8130,13.1375
42.8187,13.1088
42.8350,13.0845
42.8593,13.0682
42.8880,13.0625
Z" /> 
<path style="fill:#4A5F65; fill-opacity:0.9000; 
stroke:#4A5F65; stroke-width:0.0000; stroke-opacity:1; 
stroke-linecap:round; stroke-linejoin:round;fill-rule:evenodd;"
d="M 42.5380,13.0625
42.5667,13.0682
42.5910,13.0845
42.6073,13.1088
42.6130,13.1375
42.6130,14.4625
42.6073,14.4912
42.5910,14.5155
42.5667,14.5318
42.5380,14.5375
42.3880,14.5375
42.3593,14.5318
42.3350,14.5155
42.3187,14.4912
42.3130,14.4625
42.3130,13.1375
42.3187,13.1088
42.3350,13.0845
42.3593,13.0682
42.3880,13.0625
Z" /> 
<path style="fill:#4A5F65; fill-opacity:0.9000; 
stroke:#4A5F65; stroke-width:0.0000; stroke-opacity:1; 
stroke-linecap:round; stroke-linejoin:round;fill-rule:evenodd;"
d="M 42.0380,13.0625
42.0667,13.0682
42.0910,13.0845
42.1073,13.1088
42.1130,13.1375
42.1130,14.4625
42.1073,14.4912
42.0910,14.5155
42.0667,14.5318
42.0380,14.5375
41.8880,14.5375
41.8593,14.5318
41.8350,14.5155
41.8187,14.4912
41.8130,14.4625
41.8130,13.1375
41.8187,13.1088
41.8350,13.0845
41.8593,13.0682
41.8880,13.0625
Z" /> 
<path style="fill:#4A5F65; fill-opacity:0.9000; 
stroke:#4A5F65; stroke-width:0.0000; stroke-opacity:1; 
stroke-linecap:round; stroke-linejoin:round;fill-rule:evenodd;"
d="M 41.5380,13.0625
41.5667,13.0682
41.5910,13.0845
41.6073,13.1088
41.6130,13.1375
41.6130,14.4625
41.6073,14.4912
41.5910,14.5155
41.5667,14.5318
41.5380,14.5375
41.3880,14.5375
41.3593,14.5318
41.3350,14.5155
41.3187,14.4912
41.3130,14.4625
41.3130,13.1375
41.3187,13.1088
41.3350,13.0845
41.3593,13.0682
41.3880,13.0625
Z" /> 
<path style="fill:#4A5F65; fill-opacity:0.9000; 
stroke:#4A5F65; stroke-width:0.0000; stroke-opacity:1; 
stroke-linecap:round; stroke-linejoin:round;fill-rule:evenodd;"
d="M 41.0380,13.0625
41.0667,13.0682
41.0910,13.0845
41.1073,13.1088
41.1130,13.1375
41.1130,14.4625
41.1073,14.4912
41.0910,14.5155
41.0667,14.5318
41.0380,14.5375
40.8880,14.5375
40.8593,14.5318
40.8350,14.5155
40.8187,14.4912
40.8130,14.4625
40.8130,13.1375
40.8187,13.1088
40.8350,13.0845
40.8593,13.0682
40.8880,13.0625
Z" /> 
<path style="fill:#4A5F65; fill-opacity:0.9000; 
stroke:#4A5F65; stroke-width:0.0000; stroke-opacity:1; 
stroke-linecap:round; stroke-linejoin:round;fill-rule:evenodd;"
d="M 40.5380,13.0625
40.5667,13.0682
40.5910,13.0845
40.6073,13.1088
40.6130,13.1375
40.6130,14.4625
40.6073,14.4912
40.5910,14.5155
40.5667,14.5318
40.5380,14.5375
40.3880,14.5375
40.3593,14.5318
40.3350,14.5155
40.3187,14.4912
40.3130,14.4625
40.3130,13.1375
40.3187,13.1088
40.3350,13.0845
40.3593,13.0682
40.3880,13.0625
Z" /> 
<path style="fill:#4A5F65; fill-opacity:0.9000; 
stroke:#4A5F65; stroke-width:0.0000; stroke-opacity:1; 
stroke-linecap:round; stroke-linejoin:round;fill-rule:evenodd;"
d="M 40.0380,13.0625
40.0667,13.0682
40.0910,13.0845
40.1073,13.1088
40.1130,13.1375
40.1130,14.4625
40.1073,14.4912
40.0910,14.5155
40.0667,14.5318
40.0380,14.5375
39.8880,14.5375
39.8593,14.5318
39.8350,14.5155
39.8187,14.4912
39.8130,14.4625
39.8130,13.1375
39.8187,13.1088
39.8350,13.0845
39.8593,13.0682
39.8880,13.0625
Z" /> 
<path style="fill:#4A5F65; fill-opacity:0.9000; 
stroke:#4A5F65; stroke-width:0.0000; stroke-opacity:1; 
stroke-linecap:round; stroke-linejoin:round;fill-rule:evenodd;"
d="M 39.5380,13.0625
39.5667,13.0682
39.5910,13.0845
39.6073,13.1088
39.6130,13.1375
39.6130,14.4625
39.6073,14.4912
39.5910,14.5155
39.5667,14.5318
39.5380,14.5375
39.3880,14.5375
39.3593,14.5318
39.3350,14.5155
39.3187,14.4912
39.3130,14.4625
39.3130,13.1375
39.3187,13.1088
39.3350,13.0845
39.3593,13.0682
39.3880,13.0625
Z" /> 
<path style="fill:#4A5F65; fill-opacity:0.9000; 
stroke:#4A5F65; stroke-width:0.0000; stroke-opacity:1; 
stroke-linecap:round; stroke-linejoin:round;fill-rule:evenodd;"
d="M 38.7130,15.0625
38.7417,15.0682
38.7660,15.0845
38.7823,15.1088
38.7880,15.1375
38.7880,15.2875
38.7823,15.3162
38.7660,15.3405
38.7417,15.3568
38.7130,15.3625
37.3880,15.3625
37.3593,15.3568
37.3350,15.3405
37.3187,15.3162
37.3130,15.2875
37.3130,15.1375
37.3187,15.1088
37.3350,15.0845
37.3593,15.0682
37.3880,15.0625
Z" /> 
<path style="fill:#4A5F65; fill-opacity:0.9000; 
stroke:#4A5F65; stroke-width:0.0000; stroke-opacity:1; 
stroke-linecap:round; stroke-linejoin:round;fill-rule:evenodd;"
d="M 38.7130,15.5625
38.7417,15.5682
38.7660,15.5845
38.7823,15.6088
38.7880,15.6375
38.7880,15.7875
38.7823,15.8162
38.7660,15.8405
38.7417,15.8568
38.7130,15.8625
37.3880,15.8625
37.3593,15.8568
37.3350,15.8405
37.3187,15.8162
37.3130,15.7875
37.3130,15.6375
37.3187,15.6088
37.3350,15.5845
37.3593,15.5682
37.3880,15.5625
Z" /> 
<path style="fill:#4A5F65; fill-opacity:0.9000; 
stroke:#4A5F65; stroke-width:0.0000; stroke-opacity:1; 
stroke-linecap:round; stroke-linejoin:round;fill-rule:evenodd;"
d="M 38.7130,16.0625
38.7417,16.0682
38.7660,16.0845
38.7823,16.1088
38.7880,16.1375
38.7880,16.2875
38.7823,16.3162
38.7660,16.3405
38.7417,16.3568
38.7130,16.3625
37.3880,16.3625
37.3593,16.3568
37.3350,16.3405
37.3187,16.3162
37.3130,16.2875
37.3130,16.1375
37.3187,16.1088
37.3350,16.0845
37.3593,16.0682
37.3880,16.0625
Z" /> 
<path style="fill:#4A5F65; fill-opacity:0.9000; 
stroke:#4A5F65; stroke-width:0.0000; stroke-opacity:1; 
stroke-linecap:round; stroke-linejoin:round;fill-rule:evenodd;"
d="M 38.7130,16.5625
38.7417,16.5682
38.7660,16.5845
38.7823,16.6088
38.7880,16.6375
38.7880,16.7875
38.7823,16.8162
38.7660,16.8405
38.7417,16.8568
38.7130,16.8625
37.3880,16.8625
37.3593,16.8568
37.3350,16.8405
37.3187,16.8162
37.3130,16.7875
37.3130,16.6375
37.3187,16.6088
37.3350,16.5845
37.3593,16.5682
37.3880,16.5625
Z" /> 
<path style="fill:#4A5F65; fill-opacity:0.9000; 
stroke:#4A5F65; stroke-width:0.0000; stroke-opacity:1; 
stroke-linecap:round; stroke-linejoin:round;fill-rule:evenodd;"
d="M 38.7130,17.0625
38.7417,17.0682
38.7660,17.0845
38.7823,17.1088
38.7880,17.1375
38.7880,17.2875
38.7823,17.3162
38.7660,17.3405
38.7417,17.3568
38.7130,17.3625
37.3880,17.3625
37.3593,17.3568
37.3350,17.3405
37.3187,17.3162
37.3130,17.2875
37.3130,17.1375
37.3187,17.1088
37.3350,17.0845
37.3593,17.0682
37.3880,17.0625
Z" /> 
<path style="fill:#4A5F65; fill-opacity:0.9000; 
stroke:#4A5F65; stroke-width:0.0000; stroke-opacity:1; 
stroke-linecap:round; stroke-linejoin:round;fill-rule:evenodd;"
d="M 38.7130,17.5625
38.7417,17.5682
38.7660,17.5845
38.7823,17.6088
38.7880,17.6375
38.7880,17.7875
38.7823,17.8162
38.7660,17.8405
38.7417,17.8568
38.7130,17.8625
37.3880,17.8625
37.3593,17.8568
37.3350,17.8405
37.3187,17.8162
37.3130,17.7875
37.3130,17.6375
37.3187,17.6088
37.3350,17.5845
37.3593,17.5682
37.3880,17.5625
Z" /> 
<path style="fill:#4A5F65; fill-opacity:0.9000; 
stroke:#4A5F65; stroke-width:0.0000; stroke-opacity:1; 
stroke-linecap:round; stroke-linejoin:round;fill-rule:evenodd;"
d="M 38.7130,18.0625
38.7417,18.0682
38.7660,18.0845
38.7823,18.1088
38.7880,18.1375
38.7880,18.2875
38.7823,18.3162
38.7660,18.3405
38.7417,18.3568
38.7130,18.3625
37.3880,18.3625
37.3593,18.3568
37.3350,18.3405
37.3187,18.3162
37.3130,18.2875
37.3130,18.1375
37.3187,18.1088
37.3350,18.0845
37.3593,18.0682
37.3880,18.0625
Z" /> 
<path style="fill:#4A5F65; fill-opacity:0.9000; 
stroke:#4A5F65; stroke-width:0.0000; stroke-opacity:1; 
stroke-linecap:round; stroke-linejoin:round;fill-rule:evenodd;"
d="M 38.7130,18.5625
38.7417,18.5682
38.7660,18.5845
38.7823,18.6088
38.7880,18.6375
38.7880,18.7875
38.7823,18.8162
38.7660,18.8405
38.7417,18.8568
38.7130,18.8625
37.3880,18.8625
37.3593,18.8568
37.3350,18.8405
37.3187,18.8162
37.3130,18.7875
37.3130,18.6375
37.3187,18.6088
37.3350,18.5845
37.3593,18.5682
37.3880,18.5625
Z" /> 
<path style="fill:#4A5F65; fill-opacity:0.9000; 
stroke:#4A5F65; stroke-width:0.0000; stroke-opacity:1; 
stroke-linecap:round; stroke-linejoin:round;fill-rule:evenodd;"
d="M 38.7130,19.0625
38.7417,19.0682
38.7660,19.0845
38.7823,19.1088
38.7880,19.1375
38.7880,19.2875
38.7823,19.3162
38.7660,19.3405
38.7417,19.3568
38.7130,19.3625
37.3880,19.3625
37.3593,19.3568
37.3350,19.3405
37.3187,19.3162
37.3130,19.2875
37.3130,19.1375
37.3187,19.1088
37.3350,19.0845
37.3593,19.0682
37.3880,19.0625
Z" /> 
<path style="fill:#4A5F65; fill-opacity:0.9000; 
stroke:#4A5F65; stroke-width:0.0000; stroke-opacity:1; 
stroke-linecap:round; stroke-linejoin:round;fill-rule:evenodd;"
d="M 38.7130,19.5625
38.7417,19.5682
38.7660,19.5845
38.7823,19.6088
38.7880,19.6375
38.7880,19.7875
38.7823,19.8162
38.7660,19.8405
38.7417,19.8568
38.7130,19.8625
37.3880,19.8625
37.3593,19.8568
37.3350,19.8405
37.3187,19.8162
37.3130,19.7875
37.3130,19.6375
37.3187,19.6088
37.3350,19.5845
37.3593,19.5682
37.3880,19.5625
Z" /> 
<path style="fill:#4A5F65; fill-opacity:0.9000; 
stroke:#4A5F65; stroke-width:0.0000; stroke-opacity:1; 
stroke-linecap:round; stroke-linejoin:round;fill-rule:evenodd;"
d="M 38.7130,20.0625
38.7417,20.0682
38.7660,20.0845
38.7823,20.1088
38.7880,20.1375
38.7880,20.2875
38.7823,20.3162
38.7660,20.3405
38.7417,20.3568
38.7130,20.3625
37.3880,20.3625
37.3593,20.3568
37.3350,20.3405
37.3187,20.3162
37.3130,20.2875
37.3130,20.1375
37.3187,20.1088
37.3350,20.0845
37.3593,20.0682
37.3880,20.0625
Z" /> 
<path style="fill:#4A5F65; fill-opacity:0.9000; 
stroke:#4A5F65; stroke-width:0.0000; stroke-opacity:1; 
stroke-linecap:round; stroke-linejoin:round;fill-rule:evenodd;"
d="M 38.7130,20.5625
38.7417,20.5682
38.7660,20.5845
38.7823,20.6088
38.7880,20.6375
38.7880,20.7875
38.7823,20.8162
38.7660,20.8405
38.7417,20.8568
38.7130,20.8625
37.3880,20.8625
37.3593,20.8568
37.3350,20.8405
37.3187,20.8162
37.3130,20.7875
37.3130,20.6375
37.3187,20.6088
37.3350,20.5845
37.3593,20.5682
37.3880,20.5625
Z" /> 
<path style="fill:#4A5F65; fill-opacity:0.9000; 
stroke:#4A5F65; stroke-width:0.0000; stroke-opacity:1; 
stroke-linecap:round; stroke-linejoin:round;fill-rule:evenodd;"
d="M 39.5380,21.3875
39.5667,21.3932
39.5910,21.4095
39.6073,21.4338
39.6130,21.4625
39.6130,22.7875
39.6073,22.8162
39.5910,22.8405
39.5667,22.8568
39.5380,22.8625
39.3880,22.8625
39.3593,22.8568
39.3350,22.8405
39.3187,22.8162
39.3130,22.7875
39.3130,21.4625
39.3187,21.4338
39.3350,21.4095
39.3593,21.3932
39.3880,21.3875
Z" /> 
<path style="fill:#4A5F65; fill-opacity:0.9000; 
stroke:#4A5F65; stroke-width:0.0000; stroke-opacity:1; 
stroke-linecap:round; stroke-linejoin:round;fill-rule:evenodd;"
d="M 40.0380,21.3875
40.0667,21.3932
40.0910,21.4095
40.1073,21.4338
40.1130,21.4625
40.1130,22.7875
40.1073,22.8162
40.0910,22.8405
40.0667,22.8568
40.0380,22.8625
39.8880,22.8625
39.8593,22.8568
39.8350,22.8405
39.8187,22.8162
39.8130,22.7875
39.8130,21.4625
39.8187,21.4338
39.8350,21.4095
39.8593,21.3932
39.8880,21.3875
Z" /> 
<path style="fill:#4A5F65; fill-opacity:0.9000; 
stroke:#4A5F65; stroke-width:0.0000; stroke-opacity:1; 
stroke-linecap:round; stroke-linejoin:round;fill-rule:evenodd;"
d="M 40.5380,21.3875
40.5667,21.3932
40.5910,21.4095
40.6073,21.4338
40.6130,21.4625
40.6130,22.7875
40.6073,22.8162
40.5910,22.8405
40.5667,22.8568
40.5380,22.8625
40.3880,22.8625
40.3593,22.8568
40.3350,22.8405
40.3187,22.8162
40.3130,22.7875
40.3130,21.4625
40.3187,21.4338
40.3350,21.4095
40.3593,21.3932
40.3880,21.3875
Z" /> 
<path style="fill:#4A5F65; fill-opacity:0.9000; 
stroke:#4A5F65; stroke-width:0.0000; stroke-opacity:1; 
stroke-linecap:round; stroke-linejoin:round;fill-rule:evenodd;"
d="M 41.0380,21.3875
41.0667,21.3932
41.0910,21.4095
41.1073,21.4338
41.1130,21.4625
41.1130,22.7875
41.1073,22.8162
41.0910,22.8405
41.0667,22.8568
41.0380,22.8625
40.8880,22.8625
40.8593,22.8568
40.8350,22.8405
40.8187,22.8162
40.8130,22.7875
40.8130,21.4625
40.8187,21.4338
40.8350,21.4095
40.8593,21.3932
40.8880,21.3875
Z" /> 
<path style="fill:#4A5F65; fill-opacity:0.9000; 
stroke:#4A5F65; stroke-width:0.0000; stroke-opacity:1; 
stroke-linecap:round; stroke-linejoin:round;fill-rule:evenodd;"
d="M 41.5380,21.3875
41.5667,21.3932
41.5910,21.4095
41.6073,21.4338
41.6130,21.4625
41.6130,22.7875
41.6073,22.8162
41.5910,22.8405
41.5667,22.8568
41.5380,22.8625
41.3880,22.8625
41.3593,22.8568
41.3350,22.8405
41.3187,22.8162
41.3130,22.7875
41.3130,21.4625
41.3187,21.4338
41.3350,21.4095
41.3593,21.3932
41.3880,21.3875
Z" /> 
<path style="fill:#4A5F65; fill-opacity:0.9000; 
stroke:#4A5F65; stroke-width:0.0000; stroke-opacity:1; 
stroke-linecap:round; stroke-linejoin:round;fill-rule:evenodd;"
d="M 42.0380,21.3875
42.0667,21.3932
42.0910,21.4095
42.1073,21.4338
42.1130,21.4625
42.1130,22.7875
42.1073,22.8162
42.0910,22.8405
42.0667,22.8568
42.0380,22.8625
41.8880,22.8625
41.8593,22.8568
41.8350,22.8405
41.8187,22.8162
41.8130,22.7875
41.8130,21.4625
41.8187,21.4338
41.8350,21.4095
41.8593,21.3932
41.8880,21.3875
Z" /> 
<path style="fill:#4A5F65; fill-opacity:0.9000; 
stroke:#4A5F65; stroke-width:0.0000; stroke-opacity:1; 
stroke-linecap:round; stroke-linejoin:round;fill-rule:evenodd;"
d="M 42.5380,21.3875
42.5667,21.3932
42.5910,21.4095
42.6073,21.4338
42.6130,21.4625
42.6130,22.7875
42.6073,22.8162
42.5910,22.8405
42.5667,22.8568
42.5380,22.8625
42.3880,22.8625
42.3593,22.8568
42.3350,22.8405
42.3187,22.8162
42.3130,22.7875
42.3130,21.4625
42.3187,21.4338
42.3350,21.4095
42.3593,21.3932
42.3880,21.3875
Z" /> 
<path style="fill:#4A5F65; fill-opacity:0.9000; 
stroke:#4A5F65; stroke-width:0.0000; stroke-opacity:1; 
stroke-linecap:round; stroke-linejoin:round;fill-rule:evenodd;"
d="M 43.0380,21.3875
43.0667,21.3932
43.0910,21.4095
43.1073,21.4338
43.1130,21.4625
43.1130,22.7875
43.1073,22.8162
43.0910,22.8405
43.0667,22.8568
43.0380,22.8625
42.8880,22.8625
42.8593,22.8568
42.8350,22.8405
42.8187,22.8162
42.8130,22.7875
42.8130,21.4625
42.8187,21.4338
42.8350,21.4095
42.8593,21.3932
42.8880,21.3875
Z" /> 
<path style="fill:#4A5F65; fill-opacity:0.9000; 
stroke:#4A5F65; stroke-width:0.0000; stroke-opacity:1; 
stroke-linecap:round; stroke-linejoin:round;fill-rule:evenodd;"
d="M 43.5380,21.3875
43.5667,21.3932
43.5910,21.4095
43.6073,21.4338
43.6130,21.4625
43.6130,22.7875
43.6073,22.8162
43.5910,22.8405
43.5667,22.8568
43.5380,22.8625
43.3880,22.8625
43.3593,22.8568
43.3350,22.8405
43.3187,22.8162
43.3130,22.7875
43.3130,21.4625
43.3187,21.4338
43.3350,21.4095
43.3593,21.3932
43.3880,21.3875
Z" /> 
<path style="fill:#4A5F65; fill-opacity:0.9000; 
stroke:#4A5F65; stroke-width:0.0000; stroke-opacity:1; 
stroke-linecap:round; stroke-linejoin:round;fill-rule:evenodd;"
d="M 44.0380,21.3875
44.0667,21.3932
44.0910,21.4095
44.1073,21.4338
44.1130,21.4625
44.1130,22.7875
44.1073,22.8162
44.0910,22.8405
44.0667,22.8568
44.0380,22.8625
43.8880,22.8625
43.8593,22.8568
43.8350,22.8405
43.8187,22.8162
43.8130,22.7875
43.8130,21.4625
43.8187,21.4338
43.8350,21.4095
43.8593,21.3932
43.8880,21.3875
Z" /> 
<path style="fill:#4A5F65; fill-opacity:0.9000; 
stroke:#4A5F65; stroke-width:0.0000; stroke-opacity:1; 
stroke-linecap:round; stroke-linejoin:round;fill-rule:evenodd;"
d="M 44.5380,21.3875
44.5667,21.3932
44.5910,21.4095
44.6073,21.4338
44.6130,21.4625
44.6130,22.7875
44.6073,22.8162
44.5910,22.8405
44.5667,22.8568
44.5380,22.8625
44.3880,22.8625
44.3593,22.8568
44.3350,22.8405
44.3187,22.8162
44.3130,22.7875
44.3130,21.4625
44.3187,21.4338
44.3350,21.4095
44.3593,21.3932
44.3880,21.3875
Z" /> 
<path style="fill:#4A5F65; fill-opacity:0.9000; 
stroke:#4A5F65; stroke-width:0.0000; stroke-opacity:1; 
stroke-linecap:round; stroke-linejoin:round;fill-rule:evenodd;"
d="M 45.0380,21.3875
45.0667,21.3932
45.0910,21.4095
45.1073,21.4338
45.1130,21.4625
45.1130,22.7875
45.1073,22.8162
45.0910,22.8405
45.0667,22.8568
45.0380,22.8625
44.8880,22.8625
44.8593,22.8568
44.8350,22.8405
44.8187,22.8162
44.8130,22.7875
44.8130,21.4625
44.8187,21.4338
44.8350,21.4095
44.8593,21.3932
44.8880,21.3875
Z" /> 
<path style="fill:#4A5F65; fill-opacity:0.9000; 
stroke:#4A5F65; stroke-width:0.0000; stroke-opacity:1; 
stroke-linecap:round; stroke-linejoin:round;fill-rule:evenodd;"
d="M 47.0380,20.5625
47.0667,20.5682
47.0910,20.5845
47.1073,20.6088
47.1130,20.6375
47.1130,20.7875
47.1073,20.8162
47.0910,20.8405
47.0667,20.8568
47.0380,20.8625
45.7130,20.8625
45.6843,20.8568
45.6600,20.8405
45.6437,20.8162
45.6380,20.7875
45.6380,20.6375
45.6437,20.6088
45.6600,20.5845
45.6843,20.5682
45.7130,20.5625
Z" /> 
<path style="fill:#4A5F65; fill-opacity:0.9000; 
stroke:#4A5F65; stroke-width:0.0000; stroke-opacity:1; 
stroke-linecap:round; stroke-linejoin:round;fill-rule:evenodd;"
d="M 47.0380,20.0625
47.0667,20.0682
47.0910,20.0845
47.1073,20.1088
47.1130,20.1375
47.1130,20.2875
47.1073,20.3162
47.0910,20.3405
47.0667,20.3568
47.0380,20.3625
45.7130,20.3625
45.6843,20.3568
45.6600,20.3405
45.6437,20.3162
45.6380,20.2875
45.6380,20.1375
45.6437,20.1088
45.6600,20.0845
45.6843,20.0682
45.7130,20.0625
Z" /> 
<path style="fill:#4A5F65; fill-opacity:0.9000; 
stroke:#4A5F65; stroke-width:0.0000; stroke-opacity:1; 
stroke-linecap:round; stroke-linejoin:round;fill-rule:evenodd;"
d="M 47.0380,19.5625
47.0667,19.5682
47.0910,19.5845
47.1073,19.6088
47.1130,19.6375
47.1130,19.7875
47.1073,19.8162
47.0910,19.8405
47.0667,19.8568
47.0380,19.8625
45.7130,19.8625
45.6843,19.8568
45.6600,19.8405
45.6437,19.8162
45.6380,19.7875
45.6380,19.6375
45.6437,19.6088
45.6600,19.5845
45.6843,19.5682
45.7130,19.5625
Z" /> 
<path style="fill:#4A5F65; fill-opacity:0.9000; 
stroke:#4A5F65; stroke-width:0.0000; stroke-opacity:1; 
stroke-linecap:round; stroke-linejoin:round;fill-rule:evenodd;"
d="M 47.0380,19.0625
47.0667,19.0682
47.0910,19.0845
47.1073,19.1088
47.1130,19.1375
47.1130,19.2875
47.1073,19.3162
47.0910,19.3405
47.0667,19.3568
47.0380,19.3625
45.7130,19.3625
45.6843,19.3568
45.6600,19.3405
45.6437,19.3162
45.6380,19.2875
45.6380,19.1375
45.6437,19.1088
45.6600,19.0845
45.6843,19.0682
45.7130,19.0625
Z" /> 
<path style="fill:#4A5F65; fill-opacity:0.9000; 
stroke:#4A5F65; stroke-width:0.0000; stroke-opacity:1; 
stroke-linecap:round; stroke-linejoin:round;fill-rule:evenodd;"
d="M 47.0380,18.5625
47.0667,18.5682
47.0910,18.5845
47.1073,18.6088
47.1130,18.6375
47.1130,18.7875
47.1073,18.8162
47.0910,18.8405
47.0667,18.8568
47.0380,18.8625
45.7130,18.8625
45.6843,18.8568
45.6600,18.8405
45.6437,18.8162
45.6380,18.7875
45.6380,18.6375
45.6437,18.6088
45.6600,18.5845
45.6843,18.5682
45.7130,18.5625
Z" /> 
<path style="fill:#4A5F65; fill-opacity:0.9000; 
stroke:#4A5F65; stroke-width:0.0000; stroke-opacity:1; 
stroke-linecap:round; stroke-linejoin:round;fill-rule:evenodd;"
d="M 47.0380,18.0625
47.0667,18.0682
47.0910,18.0845
47.1073,18.1088
47.1130,18.1375
47.1130,18.2875
47.1073,18.3162
47.0910,18.3405
47.0667,18.3568
47.0380,18.3625
45.7130,18.3625
45.6843,18.3568
45.6600,18.3405
45.6437,18.3162
45.6380,18.2875
45.6380,18.1375
45.6437,18.1088
45.6600,18.0845
45.6843,18.0682
45.7130,18.0625
Z" /> 
<path style="fill:#4A5F65; fill-opacity:0.9000; 
stroke:#4A5F65; stroke-width:0.0000; stroke-opacity:1; 
stroke-linecap:round; stroke-linejoin:round;fill-rule:evenodd;"
d="M 47.0380,17.5625
47.0667,17.5682
47.0910,17.5845
47.1073,17.6088
47.1130,17.6375
47.1130,17.7875
47.1073,17.8162
47.0910,17.8405
47.0667,17.8568
47.0380,17.8625
45.7130,17.8625
45.6843,17.8568
45.6600,17.8405
45.6437,17.8162
45.6380,17.7875
45.6380,17.6375
45.6437,17.6088
45.6600,17.5845
45.6843,17.5682
45.7130,17.5625
Z" /> 
<path style="fill:#4A5F65; fill-opacity:0.9000; 
stroke:#4A5F65; stroke-width:0.0000; stroke-opacity:1; 
stroke-linecap:round; stroke-linejoin:round;fill-rule:evenodd;"
d="M 47.0380,17.0625
47.0667,17.0682
47.0910,17.0845
47.1073,17.1088
47.1130,17.1375
47.1130,17.2875
47.1073,17.3162
47.0910,17.3405
47.0667,17.3568
47.0380,17.3625
45.7130,17.3625
45.6843,17.3568
45.6600,17.3405
45.6437,17.3162
45.6380,17.2875
45.6380,17.1375
45.6437,17.1088
45.6600,17.0845
45.6843,17.0682
45.7130,17.0625
Z" /> 
<path style="fill:#4A5F65; fill-opacity:0.9000; 
stroke:#4A5F65; stroke-width:0.0000; stroke-opacity:1; 
stroke-linecap:round; stroke-linejoin:round;fill-rule:evenodd;"
d="M 47.0380,16.5625
47.0667,16.5682
47.0910,16.5845
47.1073,16.6088
47.1130,16.6375
47.1130,16.7875
47.1073,16.8162
47.0910,16.8405
47.0667,16.8568
47.0380,16.8625
45.7130,16.8625
45.6843,16.8568
45.6600,16.8405
45.6437,16.8162
45.6380,16.7875
45.6380,16.6375
45.6437,16.6088
45.6600,16.5845
45.6843,16.5682
45.7130,16.5625
Z" /> 
<path style="fill:#4A5F65; fill-opacity:0.9000; 
stroke:#4A5F65; stroke-width:0.0000; stroke-opacity:1; 
stroke-linecap:round; stroke-linejoin:round;fill-rule:evenodd;"
d="M 47.0380,16.0625
47.0667,16.0682
47.0910,16.0845
47.1073,16.1088
47.1130,16.1375
47.1130,16.2875
47.1073,16.3162
47.0910,16.3405
47.0667,16.3568
47.0380,16.3625
45.7130,16.3625
45.6843,16.3568
45.6600,16.3405
45.6437,16.3162
45.6380,16.2875
45.6380,16.1375
45.6437,16.1088
45.6600,16.0845
45.6843,16.0682
45.7130,16.0625
Z" /> 
<path style="fill:#4A5F65; fill-opacity:0.9000; 
stroke:#4A5F65; stroke-width:0.0000; stroke-opacity:1; 
stroke-linecap:round; stroke-linejoin:round;fill-rule:evenodd;"
d="M 47.0380,15.5625
47.0667,15.5682
47.0910,15.5845
47.1073,15.6088
47.1130,15.6375
47.1130,15.7875
47.1073,15.8162
47.0910,15.8405
47.0667,15.8568
47.0380,15.8625
45.7130,15.8625
45.6843,15.8568
45.6600,15.8405
45.6437,15.8162
45.6380,15.7875
45.6380,15.6375
45.6437,15.6088
45.6600,15.5845
45.6843,15.5682
45.7130,15.5625
Z" /> 
<path style="fill:#4A5F65; fill-opacity:0.9000; 
stroke:#4A5F65; stroke-width:0.0000; stroke-opacity:1; 
stroke-linecap:round; stroke-linejoin:round;fill-rule:evenodd;"
d="M 47.0380,15.0625
47.0667,15.0682
47.0910,15.0845
47.1073,15.1088
47.1130,15.1375
47.1130,15.2875
47.1073,15.3162
47.0910,15.3405
47.0667,15.3568
47.0380,15.3625
45.7130,15.3625
45.6843,15.3568
45.6600,15.3405
45.6437,15.3162
45.6380,15.2875
45.6380,15.1375
45.6437,15.1088
45.6600,15.0845
45.6843,15.0682
45.7130,15.0625
Z" /> 
</g>
<g >
</g>
<g >
</g>
<g style="fill:#4A5F65; fill-opacity:0.9000; 
stroke:#4A5F65; stroke-width:0.0000; stroke-opacity:1; 
stroke-linecap:round; stroke-linejoin:round;">
<path style="fill:#4A5F65; fill-opacity:0.9000; 
stroke:#4A5F65; stroke-width:0.0000; stroke-opacity:1; 
stroke-linecap:round; stroke-linejoin:round;fill-rule:evenodd;"
d="M 1.4800,17.1350
1.4952,17.0585
1.5386,16.9936
1.6035,16.9502
1.6800,16.9350
2.0800,16.9350
2.1565,16.9502
2.2214,16.9936
2.2648,17.0585
2.2800,17.1350
2.2800,17.6850
2.2648,17.7615
2.2214,17.8264
2.1565,17.8698
2.0800,17.8850
1.6800,17.8850
1.6035,17.8698
1.5386,17.8264
1.4952,17.7615
1.4800,17.6850
Z" /> 
<path style="fill:#4A5F65; fill-opacity:0.9000; 
stroke:#4A5F65; stroke-width:0.0000; stroke-opacity:1; 
stroke-linecap:round; stroke-linejoin:round;fill-rule:evenodd;"
d="M 3.1300,17.1350
3.1452,17.0585
3.1886,16.9936
3.2535,16.9502
3.3300,16.9350
3.7300,16.9350
3.8065,16.9502
3.8714,16.9936
3.9148,17.0585
3.9300,17.1350
3.9300,17.6850
3.9148,17.7615
3.8714,17.8264
3.8065,17.8698
3.7300,17.8850
3.3300,17.8850
3.2535,17.8698
3.1886,17.8264
3.1452,17.7615
3.1300,17.6850
Z" /> 
</g>
<g >
</g>
<g >
</g>
<g style="fill:#4A5F65; fill-opacity:0.9000; 
stroke:#4A5F65; stroke-width:0.0000; stroke-opacity:1; 
stroke-linecap:round; stroke-linejoin:round;">
<path style="fill:#4A5F65; fill-opacity:0.9000; 
stroke:#4A5F65; stroke-width:0.0000; stroke-opacity:1; 
stroke-linecap:round; stroke-linejoin:round;fill-rule:evenodd;"
d="M 50.2700,15.6600
50.3561,15.6771
50.4291,15.7259
50.4779,15.7989
50.4950,15.8850
50.4950,16.3350
50.4779,16.4211
50.4291,16.4941
50.3561,16.5429
50.2700,16.5600
49.7700,16.5600
49.6839,16.5429
49.6109,16.4941
49.5621,16.4211
49.5450,16.3350
49.5450,15.8850
49.5621,15.7989
49.6109,15.7259
49.6839,15.6771
49.7700,15.6600
Z" /> 
<path style="fill:#4A5F65; fill-opacity:0.9000; 
stroke:#4A5F65; stroke-width:0.0000; stroke-opacity:1; 
stroke-linecap:round; stroke-linejoin:round;fill-rule:evenodd;"
d="M 50.2700,17.2100
50.3561,17.2271
50.4291,17.2759
50.4779,17.3489
50.4950,17.4350
50.4950,17.8850
50.4779,17.9711
50.4291,18.0441
50.3561,18.0929
50.2700,18.1100
49.7700,18.1100
49.6839,18.0929
49.6109,18.0441
49.5621,17.9711
49.5450,17.8850
49.5450,17.4350
49.5621,17.3489
49.6109,17.2759
49.6839,17.2271
49.7700,17.2100
Z" /> 
</g>
<g >
</g>
<g style="fill:#4A5F65; fill-opacity:0.9000; 
stroke:#4A5F65; stroke-width:0.0000; stroke-opacity:1; 
stroke-linecap:round; stroke-linejoin:round;">
<path style="fill:#4A5F65; fill-opacity:0.9000; 
stroke:#4A5F65; stroke-width:0.0000; stroke-opacity:1; 
stroke-linecap:round; stroke-linejoin:round;fill-rule:evenodd;"
d="M 45.3000,7.6862
45.2829,7.7723
45.2341,7.8453
45.1611,7.8940
45.0750,7.9112
44.6250,7.9112
44.5389,7.8940
44.4659,7.8453
44.4171,7.7723
44.4000,7.6862
44.4000,7.1862
44.4171,7.1001
44.4659,7.0271
44.5389,6.9783
44.6250,6.9612
45.0750,6.9612
45.1611,6.9783
45.2341,7.0271
45.2829,7.1001
45.3000,7.1862
Z" /> 
<path style="fill:#4A5F65; fill-opacity:0.9000; 
stroke:#4A5F65; stroke-width:0.0000; stroke-opacity:1; 
stroke-linecap:round; stroke-linejoin:round;fill-rule:evenodd;"
d="M 43.7500,7.6862
43.7329,7.7723
43.6841,7.8453
43.6111,7.8940
43.5250,7.9112
43.0750,7.9112
42.9889,7.8940
42.9159,7.8453
42.8671,7.7723
42.8500,7.6862
42.8500,7.1862
42.8671,7.1001
42.9159,7.0271
42.9889,6.9783
43.0750,6.9612
43.5250,6.9612
43.6111,6.9783
43.6841,7.0271
43.7329,7.1001
43.7500,7.1862
Z" /> 
</g>
<g >
</g>
<g style="fill:#4A5F65; fill-opacity:0.9000; 
stroke:#4A5F65; stroke-width:0.0000; stroke-opacity:1; 
stroke-linecap:round; stroke-linejoin:round;">
<path style="fill:#4A5F65; fill-opacity:0.9000; 
stroke:#4A5F65; stroke-width:0.0000; stroke-opacity:1; 
stroke-linecap:round; stroke-linejoin:round;fill-rule:evenodd;"
d="M 60.9500,4.7200
61.0361,4.7371
61.1091,4.7859
61.1579,4.8589
61.1750,4.9450
61.1750,5.3950
61.1579,5.4811
61.1091,5.5541
61.0361,5.6029
60.9500,5.6200
60.4500,5.6200
60.3639,5.6029
60.2909,5.5541
60.2421,5.4811
60.2250,5.3950
60.2250,4.9450
60.2421,4.8589
60.2909,4.7859
60.3639,4.7371
60.4500,4.7200
Z" /> 
<path style="fill:#4A5F65; fill-opacity:0.9000; 
stroke:#4A5F65; stroke-width:0.0000; stroke-opacity:1; 
stroke-linecap:round; stroke-linejoin:round;fill-rule:evenodd;"
d="M 60.9500,6.2700
61.0361,6.2871
61.1091,6.3359
61.1579,6.4089
61.1750,6.4950
61.1750,6.9450
61.1579,7.0311
61.1091,7.1041
61.0361,7.1529
60.9500,7.1700
60.4500,7.1700
60.3639,7.1529
60.2909,7.1041
60.2421,7.0311
60.2250,6.9450
60.2250,6.4950
60.2421,6.4089
60.2909,6.3359
60.3639,6.2871
60.4500,6.2700
Z" /> 
</g>
<g >
</g>
<g style="fill:#4A5F65; fill-opacity:0.9000; 
stroke:#4A5F65; stroke-width:0.0000; stroke-opacity:1; 
stroke-linecap:round; stroke-linejoin:round;">
<path style="fill:#4A5F65; fill-opacity:0.9000; 
stroke:#4A5F65; stroke-width:0.0000; stroke-opacity:1; 
stroke-linecap:round; stroke-linejoin:round;fill-rule:evenodd;"
d="M 1.4650,15.5450
1.4802,15.4685
1.5236,15.4036
1.5885,15.3602
1.6650,15.3450
2.0650,15.3450
2.1415,15.3602
2.2064,15.4036
2.2498,15.4685
2.2650,15.5450
2.2650,16.0950
2.2498,16.1715
2.2064,16.2364
2.1415,16.2798
2.0650,16.2950
1.6650,16.2950
1.5885,16.2798
1.5236,16.2364
1.4802,16.1715
1.4650,16.0950
Z" /> 
<path style="fill:#4A5F65; fill-opacity:0.9000; 
stroke:#4A5F65; stroke-width:0.0000; stroke-opacity:1; 
stroke-linecap:round; stroke-linejoin:round;fill-rule:evenodd;"
d="M 3.1150,15.5450
3.1302,15.4685
3.1736,15.4036
3.2385,15.3602
3.3150,15.3450
3.7150,15.3450
3.7915,15.3602
3.8564,15.4036
3.8998,15.4685
3.9150,15.5450
3.9150,16.0950
3.8998,16.1715
3.8564,16.2364
3.7915,16.2798
3.7150,16.2950
3.3150,16.2950
3.2385,16.2798
3.1736,16.2364
3.1302,16.1715
3.1150,16.0950
Z" /> 
</g>
<g >
</g>
<g style="fill:#4A5F65; fill-opacity:0.9000; 
stroke:#4A5F65; stroke-width:0.0000; stroke-opacity:1; 
stroke-linecap:round; stroke-linejoin:round;">
<path style="fill:#4A5F65; fill-opacity:0.9000; 
stroke:#4A5F65; stroke-width:0.0000; stroke-opacity:1; 
stroke-linecap:round; stroke-linejoin:round;fill-rule:evenodd;"
d="M 1.4800,24.2950
1.4952,24.2185
1.5386,24.1536
1.6035,24.1102
1.6800,24.0950
2.0800,24.0950
2.1565,24.1102
2.2214,24.1536
2.2648,24.2185
2.2800,24.2950
2.2800,24.8450
2.2648,24.9215
2.2214,24.9864
2.1565,25.0298
2.0800,25.0450
1.6800,25.0450
1.6035,25.0298
1.5386,24.9864
1.4952,24.9215
1.4800,24.8450
Z" /> 
<path style="fill:#4A5F65; fill-opacity:0.9000; 
stroke:#4A5F65; stroke-width:0.0000; stroke-opacity:1; 
stroke-linecap:round; stroke-linejoin:round;fill-rule:evenodd;"
d="M 3.1300,24.2950
3.1452,24.2185
3.1886,24.1536
3.2535,24.1102
3.3300,24.0950
3.7300,24.0950
3.8065,24.1102
3.8714,24.1536
3.9148,24.2185
3.9300,24.2950
3.9300,24.8450
3.9148,24.9215
3.8714,24.9864
3.8065,25.0298
3.7300,25.0450
3.3300,25.0450
3.2535,25.0298
3.1886,24.9864
3.1452,24.9215
3.1300,24.8450
Z" /> 
</g>
<g >
</g>
<g style="fill:#4A5F65; fill-opacity:0.9000; 
stroke:#4A5F65; stroke-width:0.0000; stroke-opacity:1; 
stroke-linecap:round; stroke-linejoin:round;">
<path style="fill:#4A5F65; fill-opacity:0.9000; 
stroke:#4A5F65; stroke-width:0.0000; stroke-opacity:1; 
stroke-linecap:round; stroke-linejoin:round;fill-rule:evenodd;"
d="M 50.1700,31.7500
50.1700,30.1500
52.3500,30.1500
52.3500,31.7500
Z" /> 
<path style="fill:#4A5F65; fill-opacity:0.9000; 
stroke:#4A5F65; stroke-width:0.0000; stroke-opacity:1; 
stroke-linecap:round; stroke-linejoin:round;fill-rule:evenodd;"
d="M 59.3500,31.7500
59.3500,30.1500
61.5300,30.1500
61.5300,31.7500
Z" /> 
</g>
<g >
</g>
<g style="fill:#4A5F65; fill-opacity:0.9000; 
stroke:#4A5F65; stroke-width:0.0000; stroke-opacity:1; 
stroke-linecap:round; stroke-linejoin:round;">
<path style="fill:#4A5F65; fill-opacity:0.9000; 
stroke:#4A5F65; stroke-width:0.0000; stroke-opacity:1; 
stroke-linecap:round; stroke-linejoin:round;fill-rule:evenodd;"
d="M 48.7763,15.6230
48.8624,15.6401
48.9354,15.6889
48.9842,15.7619
49.0013,15.8480
49.0013,16.2980
48.9842,16.3841
48.9354,16.4571
48.8624,16.5059
48.7763,16.5230
48.2763,16.5230
48.1902,16.5059
48.1172,16.4571
48.0685,16.3841
48.0513,16.2980
48.0513,15.8480
48.0685,15.7619
48.1172,15.6889
48.1902,15.6401
48.2763,15.6230
Z" /> 
<path style="fill:#4A5F65; fill-opacity:0.9000; 
stroke:#4A5F65; stroke-width:0.0000; stroke-opacity:1; 
stroke-linecap:round; stroke-linejoin:round;fill-rule:evenodd;"
d="M 48.7763,17.1730
48.8624,17.1901
48.9354,17.2389
48.9842,17.3119
49.0013,17.3980
49.0013,17.8480
48.9842,17.9341
48.9354,18.0071
48.8624,18.0559
48.7763,18.0730
48.2763,18.0730
48.1902,18.0559
48.1172,18.0071
48.0685,17.9341
48.0513,17.8480
48.0513,17.3980
48.0685,17.3119
48.1172,17.2389
48.1902,17.1901
48.2763,17.1730
Z" /> 
</g>
<g >
</g>
<g style="fill:#4A5F65; fill-opacity:0.9000; 
stroke:#4A5F65; stroke-width:0.0000; stroke-opacity:1; 
stroke-linecap:round; stroke-linejoin:round;">
<path style="fill:#4A5F65; fill-opacity:0.9000; 
stroke:#4A5F65; stroke-width:0.0000; stroke-opacity:1; 
stroke-linecap:round; stroke-linejoin:round;fill-rule:evenodd;"
d="M 6.9045,22.5350
8.4295,22.5350
8.4295,23.2350
6.9045,23.2350
Z" /> 
<path style="fill:#4A5F65; fill-opacity:0.9000; 
stroke:#4A5F65; stroke-width:0.0000; stroke-opacity:1; 
stroke-linecap:round; stroke-linejoin:round;fill-rule:evenodd;"
d="M 6.9045,21.2650
8.4295,21.2650
8.4295,21.9650
6.9045,21.9650
Z" /> 
<path style="fill:#4A5F65; fill-opacity:0.9000; 
stroke:#4A5F65; stroke-width:0.0000; stroke-opacity:1; 
stroke-linecap:round; stroke-linejoin:round;fill-rule:evenodd;"
d="M 6.9045,19.9950
8.4295,19.9950
8.4295,20.6950
6.9045,20.6950
Z" /> 
<path style="fill:#4A5F65; fill-opacity:0.9000; 
stroke:#4A5F65; stroke-width:0.0000; stroke-opacity:1; 
stroke-linecap:round; stroke-linejoin:round;fill-rule:evenodd;"
d="M 6.9045,18.7250
8.4295,18.7250
8.4295,19.4250
6.9045,19.4250
Z" /> 
<path style="fill:#4A5F65; fill-opacity:0.9000; 
stroke:#4A5F65; stroke-width:0.0000; stroke-opacity:1; 
stroke-linecap:round; stroke-linejoin:round;fill-rule:evenodd;"
d="M 1.4805,18.7250
3.0055,18.7250
3.0055,19.4250
1.4805,19.4250
Z" /> 
<path style="fill:#4A5F65; fill-opacity:0.9000; 
stroke:#4A5F65; stroke-width:0.0000; stroke-opacity:1; 
stroke-linecap:round; stroke-linejoin:round;fill-rule:evenodd;"
d="M 1.4805,19.9950
3.0055,19.9950
3.0055,20.6950
1.4805,20.6950
Z" /> 
<path style="fill:#4A5F65; fill-opacity:0.9000; 
stroke:#4A5F65; stroke-width:0.0000; stroke-opacity:1; 
stroke-linecap:round; stroke-linejoin:round;fill-rule:evenodd;"
d="M 1.4805,21.2650
3.0055,21.2650
3.0055,21.9650
1.4805,21.9650
Z" /> 
<path style="fill:#4A5F65; fill-opacity:0.9000; 
stroke:#4A5F65; stroke-width:0.0000; stroke-opacity:1; 
stroke-linecap:round; stroke-linejoin:round;fill-rule:evenodd;"
d="M 1.4805,22.5350
3.0055,22.5350
3.0055,23.2350
1.4805,23.2350
Z" /> 
</g>
<g >
</g>
<g style="fill:#4A5F65; fill-opacity:0.9000; 
stroke:#4A5F65; stroke-width:0.0000; stroke-opacity:1; 
stroke-linecap:round; stroke-linejoin:round;">
<path style="fill:#4A5F65; fill-opacity:0.9000; 
stroke:#4A5F65; stroke-width:0.0000; stroke-opacity:1; 
stroke-linecap:round; stroke-linejoin:round;fill-rule:evenodd;"
d="M 9.1150,21.2950
9.1302,21.2185
9.1736,21.1536
9.2385,21.1102
9.3150,21.0950
9.7150,21.0950
9.7915,21.1102
9.8564,21.1536
9.8998,21.2185
9.9150,21.2950
9.9150,21.8450
9.8998,21.9215
9.8564,21.9864
9.7915,22.0298
9.7150,22.0450
9.3150,22.0450
9.2385,22.0298
9.1736,21.9864
9.1302,21.9215
9.1150,21.8450
Z" /> 
<path style="fill:#4A5F65; fill-opacity:0.9000; 
stroke:#4A5F65; stroke-width:0.0000; stroke-opacity:1; 
stroke-linecap:round; stroke-linejoin:round;fill-rule:evenodd;"
d="M 10.7650,21.2950
10.7802,21.2185
10.8236,21.1536
10.8885,21.1102
10.9650,21.0950
11.3650,21.0950
11.4415,21.1102
11.5064,21.1536
11.5498,21.2185
11.5650,21.2950
11.5650,21.8450
11.5498,21.9215
11.5064,21.9864
11.4415,22.0298
11.3650,22.0450
10.9650,22.0450
10.8885,22.0298
10.8236,21.9864
10.7802,21.9215
10.7650,21.8450
Z" /> 
</g>
<g >
</g>
<g style="fill:#4A5F65; fill-opacity:0.9000; 
stroke:#4A5F65; stroke-width:0.0000; stroke-opacity:1; 
stroke-linecap:round; stroke-linejoin:round;">
<path style="fill:#4A5F65; fill-opacity:0.9000; 
stroke:#4A5F65; stroke-width:0.0000; stroke-opacity:1; 
stroke-linecap:round; stroke-linejoin:round;fill-rule:evenodd;"
d="M 52.9200,19.1050
52.9314,19.0476
52.9639,18.9989
53.0126,18.9664
53.0700,18.9550
54.7200,18.9550
54.7774,18.9664
54.8261,18.9989
54.8586,19.0476
54.8700,19.1050
54.8700,19.4050
54.8586,19.4624
54.8261,19.5111
54.7774,19.5436
54.7200,19.5550
53.0700,19.5550
53.0126,19.5436
52.9639,19.5111
52.9314,19.4624
52.9200,19.4050
Z" /> 
<path style="fill:#4A5F65; fill-opacity:0.9000; 
stroke:#4A5F65; stroke-width:0.0000; stroke-opacity:1; 
stroke-linecap:round; stroke-linejoin:round;fill-rule:evenodd;"
d="M 52.9200,20.3750
52.9314,20.3176
52.9639,20.2689
53.0126,20.2364
53.0700,20.2250
54.7200,20.2250
54.7774,20.2364
54.8261,20.2689
54.8586,20.3176
54.8700,20.3750
54.8700,20.6750
54.8586,20.7324
54.8261,20.7811
54.7774,20.8136
54.7200,20.8250
53.0700,20.8250
53.0126,20.8136
52.9639,20.7811
52.9314,20.7324
52.9200,20.6750
Z" /> 
<path style="fill:#4A5F65; fill-opacity:0.9000; 
stroke:#4A5F65; stroke-width:0.0000; stroke-opacity:1; 
stroke-linecap:round; stroke-linejoin:round;fill-rule:evenodd;"
d="M 52.9200,21.6450
52.9314,21.5876
52.9639,21.5389
53.0126,21.5064
53.0700,21.4950
54.7200,21.4950
54.7774,21.5064
54.8261,21.5389
54.8586,21.5876
54.8700,21.6450
54.8700,21.9450
54.8586,22.0024
54.8261,22.0511
54.7774,22.0836
54.7200,22.0950
53.0700,22.0950
53.0126,22.0836
52.9639,22.0511
52.9314,22.0024
52.9200,21.9450
Z" /> 
<path style="fill:#4A5F65; fill-opacity:0.9000; 
stroke:#4A5F65; stroke-width:0.0000; stroke-opacity:1; 
stroke-linecap:round; stroke-linejoin:round;fill-rule:evenodd;"
d="M 52.9200,22.9150
52.9314,22.8576
52.9639,22.8089
53.0126,22.7764
53.0700,22.7650
54.7200,22.7650
54.7774,22.7764
54.8261,22.8089
54.8586,22.8576
54.8700,22.9150
54.8700,23.2150
54.8586,23.2724
54.8261,23.3211
54.7774,23.3536
54.7200,23.3650
53.0700,23.3650
53.0126,23.3536
52.9639,23.3211
52.9314,23.2724
52.9200,23.2150
Z" /> 
<path style="fill:#4A5F65; fill-opacity:0.9000; 
stroke:#4A5F65; stroke-width:0.0000; stroke-opacity:1; 
stroke-linecap:round; stroke-linejoin:round;fill-rule:evenodd;"
d="M 57.8700,22.9150
57.8814,22.8576
57.9139,22.8089
57.9626,22.7764
58.0200,22.7650
59.6700,22.7650
59.7274,22.7764
59.7761,22.8089
59.8086,22.8576
59.8200,22.9150
59.8200,23.2150
59.8086,23.2724
59.7761,23.3211
59.7274,23.3536
59.6700,23.3650
58.0200,23.3650
57.9626,23.3536
57.9139,23.3211
57.8814,23.2724
57.8700,23.2150
Z" /> 
<path style="fill:#4A5F65; fill-opacity:0.9000; 
stroke:#4A5F65; stroke-width:0.0000; stroke-opacity:1; 
stroke-linecap:round; stroke-linejoin:round;fill-rule:evenodd;"
d="M 57.8700,21.6450
57.8814,21.5876
57.9139,21.5389
57.9626,21.5064
58.0200,21.4950
59.6700,21.4950
59.7274,21.5064
59.7761,21.5389
59.8086,21.5876
59.8200,21.6450
59.8200,21.9450
59.8086,22.0024
59.7761,22.0511
59.7274,22.0836
59.6700,22.0950
58.0200,22.0950
57.9626,22.0836
57.9139,22.0511
57.8814,22.0024
57.8700,21.9450
Z" /> 
<path style="fill:#4A5F65; fill-opacity:0.9000; 
stroke:#4A5F65; stroke-width:0.0000; stroke-opacity:1; 
stroke-linecap:round; stroke-linejoin:round;fill-rule:evenodd;"
d="M 57.8700,20.3750
57.8814,20.3176
57.9139,20.2689
57.9626,20.2364
58.0200,20.2250
59.6700,20.2250
59.7274,20.2364
59.7761,20.2689
59.8086,20.3176
59.8200,20.3750
59.8200,20.6750
59.8086,20.7324
59.7761,20.7811
59.7274,20.8136
59.6700,20.8250
58.0200,20.8250
57.9626,20.8136
57.9139,20.7811
57.8814,20.7324
57.8700,20.6750
Z" /> 
<path style="fill:#4A5F65; fill-opacity:0.9000; 
stroke:#4A5F65; stroke-width:0.0000; stroke-opacity:1; 
stroke-linecap:round; stroke-linejoin:round;fill-rule:evenodd;"
d="M 57.8700,19.1050
57.8814,19.0476
57.9139,18.9989
57.9626,18.9664
58.0200,18.9550
59.6700,18.9550
59.7274,18.9664
59.7761,18.9989
59.8086,19.0476
59.8200,19.1050
59.8200,19.4050
59.8086,19.4624
59.7761,19.5111
59.7274,19.5436
59.6700,19.5550
58.0200,19.5550
57.9626,19.5436
57.9139,19.5111
57.8814,19.4624
57.8700,19.4050
Z" /> 
</g>
<g >
</g>
<g style="fill:#4A5F65; fill-opacity:0.9000; 
stroke:#4A5F65; stroke-width:0.0000; stroke-opacity:1; 
stroke-linecap:round; stroke-linejoin:round;">
<path style="fill:#4A5F65; fill-opacity:0.9000; 
stroke:#4A5F65; stroke-width:0.0000; stroke-opacity:1; 
stroke-linecap:round; stroke-linejoin:round;fill-rule:evenodd;"
d="M 6.8795,13.8350
8.4045,13.8350
8.4045,14.5350
6.8795,14.5350
Z" /> 
<path style="fill:#4A5F65; fill-opacity:0.9000; 
stroke:#4A5F65; stroke-width:0.0000; stroke-opacity:1; 
stroke-linecap:round; stroke-linejoin:round;fill-rule:evenodd;"
d="M 6.8795,12.5650
8.4045,12.5650
8.4045,13.2650
6.8795,13.2650
Z" /> 
<path style="fill:#4A5F65; fill-opacity:0.9000; 
stroke:#4A5F65; stroke-width:0.0000; stroke-opacity:1; 
stroke-linecap:round; stroke-linejoin:round;fill-rule:evenodd;"
d="M 6.8795,11.2950
8.4045,11.2950
8.4045,11.9950
6.8795,11.9950
Z" /> 
<path style="fill:#4A5F65; fill-opacity:0.9000; 
stroke:#4A5F65; stroke-width:0.0000; stroke-opacity:1; 
stroke-linecap:round; stroke-linejoin:round;fill-rule:evenodd;"
d="M 6.8795,10.0250
8.4045,10.0250
8.4045,10.7250
6.8795,10.7250
Z" /> 
<path style="fill:#4A5F65; fill-opacity:0.9000; 
stroke:#4A5F65; stroke-width:0.0000; stroke-opacity:1; 
stroke-linecap:round; stroke-linejoin:round;fill-rule:evenodd;"
d="M 1.4555,10.0250
2.9805,10.0250
2.9805,10.7250
1.4555,10.7250
Z" /> 
<path style="fill:#4A5F65; fill-opacity:0.9000; 
stroke:#4A5F65; stroke-width:0.0000; stroke-opacity:1; 
stroke-linecap:round; stroke-linejoin:round;fill-rule:evenodd;"
d="M 1.4555,11.2950
2.9805,11.2950
2.9805,11.9950
1.4555,11.9950
Z" /> 
<path style="fill:#4A5F65; fill-opacity:0.9000; 
stroke:#4A5F65; stroke-width:0.0000; stroke-opacity:1; 
stroke-linecap:round; stroke-linejoin:round;fill-rule:evenodd;"
d="M 1.4555,12.5650
2.9805,12.5650
2.9805,13.2650
1.4555,13.2650
Z" /> 
<path style="fill:#4A5F65; fill-opacity:0.9000; 
stroke:#4A5F65; stroke-width:0.0000; stroke-opacity:1; 
stroke-linecap:round; stroke-linejoin:round;fill-rule:evenodd;"
d="M 1.4555,13.8350
2.9805,13.8350
2.9805,14.5350
1.4555,14.5350
Z" /> 
</g>
<g >
</g>
<g style="fill:#4A5F65; fill-opacity:0.9000; 
stroke:#4A5F65; stroke-width:0.0000; stroke-opacity:1; 
stroke-linecap:round; stroke-linejoin:round;">
<path style="fill:#4A5F65; fill-opacity:0.9000; 
stroke:#4A5F65; stroke-width:0.0000; stroke-opacity:1; 
stroke-linecap:round; stroke-linejoin:round;fill-rule:evenodd;"
d="M 9.1300,18.8050
9.1452,18.7285
9.1886,18.6636
9.2535,18.6202
9.3300,18.6050
9.7300,18.6050
9.8065,18.6202
9.8714,18.6636
9.9148,18.7285
9.9300,18.8050
9.9300,19.3550
9.9148,19.4315
9.8714,19.4964
9.8065,19.5398
9.7300,19.5550
9.3300,19.5550
9.2535,19.5398
9.1886,19.4964
9.1452,19.4315
9.1300,19.3550
Z" /> 
<path style="fill:#4A5F65; fill-opacity:0.9000; 
stroke:#4A5F65; stroke-width:0.0000; stroke-opacity:1; 
stroke-linecap:round; stroke-linejoin:round;fill-rule:evenodd;"
d="M 10.7800,18.8050
10.7952,18.7285
10.8386,18.6636
10.9035,18.6202
10.9800,18.6050
11.3800,18.6050
11.4565,18.6202
11.5214,18.6636
11.5648,18.7285
11.5800,18.8050
11.5800,19.3550
11.5648,19.4315
11.5214,19.4964
11.4565,19.5398
11.3800,19.5550
10.9800,19.5550
10.9035,19.5398
10.8386,19.4964
10.7952,19.4315
10.7800,19.3550
Z" /> 
</g>
<g >
</g>
<g >
</g>
<g style="fill:#4A5F65; fill-opacity:0.9000; 
stroke:#4A5F65; stroke-width:0.0000; stroke-opacity:1; 
stroke-linecap:round; stroke-linejoin:round;">
<path style="fill:#4A5F65; fill-opacity:0.9000; 
stroke:#4A5F65; stroke-width:0.0000; stroke-opacity:1; 
stroke-linecap:round; stroke-linejoin:round;fill-rule:evenodd;"
d="M 46.4400,26.7780
46.4229,26.8641
46.3741,26.9371
46.3011,26.9859
46.2150,27.0030
45.7650,27.0030
45.6789,26.9859
45.6059,26.9371
45.5571,26.8641
45.5400,26.7780
45.5400,26.2780
45.5571,26.1919
45.6059,26.1189
45.6789,26.0701
45.7650,26.0530
46.2150,26.0530
46.3011,26.0701
46.3741,26.1189
46.4229,26.1919
46.4400,26.2780
Z" /> 
<path style="fill:#4A5F65; fill-opacity:0.9000; 
stroke:#4A5F65; stroke-width:0.0000; stroke-opacity:1; 
stroke-linecap:round; stroke-linejoin:round;fill-rule:evenodd;"
d="M 44.8900,26.7780
44.8729,26.8641
44.8241,26.9371
44.7511,26.9859
44.6650,27.0030
44.2150,27.0030
44.1289,26.9859
44.0559,26.9371
44.0071,26.8641
43.9900,26.7780
43.9900,26.2780
44.0071,26.1919
44.0559,26.1189
44.1289,26.0701
44.2150,26.0530
44.6650,26.0530
44.7511,26.0701
44.8241,26.1189
44.8729,26.1919
44.8900,26.2780
Z" /> 
</g>
<g >
</g>
<g style="fill:#4A5F65; fill-opacity:0.9000; 
stroke:#4A5F65; stroke-width:0.0000; stroke-opacity:1; 
stroke-linecap:round; stroke-linejoin:round;">
<path style="fill:#4A5F65; fill-opacity:0.9000; 
stroke:#4A5F65; stroke-width:0.0000; stroke-opacity:1; 
stroke-linecap:round; stroke-linejoin:round;fill-rule:evenodd;"
d="M 51.8063,17.0580
51.8924,17.0751
51.9654,17.1239
52.0142,17.1969
52.0313,17.2830
52.0313,17.7330
52.0142,17.8191
51.9654,17.8921
51.8924,17.9409
51.8063,17.9580
51.3063,17.9580
51.2202,17.9409
51.1472,17.8921
51.0985,17.8191
51.0813,17.7330
51.0813,17.2830
51.0985,17.1969
51.1472,17.1239
51.2202,17.0751
51.3063,17.0580
Z" /> 
<path style="fill:#4A5F65; fill-opacity:0.9000; 
stroke:#4A5F65; stroke-width:0.0000; stroke-opacity:1; 
stroke-linecap:round; stroke-linejoin:round;fill-rule:evenodd;"
d="M 51.8063,18.6080
51.8924,18.6251
51.9654,18.6739
52.0142,18.7469
52.0313,18.8330
52.0313,19.2830
52.0142,19.3691
51.9654,19.4421
51.8924,19.4909
51.8063,19.5080
51.3063,19.5080
51.2202,19.4909
51.1472,19.4421
51.0985,19.3691
51.0813,19.2830
51.0813,18.8330
51.0985,18.7469
51.1472,18.6739
51.2202,18.6251
51.3063,18.6080
Z" /> 
</g>
<g >
</g>
<g style="fill:#4A5F65; fill-opacity:0.9000; 
stroke:#4A5F65; stroke-width:0.0000; stroke-opacity:1; 
stroke-linecap:round; stroke-linejoin:round;">
<path style="fill:#4A5F65; fill-opacity:0.9000; 
stroke:#4A5F65; stroke-width:0.0000; stroke-opacity:1; 
stroke-linecap:round; stroke-linejoin:round;fill-rule:evenodd;"
d="M 46.4400,25.0300
46.4229,25.1161
46.3741,25.1891
46.3011,25.2379
46.2150,25.2550
45.7650,25.2550
45.6789,25.2379
45.6059,25.1891
45.5571,25.1161
45.5400,25.0300
45.5400,24.5300
45.5571,24.4439
45.6059,24.3709
45.6789,24.3221
45.7650,24.3050
46.2150,24.3050
46.3011,24.3221
46.3741,24.3709
46.4229,24.4439
46.4400,24.5300
Z" /> 
<path style="fill:#4A5F65; fill-opacity:0.9000; 
stroke:#4A5F65; stroke-width:0.0000; stroke-opacity:1; 
stroke-linecap:round; stroke-linejoin:round;fill-rule:evenodd;"
d="M 44.8900,25.0300
44.8729,25.1161
44.8241,25.1891
44.7511,25.2379
44.6650,25.2550
44.2150,25.2550
44.1289,25.2379
44.0559,25.1891
44.0071,25.1161
43.9900,25.0300
43.9900,24.5300
44.0071,24.4439
44.0559,24.3709
44.1289,24.3221
44.2150,24.3050
44.6650,24.3050
44.7511,24.3221
44.8241,24.3709
44.8729,24.4439
44.8900,24.5300
Z" /> 
</g>
<g >
</g>
<g style="fill:#4A5F65; fill-opacity:0.9000; 
stroke:#4A5F65; stroke-width:0.0000; stroke-opacity:1; 
stroke-linecap:round; stroke-linejoin:round;">
<path style="fill:#4A5F65; fill-opacity:0.9000; 
stroke:#4A5F65; stroke-width:0.0000; stroke-opacity:1; 
stroke-linecap:round; stroke-linejoin:round;fill-rule:evenodd;"
d="M 61.5700,21.4000
61.6465,21.4152
61.7114,21.4586
61.7548,21.5235
61.7700,21.6000
61.7700,22.0000
61.7548,22.0765
61.7114,22.1414
61.6465,22.1848
61.5700,22.2000
61.0200,22.2000
60.9435,22.1848
60.8786,22.1414
60.8352,22.0765
60.8200,22.0000
60.8200,21.6000
60.8352,21.5235
60.8786,21.4586
60.9435,21.4152
61.0200,21.4000
Z" /> 
<path style="fill:#4A5F65; fill-opacity:0.9000; 
stroke:#4A5F65; stroke-width:0.0000; stroke-opacity:1; 
stroke-linecap:round; stroke-linejoin:round;fill-rule:evenodd;"
d="M 61.5700,23.0500
61.6465,23.0652
61.7114,23.1086
61.7548,23.1735
61.7700,23.2500
61.7700,23.6500
61.7548,23.7265
61.7114,23.7914
61.6465,23.8348
61.5700,23.8500
61.0200,23.8500
60.9435,23.8348
60.8786,23.7914
60.8352,23.7265
60.8200,23.6500
60.8200,23.2500
60.8352,23.1735
60.8786,23.1086
60.9435,23.0652
61.0200,23.0500
Z" /> 
</g>
<g >
</g>
<g style="fill:#4A5F65; fill-opacity:0.9000; 
stroke:#4A5F65; stroke-width:0.0000; stroke-opacity:1; 
stroke-linecap:round; stroke-linejoin:round;">
<path style="fill:#4A5F65; fill-opacity:0.9000; 
stroke:#4A5F65; stroke-width:0.0000; stroke-opacity:1; 
stroke-linecap:round; stroke-linejoin:round;fill-rule:evenodd;"
d="M 9.0420,12.6100
9.0572,12.5335
9.1006,12.4686
9.1655,12.4252
9.2420,12.4100
9.6420,12.4100
9.7185,12.4252
9.7834,12.4686
9.8268,12.5335
9.8420,12.6100
9.8420,13.1600
9.8268,13.2365
9.7834,13.3014
9.7185,13.3448
9.6420,13.3600
9.2420,13.3600
9.1655,13.3448
9.1006,13.3014
9.0572,13.2365
9.0420,13.1600
Z" /> 
<path style="fill:#4A5F65; fill-opacity:0.9000; 
stroke:#4A5F65; stroke-width:0.0000; stroke-opacity:1; 
stroke-linecap:round; stroke-linejoin:round;fill-rule:evenodd;"
d="M 10.6920,12.6100
10.7072,12.5335
10.7506,12.4686
10.8155,12.4252
10.8920,12.4100
11.2920,12.4100
11.3685,12.4252
11.4334,12.4686
11.4768,12.5335
11.4920,12.6100
11.4920,13.1600
11.4768,13.2365
11.4334,13.3014
11.3685,13.3448
11.2920,13.3600
10.8920,13.3600
10.8155,13.3448
10.7506,13.3014
10.7072,13.2365
10.6920,13.1600
Z" /> 
</g>
<g >
</g>
<g style="fill:#4A5F65; fill-opacity:0.9000; 
stroke:#4A5F65; stroke-width:0.0000; stroke-opacity:1; 
stroke-linecap:round; stroke-linejoin:round;">
<path style="fill:#4A5F65; fill-opacity:0.9000; 
stroke:#4A5F65; stroke-width:0.0000; stroke-opacity:1; 
stroke-linecap:round; stroke-linejoin:round;fill-rule:evenodd;"
d="M 22.8700,23.3400
22.8871,23.2539
22.9359,23.1809
23.0089,23.1321
23.0950,23.1150
23.5450,23.1150
23.6311,23.1321
23.7041,23.1809
23.7529,23.2539
23.7700,23.3400
23.7700,23.8400
23.7529,23.9261
23.7041,23.9991
23.6311,24.0479
23.5450,24.0650
23.0950,24.0650
23.0089,24.0479
22.9359,23.9991
22.8871,23.9261
22.8700,23.8400
Z" /> 
<path style="fill:#4A5F65; fill-opacity:0.9000; 
stroke:#4A5F65; stroke-width:0.0000; stroke-opacity:1; 
stroke-linecap:round; stroke-linejoin:round;fill-rule:evenodd;"
d="M 24.4200,23.3400
24.4371,23.2539
24.4859,23.1809
24.5589,23.1321
24.6450,23.1150
25.0950,23.1150
25.1811,23.1321
25.2541,23.1809
25.3029,23.2539
25.3200,23.3400
25.3200,23.8400
25.3029,23.9261
25.2541,23.9991
25.1811,24.0479
25.0950,24.0650
24.6450,24.0650
24.5589,24.0479
24.4859,23.9991
24.4371,23.9261
24.4200,23.8400
Z" /> 
</g>
<g >
</g>
<g style="fill:#4A5F65; fill-opacity:0.9000; 
stroke:#4A5F65; stroke-width:0.0000; stroke-opacity:1; 
stroke-linecap:round; stroke-linejoin:round;">
<path style="fill:#4A5F65; fill-opacity:0.9000; 
stroke:#4A5F65; stroke-width:0.0000; stroke-opacity:1; 
stroke-linecap:round; stroke-linejoin:round;fill-rule:evenodd;"
d="M 34.9500,22.6800
34.8639,22.6629
34.7909,22.6141
34.7421,22.5411
34.7250,22.4550
34.7250,22.0050
34.7421,21.9189
34.7909,21.8459
34.8639,21.7971
34.9500,21.7800
35.4500,21.7800
35.5361,21.7971
35.6091,21.8459
35.6579,21.9189
35.6750,22.0050
35.6750,22.4550
35.6579,22.5411
35.6091,22.6141
35.5361,22.6629
35.4500,22.6800
Z" /> 
<path style="fill:#4A5F65; fill-opacity:0.9000; 
stroke:#4A5F65; stroke-width:0.0000; stroke-opacity:1; 
stroke-linecap:round; stroke-linejoin:round;fill-rule:evenodd;"
d="M 34.9500,21.1300
34.8639,21.1129
34.7909,21.0641
34.7421,20.9911
34.7250,20.9050
34.7250,20.4550
34.7421,20.3689
34.7909,20.2959
34.8639,20.2471
34.9500,20.2300
35.4500,20.2300
35.5361,20.2471
35.6091,20.2959
35.6579,20.3689
35.6750,20.4550
35.6750,20.9050
35.6579,20.9911
35.6091,21.0641
35.5361,21.1129
35.4500,21.1300
Z" /> 
</g>
<g >
</g>
<g >
</g>
<g >
</g>
</g>
<g style="fill:#FFFFFF; fill-opacity:1.0000; 
stroke:#FFFFFF; stroke-width:0.0000; stroke-opacity:1; 
stroke-linecap:round; stroke-linejoin:round;">
</g>
<g style="fill:#2F2D31; fill-opacity:1.0000; 
stroke:#2F2D31; stroke-width:0.0000; stroke-opacity:1; 
stroke-linecap:round; stroke-linejoin:round;">
</g>
<g style="fill:#2F2D31; fill-opacity:1.0000; 
stroke:#2F2D31; stroke-width:0.1000; stroke-opacity:1; 
stroke-linecap:round; stroke-linejoin:round;">
</g>
<g style="fill:#2F2D31; fill-opacity:0.0; 
stroke:#2F2D31; stroke-width:0.1000; stroke-opacity:1; 
stroke-linecap:round; stroke-linejoin:round;">
<path d="M0.0500 0.0500
L70.0500 0.0500
" />
<path d="M70.0500 0.0500
L70.0500 33.5500
" />
<path d="M0.0500 33.5500
L0.0500 0.0500
" />
<path d="M70.0500 33.5500
L0.0500 33.5500
" />
<g >
</g>
<g >
</g>
<g >
</g>
<g >
</g>
<g >
</g>
<g >
</g>
<g >
</g>
<g >
</g>
<g >
</g>
<g >
</g>
<g >
</g>
<g >
</g>
<g >
</g>
<g >
</g>
<g >
</g>
<g >
</g>
<g >
</g>
<g >
</g>
<g >
</g>
<g >
</g>
<g >
</g>
<g >
</g>
<g >
</g>
<g >
</g>
<g >
</g>
<g >
</g>
<g >
</g>
<g >
</g>
<g >
</g>
<g >
</g>
<g >
</g>
<g >
</g>
<g >
</g>
<g >
</g>
<g >
</g>
<g >
</g>
<g >
</g>
<g >
</g>
<g >
</g>
<g >
</g>
<g >
</g>
<g >
</g>
<g >
</g>
<g >
</g>
<g >
</g>
<g >
</g>
<g >
</g>
<g >
</g>
<g >
</g>
<g >
</g>
</g> 
</svg>
