<?xml version="1.0" standalone="no"?>
 <!DOCTYPE svg PUBLIC "-//W3C//DTD SVG 1.1//EN" 
 "http://www.w3.org/Graphics/SVG/1.1/DTD/svg11.dtd"> 
<svg
  xmlns:svg="http://www.w3.org/2000/svg"
  xmlns="http://www.w3.org/2000/svg"
  xmlns:xlink="http://www.w3.org/1999/xlink"
  version="1.1"
  width="297.0022mm" height="210.0072mm" viewBox="0.0000 0.0000 297.0022 210.0072">
<title>SVG Image created as iolink-F_Silkscreen.svg date 2024/03/05 09:59:49 </title>
  <desc>Image generated by PCBNEW </desc>
<g style="fill:#000000; fill-opacity:1.0000;stroke:#000000; stroke-opacity:1.0000;
stroke-linecap:round; stroke-linejoin:round;"
 transform="translate(0 0) scale(1 1)">
</g>
<g style="fill:#000000; fill-opacity:0.0; 
stroke:#000000; stroke-width:0.0000; stroke-opacity:1; 
stroke-linecap:round; stroke-linejoin:round;">
</g>
<g style="fill:#000000; fill-opacity:0.0; 
stroke:#000000; stroke-width:0.1500; stroke-opacity:1; 
stroke-linecap:round; stroke-linejoin:round;">
<text x="105.2050" y="81.4300"
textLength="2.2024" font-size="1.3333" lengthAdjust="spacingAndGlyphs"
text-anchor="middle" opacity="0">C3</text>
<g class="stroked-text"><desc>C3</desc>
<path d="M105.0383 81.2896
L104.9907 81.3372
" />
<path d="M104.9907 81.3372
L104.8479 81.3848
" />
<path d="M104.8479 81.3848
L104.7526 81.3848
" />
<path d="M104.7526 81.3848
L104.6098 81.3372
" />
<path d="M104.6098 81.3372
L104.5145 81.2420
" />
<path d="M104.5145 81.2420
L104.4669 81.1467
" />
<path d="M104.4669 81.1467
L104.4193 80.9562
" />
<path d="M104.4193 80.9562
L104.4193 80.8134
" />
<path d="M104.4193 80.8134
L104.4669 80.6229
" />
<path d="M104.4669 80.6229
L104.5145 80.5277
" />
<path d="M104.5145 80.5277
L104.6098 80.4324
" />
<path d="M104.6098 80.4324
L104.7526 80.3848
" />
<path d="M104.7526 80.3848
L104.8479 80.3848
" />
<path d="M104.8479 80.3848
L104.9907 80.4324
" />
<path d="M104.9907 80.4324
L105.0383 80.4801
" />
<path d="M105.3717 80.3848
L105.9907 80.3848
" />
<path d="M105.9907 80.3848
L105.6574 80.7658
" />
<path d="M105.6574 80.7658
L105.8002 80.7658
" />
<path d="M105.8002 80.7658
L105.8955 80.8134
" />
<path d="M105.8955 80.8134
L105.9431 80.8610
" />
<path d="M105.9431 80.8610
L105.9907 80.9562
" />
<path d="M105.9907 80.9562
L105.9907 81.1943
" />
<path d="M105.9907 81.1943
L105.9431 81.2896
" />
<path d="M105.9431 81.2896
L105.8955 81.3372
" />
<path d="M105.8955 81.3372
L105.8002 81.3848
" />
<path d="M105.8002 81.3848
L105.5145 81.3848
" />
<path d="M105.5145 81.3848
L105.4193 81.3372
" />
<path d="M105.4193 81.3372
L105.3717 81.2896
" />
</g><text x="88.2100" y="96.3400"
textLength="1.9643" font-size="1.3333" lengthAdjust="spacingAndGlyphs"
text-anchor="middle" opacity="0">J3</text>
<g class="stroked-text"><desc>J3</desc>
<path d="M87.8767 95.2948
L87.8767 96.0091
" />
<path d="M87.8767 96.0091
L87.8290 96.1520
" />
<path d="M87.8290 96.1520
L87.7338 96.2472
" />
<path d="M87.7338 96.2472
L87.5910 96.2948
" />
<path d="M87.5910 96.2948
L87.4957 96.2948
" />
<path d="M88.2576 95.2948
L88.8767 95.2948
" />
<path d="M88.8767 95.2948
L88.5433 95.6758
" />
<path d="M88.5433 95.6758
L88.6862 95.6758
" />
<path d="M88.6862 95.6758
L88.7814 95.7234
" />
<path d="M88.7814 95.7234
L88.8290 95.7710
" />
<path d="M88.8290 95.7710
L88.8767 95.8662
" />
<path d="M88.8767 95.8662
L88.8767 96.1043
" />
<path d="M88.8767 96.1043
L88.8290 96.1996
" />
<path d="M88.8290 96.1996
L88.7814 96.2472
" />
<path d="M88.7814 96.2472
L88.6862 96.2948
" />
<path d="M88.6862 96.2948
L88.4005 96.2948
" />
<path d="M88.4005 96.2948
L88.3052 96.2472
" />
<path d="M88.3052 96.2472
L88.2576 96.1996
" />
</g><text x="57.5200" y="79.1500"
textLength="2.2024" font-size="1.3333" lengthAdjust="spacingAndGlyphs"
text-anchor="middle" opacity="0">R8</text>
<g class="stroked-text"><desc>R8</desc>
<path d="M57.3533 79.1048
L57.0200 78.6286
" />
<path d="M56.7819 79.1048
L56.7819 78.1048
" />
<path d="M56.7819 78.1048
L57.1629 78.1048
" />
<path d="M57.1629 78.1048
L57.2581 78.1524
" />
<path d="M57.2581 78.1524
L57.3057 78.2001
" />
<path d="M57.3057 78.2001
L57.3533 78.2953
" />
<path d="M57.3533 78.2953
L57.3533 78.4382
" />
<path d="M57.3533 78.4382
L57.3057 78.5334
" />
<path d="M57.3057 78.5334
L57.2581 78.5810
" />
<path d="M57.2581 78.5810
L57.1629 78.6286
" />
<path d="M57.1629 78.6286
L56.7819 78.6286
" />
<path d="M57.9248 78.5334
L57.8295 78.4858
" />
<path d="M57.8295 78.4858
L57.7819 78.4382
" />
<path d="M57.7819 78.4382
L57.7343 78.3429
" />
<path d="M57.7343 78.3429
L57.7343 78.2953
" />
<path d="M57.7343 78.2953
L57.7819 78.2001
" />
<path d="M57.7819 78.2001
L57.8295 78.1524
" />
<path d="M57.8295 78.1524
L57.9248 78.1048
" />
<path d="M57.9248 78.1048
L58.1152 78.1048
" />
<path d="M58.1152 78.1048
L58.2105 78.1524
" />
<path d="M58.2105 78.1524
L58.2581 78.2001
" />
<path d="M58.2581 78.2001
L58.3057 78.2953
" />
<path d="M58.3057 78.2953
L58.3057 78.3429
" />
<path d="M58.3057 78.3429
L58.2581 78.4382
" />
<path d="M58.2581 78.4382
L58.2105 78.4858
" />
<path d="M58.2105 78.4858
L58.1152 78.5334
" />
<path d="M58.1152 78.5334
L57.9248 78.5334
" />
<path d="M57.9248 78.5334
L57.8295 78.5810
" />
<path d="M57.8295 78.5810
L57.7819 78.6286
" />
<path d="M57.7819 78.6286
L57.7343 78.7239
" />
<path d="M57.7343 78.7239
L57.7343 78.9143
" />
<path d="M57.7343 78.9143
L57.7819 79.0096
" />
<path d="M57.7819 79.0096
L57.8295 79.0572
" />
<path d="M57.8295 79.0572
L57.9248 79.1048
" />
<path d="M57.9248 79.1048
L58.1152 79.1048
" />
<path d="M58.1152 79.1048
L58.2105 79.0572
" />
<path d="M58.2105 79.0572
L58.2581 79.0096
" />
<path d="M58.2581 79.0096
L58.3057 78.9143
" />
<path d="M58.3057 78.9143
L58.3057 78.7239
" />
<path d="M58.3057 78.7239
L58.2581 78.6286
" />
<path d="M58.2581 78.6286
L58.2105 78.5810
" />
<path d="M58.2105 78.5810
L58.1152 78.5334
" />
</g><text x="65.6500" y="80.8200"
textLength="3.1548" font-size="1.3333" lengthAdjust="spacingAndGlyphs"
text-anchor="middle" opacity="0">R12</text>
<g class="stroked-text"><desc>R12</desc>
<path d="M65.0071 80.7748
L64.6738 80.2986
" />
<path d="M64.4357 80.7748
L64.4357 79.7748
" />
<path d="M64.4357 79.7748
L64.8167 79.7748
" />
<path d="M64.8167 79.7748
L64.9119 79.8224
" />
<path d="M64.9119 79.8224
L64.9595 79.8701
" />
<path d="M64.9595 79.8701
L65.0071 79.9653
" />
<path d="M65.0071 79.9653
L65.0071 80.1082
" />
<path d="M65.0071 80.1082
L64.9595 80.2034
" />
<path d="M64.9595 80.2034
L64.9119 80.2510
" />
<path d="M64.9119 80.2510
L64.8167 80.2986
" />
<path d="M64.8167 80.2986
L64.4357 80.2986
" />
<path d="M65.9595 80.7748
L65.3881 80.7748
" />
<path d="M65.6738 80.7748
L65.6738 79.7748
" />
<path d="M65.6738 79.7748
L65.5786 79.9177
" />
<path d="M65.5786 79.9177
L65.4833 80.0129
" />
<path d="M65.4833 80.0129
L65.3881 80.0605
" />
<path d="M66.3405 79.8701
L66.3881 79.8224
" />
<path d="M66.3881 79.8224
L66.4833 79.7748
" />
<path d="M66.4833 79.7748
L66.7214 79.7748
" />
<path d="M66.7214 79.7748
L66.8167 79.8224
" />
<path d="M66.8167 79.8224
L66.8643 79.8701
" />
<path d="M66.8643 79.8701
L66.9119 79.9653
" />
<path d="M66.9119 79.9653
L66.9119 80.0605
" />
<path d="M66.9119 80.0605
L66.8643 80.2034
" />
<path d="M66.8643 80.2034
L66.2929 80.7748
" />
<path d="M66.2929 80.7748
L66.9119 80.7748
" />
</g><g transform="rotate(-90.000000 86.7300 89.5750)">
<text x="86.7300" y="90.0750"
textLength="3.1548" font-size="1.3333" lengthAdjust="spacingAndGlyphs"
text-anchor="middle" opacity="0">C13</text>
</g>
<g class="stroked-text"><desc>C13</desc>
<path d="M87.0896 90.2179
L87.1372 90.2655
" />
<path d="M87.1372 90.2655
L87.1848 90.4083
" />
<path d="M87.1848 90.4083
L87.1848 90.5036
" />
<path d="M87.1848 90.5036
L87.1372 90.6464
" />
<path d="M87.1372 90.6464
L87.0420 90.7417
" />
<path d="M87.0420 90.7417
L86.9467 90.7893
" />
<path d="M86.9467 90.7893
L86.7562 90.8369
" />
<path d="M86.7562 90.8369
L86.6134 90.8369
" />
<path d="M86.6134 90.8369
L86.4229 90.7893
" />
<path d="M86.4229 90.7893
L86.3277 90.7417
" />
<path d="M86.3277 90.7417
L86.2324 90.6464
" />
<path d="M86.2324 90.6464
L86.1848 90.5036
" />
<path d="M86.1848 90.5036
L86.1848 90.4083
" />
<path d="M86.1848 90.4083
L86.2324 90.2655
" />
<path d="M86.2324 90.2655
L86.2801 90.2179
" />
<path d="M87.1848 89.2655
L87.1848 89.8369
" />
<path d="M87.1848 89.5512
L86.1848 89.5512
" />
<path d="M86.1848 89.5512
L86.3277 89.6464
" />
<path d="M86.3277 89.6464
L86.4229 89.7417
" />
<path d="M86.4229 89.7417
L86.4705 89.8369
" />
<path d="M86.1848 88.9321
L86.1848 88.3131
" />
<path d="M86.1848 88.3131
L86.5658 88.6464
" />
<path d="M86.5658 88.6464
L86.5658 88.5036
" />
<path d="M86.5658 88.5036
L86.6134 88.4083
" />
<path d="M86.6134 88.4083
L86.6610 88.3607
" />
<path d="M86.6610 88.3607
L86.7562 88.3131
" />
<path d="M86.7562 88.3131
L86.9943 88.3131
" />
<path d="M86.9943 88.3131
L87.0896 88.3607
" />
<path d="M87.0896 88.3607
L87.1372 88.4083
" />
<path d="M87.1372 88.4083
L87.1848 88.5036
" />
<path d="M87.1848 88.5036
L87.1848 88.7893
" />
<path d="M87.1848 88.7893
L87.1372 88.8845
" />
<path d="M87.1372 88.8845
L87.0896 88.9321
" />
</g><g transform="rotate(-90.000000 121.3900 75.6900)">
<text x="121.3900" y="76.1900"
textLength="2.2024" font-size="1.3333" lengthAdjust="spacingAndGlyphs"
text-anchor="middle" opacity="0">C6</text>
</g>
<g class="stroked-text"><desc>C6</desc>
<path d="M121.7496 75.8567
L121.7972 75.9043
" />
<path d="M121.7972 75.9043
L121.8448 76.0471
" />
<path d="M121.8448 76.0471
L121.8448 76.1424
" />
<path d="M121.8448 76.1424
L121.7972 76.2852
" />
<path d="M121.7972 76.2852
L121.7020 76.3805
" />
<path d="M121.7020 76.3805
L121.6067 76.4281
" />
<path d="M121.6067 76.4281
L121.4162 76.4757
" />
<path d="M121.4162 76.4757
L121.2734 76.4757
" />
<path d="M121.2734 76.4757
L121.0829 76.4281
" />
<path d="M121.0829 76.4281
L120.9877 76.3805
" />
<path d="M120.9877 76.3805
L120.8924 76.2852
" />
<path d="M120.8924 76.2852
L120.8448 76.1424
" />
<path d="M120.8448 76.1424
L120.8448 76.0471
" />
<path d="M120.8448 76.0471
L120.8924 75.9043
" />
<path d="M120.8924 75.9043
L120.9401 75.8567
" />
<path d="M120.8448 74.9995
L120.8448 75.1900
" />
<path d="M120.8448 75.1900
L120.8924 75.2852
" />
<path d="M120.8924 75.2852
L120.9401 75.3329
" />
<path d="M120.9401 75.3329
L121.0829 75.4281
" />
<path d="M121.0829 75.4281
L121.2734 75.4757
" />
<path d="M121.2734 75.4757
L121.6543 75.4757
" />
<path d="M121.6543 75.4757
L121.7496 75.4281
" />
<path d="M121.7496 75.4281
L121.7972 75.3805
" />
<path d="M121.7972 75.3805
L121.8448 75.2852
" />
<path d="M121.8448 75.2852
L121.8448 75.0948
" />
<path d="M121.8448 75.0948
L121.7972 74.9995
" />
<path d="M121.7972 74.9995
L121.7496 74.9519
" />
<path d="M121.7496 74.9519
L121.6543 74.9043
" />
<path d="M121.6543 74.9043
L121.4162 74.9043
" />
<path d="M121.4162 74.9043
L121.3210 74.9519
" />
<path d="M121.3210 74.9519
L121.2734 74.9995
" />
<path d="M121.2734 74.9995
L121.2258 75.0948
" />
<path d="M121.2258 75.0948
L121.2258 75.2852
" />
<path d="M121.2258 75.2852
L121.2734 75.3805
" />
<path d="M121.2734 75.3805
L121.3210 75.4281
" />
<path d="M121.3210 75.4281
L121.4162 75.4757
" />
</g><g transform="rotate(-90.000000 106.7200 97.2875)">
<text x="106.7200" y="97.7875"
textLength="2.2024" font-size="1.3333" lengthAdjust="spacingAndGlyphs"
text-anchor="middle" opacity="0">C1</text>
</g>
<g class="stroked-text"><desc>C1</desc>
<path d="M107.0796 97.4542
L107.1272 97.5018
" />
<path d="M107.1272 97.5018
L107.1748 97.6446
" />
<path d="M107.1748 97.6446
L107.1748 97.7399
" />
<path d="M107.1748 97.7399
L107.1272 97.8827
" />
<path d="M107.1272 97.8827
L107.0320 97.9780
" />
<path d="M107.0320 97.9780
L106.9367 98.0256
" />
<path d="M106.9367 98.0256
L106.7462 98.0732
" />
<path d="M106.7462 98.0732
L106.6034 98.0732
" />
<path d="M106.6034 98.0732
L106.4129 98.0256
" />
<path d="M106.4129 98.0256
L106.3177 97.9780
" />
<path d="M106.3177 97.9780
L106.2224 97.8827
" />
<path d="M106.2224 97.8827
L106.1748 97.7399
" />
<path d="M106.1748 97.7399
L106.1748 97.6446
" />
<path d="M106.1748 97.6446
L106.2224 97.5018
" />
<path d="M106.2224 97.5018
L106.2701 97.4542
" />
<path d="M107.1748 96.5018
L107.1748 97.0732
" />
<path d="M107.1748 96.7875
L106.1748 96.7875
" />
<path d="M106.1748 96.7875
L106.3177 96.8827
" />
<path d="M106.3177 96.8827
L106.4129 96.9780
" />
<path d="M106.4129 96.9780
L106.4605 97.0732
" />
</g><g transform="rotate(-90.000000 115.1300 93.4950)">
<text x="115.1300" y="93.9950"
textLength="2.2024" font-size="1.3333" lengthAdjust="spacingAndGlyphs"
text-anchor="middle" opacity="0">R4</text>
</g>
<g class="stroked-text"><desc>R4</desc>
<path d="M115.5848 93.6617
L115.1086 93.9950
" />
<path d="M115.5848 94.2331
L114.5848 94.2331
" />
<path d="M114.5848 94.2331
L114.5848 93.8521
" />
<path d="M114.5848 93.8521
L114.6324 93.7569
" />
<path d="M114.6324 93.7569
L114.6801 93.7093
" />
<path d="M114.6801 93.7093
L114.7753 93.6617
" />
<path d="M114.7753 93.6617
L114.9182 93.6617
" />
<path d="M114.9182 93.6617
L115.0134 93.7093
" />
<path d="M115.0134 93.7093
L115.0610 93.7569
" />
<path d="M115.0610 93.7569
L115.1086 93.8521
" />
<path d="M115.1086 93.8521
L115.1086 94.2331
" />
<path d="M114.9182 92.8045
L115.5848 92.8045
" />
<path d="M114.5372 93.0426
L115.2515 93.2807
" />
<path d="M115.2515 93.2807
L115.2515 92.6617
" />
</g></g>
<g style="fill:#000000; fill-opacity:0.0; 
stroke:#000000; stroke-width:0.2540; stroke-opacity:1; 
stroke-linecap:round; stroke-linejoin:round;">
<g transform="rotate(-90.000000 116.5300 87.5500)">
<text x="116.5300" y="88.1850"
textLength="3.5923" font-size="1.6933" lengthAdjust="spacingAndGlyphs"
text-anchor="middle" opacity="0">IC4</text>
</g>
<g class="stroked-text"><desc>IC4</desc>
<path d="M117.1043 88.7898
L115.8343 88.7898
" />
<path d="M116.9834 87.4593
L117.0438 87.5198
" />
<path d="M117.0438 87.5198
L117.1043 87.7012
" />
<path d="M117.1043 87.7012
L117.1043 87.8221
" />
<path d="M117.1043 87.8221
L117.0438 88.0036
" />
<path d="M117.0438 88.0036
L116.9229 88.1245
" />
<path d="M116.9229 88.1245
L116.8019 88.1850
" />
<path d="M116.8019 88.1850
L116.5600 88.2455
" />
<path d="M116.5600 88.2455
L116.3786 88.2455
" />
<path d="M116.3786 88.2455
L116.1367 88.1850
" />
<path d="M116.1367 88.1850
L116.0157 88.1245
" />
<path d="M116.0157 88.1245
L115.8948 88.0036
" />
<path d="M115.8948 88.0036
L115.8343 87.8221
" />
<path d="M115.8343 87.8221
L115.8343 87.7012
" />
<path d="M115.8343 87.7012
L115.8948 87.5198
" />
<path d="M115.8948 87.5198
L115.9553 87.4593
" />
<path d="M116.2577 86.3707
L117.1043 86.3707
" />
<path d="M115.7738 86.6731
L116.6810 86.9755
" />
<path d="M116.6810 86.9755
L116.6810 86.1893
" />
</g></g>
<g style="fill:#000000; fill-opacity:0.0; 
stroke:#000000; stroke-width:0.1500; stroke-opacity:1; 
stroke-linecap:round; stroke-linejoin:round;">
<text x="81.0800" y="95.1500"
textLength="3.1548" font-size="1.3333" lengthAdjust="spacingAndGlyphs"
text-anchor="middle" opacity="0">R13</text>
<g class="stroked-text"><desc>R13</desc>
<path d="M80.4371 95.1048
L80.1038 94.6286
" />
<path d="M79.8657 95.1048
L79.8657 94.1048
" />
<path d="M79.8657 94.1048
L80.2467 94.1048
" />
<path d="M80.2467 94.1048
L80.3419 94.1524
" />
<path d="M80.3419 94.1524
L80.3895 94.2001
" />
<path d="M80.3895 94.2001
L80.4371 94.2953
" />
<path d="M80.4371 94.2953
L80.4371 94.4382
" />
<path d="M80.4371 94.4382
L80.3895 94.5334
" />
<path d="M80.3895 94.5334
L80.3419 94.5810
" />
<path d="M80.3419 94.5810
L80.2467 94.6286
" />
<path d="M80.2467 94.6286
L79.8657 94.6286
" />
<path d="M81.3895 95.1048
L80.8181 95.1048
" />
<path d="M81.1038 95.1048
L81.1038 94.1048
" />
<path d="M81.1038 94.1048
L81.0086 94.2477
" />
<path d="M81.0086 94.2477
L80.9133 94.3429
" />
<path d="M80.9133 94.3429
L80.8181 94.3905
" />
<path d="M81.7229 94.1048
L82.3419 94.1048
" />
<path d="M82.3419 94.1048
L82.0086 94.4858
" />
<path d="M82.0086 94.4858
L82.1514 94.4858
" />
<path d="M82.1514 94.4858
L82.2467 94.5334
" />
<path d="M82.2467 94.5334
L82.2943 94.5810
" />
<path d="M82.2943 94.5810
L82.3419 94.6762
" />
<path d="M82.3419 94.6762
L82.3419 94.9143
" />
<path d="M82.3419 94.9143
L82.2943 95.0096
" />
<path d="M82.2943 95.0096
L82.2467 95.0572
" />
<path d="M82.2467 95.0572
L82.1514 95.1048
" />
<path d="M82.1514 95.1048
L81.8657 95.1048
" />
<path d="M81.8657 95.1048
L81.7705 95.0572
" />
<path d="M81.7705 95.0572
L81.7229 95.0096
" />
</g><text x="104.3500" y="72.3800"
textLength="2.2024" font-size="1.3333" lengthAdjust="spacingAndGlyphs"
text-anchor="middle" opacity="0">C4</text>
<g class="stroked-text"><desc>C4</desc>
<path d="M104.1833 72.2396
L104.1357 72.2872
" />
<path d="M104.1357 72.2872
L103.9929 72.3348
" />
<path d="M103.9929 72.3348
L103.8976 72.3348
" />
<path d="M103.8976 72.3348
L103.7548 72.2872
" />
<path d="M103.7548 72.2872
L103.6595 72.1920
" />
<path d="M103.6595 72.1920
L103.6119 72.0967
" />
<path d="M103.6119 72.0967
L103.5643 71.9062
" />
<path d="M103.5643 71.9062
L103.5643 71.7634
" />
<path d="M103.5643 71.7634
L103.6119 71.5729
" />
<path d="M103.6119 71.5729
L103.6595 71.4777
" />
<path d="M103.6595 71.4777
L103.7548 71.3824
" />
<path d="M103.7548 71.3824
L103.8976 71.3348
" />
<path d="M103.8976 71.3348
L103.9929 71.3348
" />
<path d="M103.9929 71.3348
L104.1357 71.3824
" />
<path d="M104.1357 71.3824
L104.1833 71.4301
" />
<path d="M105.0405 71.6682
L105.0405 72.3348
" />
<path d="M104.8024 71.2872
L104.5643 72.0015
" />
<path d="M104.5643 72.0015
L105.1833 72.0015
" />
</g><text x="110.0500" y="99.7750"
textLength="1.9643" font-size="1.3333" lengthAdjust="spacingAndGlyphs"
text-anchor="middle" opacity="0">J2</text>
<g class="stroked-text"><desc>J2</desc>
<path d="M109.7167 98.7298
L109.7167 99.4441
" />
<path d="M109.7167 99.4441
L109.6690 99.5870
" />
<path d="M109.6690 99.5870
L109.5738 99.6822
" />
<path d="M109.5738 99.6822
L109.4310 99.7298
" />
<path d="M109.4310 99.7298
L109.3357 99.7298
" />
<path d="M110.1452 98.8251
L110.1929 98.7774
" />
<path d="M110.1929 98.7774
L110.2881 98.7298
" />
<path d="M110.2881 98.7298
L110.5262 98.7298
" />
<path d="M110.5262 98.7298
L110.6214 98.7774
" />
<path d="M110.6214 98.7774
L110.6690 98.8251
" />
<path d="M110.6690 98.8251
L110.7167 98.9203
" />
<path d="M110.7167 98.9203
L110.7167 99.0155
" />
<path d="M110.7167 99.0155
L110.6690 99.1584
" />
<path d="M110.6690 99.1584
L110.0976 99.7298
" />
<path d="M110.0976 99.7298
L110.7167 99.7298
" />
</g></g>
<g style="fill:#000000; fill-opacity:0.0; 
stroke:#000000; stroke-width:0.2540; stroke-opacity:1; 
stroke-linecap:round; stroke-linejoin:round;">
<text x="104.7000" y="76.9950"
textLength="3.5923" font-size="1.6933" lengthAdjust="spacingAndGlyphs"
text-anchor="middle" opacity="0">IC2</text>
<g class="stroked-text"><desc>IC2</desc>
<path d="M103.4602 76.9343
L103.4602 75.6643
" />
<path d="M104.7907 76.8134
L104.7302 76.8738
" />
<path d="M104.7302 76.8738
L104.5488 76.9343
" />
<path d="M104.5488 76.9343
L104.4279 76.9343
" />
<path d="M104.4279 76.9343
L104.2464 76.8738
" />
<path d="M104.2464 76.8738
L104.1255 76.7529
" />
<path d="M104.1255 76.7529
L104.0650 76.6319
" />
<path d="M104.0650 76.6319
L104.0045 76.3900
" />
<path d="M104.0045 76.3900
L104.0045 76.2086
" />
<path d="M104.0045 76.2086
L104.0650 75.9667
" />
<path d="M104.0650 75.9667
L104.1255 75.8457
" />
<path d="M104.1255 75.8457
L104.2464 75.7248
" />
<path d="M104.2464 75.7248
L104.4279 75.6643
" />
<path d="M104.4279 75.6643
L104.5488 75.6643
" />
<path d="M104.5488 75.6643
L104.7302 75.7248
" />
<path d="M104.7302 75.7248
L104.7907 75.7853
" />
<path d="M105.2745 75.7853
L105.3350 75.7248
" />
<path d="M105.3350 75.7248
L105.4560 75.6643
" />
<path d="M105.4560 75.6643
L105.7583 75.6643
" />
<path d="M105.7583 75.6643
L105.8793 75.7248
" />
<path d="M105.8793 75.7248
L105.9398 75.7853
" />
<path d="M105.9398 75.7853
L106.0002 75.9062
" />
<path d="M106.0002 75.9062
L106.0002 76.0272
" />
<path d="M106.0002 76.0272
L105.9398 76.2086
" />
<path d="M105.9398 76.2086
L105.2140 76.9343
" />
<path d="M105.2140 76.9343
L106.0002 76.9343
" />
</g></g>
<g style="fill:#000000; fill-opacity:0.0; 
stroke:#000000; stroke-width:0.1500; stroke-opacity:1; 
stroke-linecap:round; stroke-linejoin:round;">
<text x="89.6050" y="77.8938"
textLength="2.0595" font-size="1.3333" lengthAdjust="spacingAndGlyphs"
text-anchor="middle" opacity="0">Y1</text>
<g class="stroked-text"><desc>Y1</desc>
<path d="M89.1288 77.3725
L89.1288 77.8487
" />
<path d="M88.7955 76.8487
L89.1288 77.3725
" />
<path d="M89.1288 77.3725
L89.4621 76.8487
" />
<path d="M90.3193 77.8487
L89.7479 77.8487
" />
<path d="M90.0336 77.8487
L90.0336 76.8487
" />
<path d="M90.0336 76.8487
L89.9383 76.9915
" />
<path d="M89.9383 76.9915
L89.8431 77.0868
" />
<path d="M89.8431 77.0868
L89.7479 77.1344
" />
</g><text x="102.9000" y="93.2000"
textLength="2.2024" font-size="1.3333" lengthAdjust="spacingAndGlyphs"
text-anchor="middle" opacity="0">R1</text>
<g class="stroked-text"><desc>R1</desc>
<path d="M102.7333 93.1548
L102.4000 92.6786
" />
<path d="M102.1619 93.1548
L102.1619 92.1548
" />
<path d="M102.1619 92.1548
L102.5429 92.1548
" />
<path d="M102.5429 92.1548
L102.6381 92.2024
" />
<path d="M102.6381 92.2024
L102.6857 92.2501
" />
<path d="M102.6857 92.2501
L102.7333 92.3453
" />
<path d="M102.7333 92.3453
L102.7333 92.4882
" />
<path d="M102.7333 92.4882
L102.6857 92.5834
" />
<path d="M102.6857 92.5834
L102.6381 92.6310
" />
<path d="M102.6381 92.6310
L102.5429 92.6786
" />
<path d="M102.5429 92.6786
L102.1619 92.6786
" />
<path d="M103.6857 93.1548
L103.1143 93.1548
" />
<path d="M103.4000 93.1548
L103.4000 92.1548
" />
<path d="M103.4000 92.1548
L103.3048 92.2977
" />
<path d="M103.3048 92.2977
L103.2095 92.3929
" />
<path d="M103.2095 92.3929
L103.1143 92.4405
" />
</g></g>
<g style="fill:#000000; fill-opacity:0.0; 
stroke:#000000; stroke-width:0.2540; stroke-opacity:1; 
stroke-linecap:round; stroke-linejoin:round;">
<text x="73.5050" y="87.0600"
textLength="3.5923" font-size="1.6933" lengthAdjust="spacingAndGlyphs"
text-anchor="middle" opacity="0">IC1</text>
<g class="stroked-text"><desc>IC1</desc>
<path d="M72.2652 86.9993
L72.2652 85.7293
" />
<path d="M73.5957 86.8784
L73.5352 86.9388
" />
<path d="M73.5352 86.9388
L73.3538 86.9993
" />
<path d="M73.3538 86.9993
L73.2329 86.9993
" />
<path d="M73.2329 86.9993
L73.0514 86.9388
" />
<path d="M73.0514 86.9388
L72.9305 86.8179
" />
<path d="M72.9305 86.8179
L72.8700 86.6969
" />
<path d="M72.8700 86.6969
L72.8095 86.4550
" />
<path d="M72.8095 86.4550
L72.8095 86.2736
" />
<path d="M72.8095 86.2736
L72.8700 86.0317
" />
<path d="M72.8700 86.0317
L72.9305 85.9107
" />
<path d="M72.9305 85.9107
L73.0514 85.7898
" />
<path d="M73.0514 85.7898
L73.2329 85.7293
" />
<path d="M73.2329 85.7293
L73.3538 85.7293
" />
<path d="M73.3538 85.7293
L73.5352 85.7898
" />
<path d="M73.5352 85.7898
L73.5957 85.8503
" />
<path d="M74.8052 86.9993
L74.0795 86.9993
" />
<path d="M74.4424 86.9993
L74.4424 85.7293
" />
<path d="M74.4424 85.7293
L74.3214 85.9107
" />
<path d="M74.3214 85.9107
L74.2005 86.0317
" />
<path d="M74.2005 86.0317
L74.0795 86.0922
" />
</g></g>
<g style="fill:#000000; fill-opacity:0.0; 
stroke:#000000; stroke-width:0.1500; stroke-opacity:1; 
stroke-linecap:round; stroke-linejoin:round;">
<g transform="rotate(-90.000000 112.7200 87.6950)">
<text x="112.7200" y="88.1950"
textLength="2.2024" font-size="1.3333" lengthAdjust="spacingAndGlyphs"
text-anchor="middle" opacity="0">R3</text>
</g>
<g class="stroked-text"><desc>R3</desc>
<path d="M113.1748 87.8617
L112.6986 88.1950
" />
<path d="M113.1748 88.4331
L112.1748 88.4331
" />
<path d="M112.1748 88.4331
L112.1748 88.0521
" />
<path d="M112.1748 88.0521
L112.2224 87.9569
" />
<path d="M112.2224 87.9569
L112.2701 87.9093
" />
<path d="M112.2701 87.9093
L112.3653 87.8617
" />
<path d="M112.3653 87.8617
L112.5082 87.8617
" />
<path d="M112.5082 87.8617
L112.6034 87.9093
" />
<path d="M112.6034 87.9093
L112.6510 87.9569
" />
<path d="M112.6510 87.9569
L112.6986 88.0521
" />
<path d="M112.6986 88.0521
L112.6986 88.4331
" />
<path d="M112.1748 87.5283
L112.1748 86.9093
" />
<path d="M112.1748 86.9093
L112.5558 87.2426
" />
<path d="M112.5558 87.2426
L112.5558 87.0998
" />
<path d="M112.5558 87.0998
L112.6034 87.0045
" />
<path d="M112.6034 87.0045
L112.6510 86.9569
" />
<path d="M112.6510 86.9569
L112.7462 86.9093
" />
<path d="M112.7462 86.9093
L112.9843 86.9093
" />
<path d="M112.9843 86.9093
L113.0796 86.9569
" />
<path d="M113.0796 86.9569
L113.1272 87.0045
" />
<path d="M113.1272 87.0045
L113.1748 87.0998
" />
<path d="M113.1748 87.0998
L113.1748 87.3855
" />
<path d="M113.1748 87.3855
L113.1272 87.4807
" />
<path d="M113.1272 87.4807
L113.0796 87.5283
" />
</g><text x="93.6950" y="73.4900"
textLength="3.1548" font-size="1.3333" lengthAdjust="spacingAndGlyphs"
text-anchor="middle" opacity="0">C15</text>
<g class="stroked-text"><desc>C15</desc>
<path d="M93.0521 73.3496
L93.0045 73.3972
" />
<path d="M93.0045 73.3972
L92.8617 73.4448
" />
<path d="M92.8617 73.4448
L92.7664 73.4448
" />
<path d="M92.7664 73.4448
L92.6236 73.3972
" />
<path d="M92.6236 73.3972
L92.5283 73.3020
" />
<path d="M92.5283 73.3020
L92.4807 73.2067
" />
<path d="M92.4807 73.2067
L92.4331 73.0162
" />
<path d="M92.4331 73.0162
L92.4331 72.8734
" />
<path d="M92.4331 72.8734
L92.4807 72.6829
" />
<path d="M92.4807 72.6829
L92.5283 72.5877
" />
<path d="M92.5283 72.5877
L92.6236 72.4924
" />
<path d="M92.6236 72.4924
L92.7664 72.4448
" />
<path d="M92.7664 72.4448
L92.8617 72.4448
" />
<path d="M92.8617 72.4448
L93.0045 72.4924
" />
<path d="M93.0045 72.4924
L93.0521 72.5401
" />
<path d="M94.0045 73.4448
L93.4331 73.4448
" />
<path d="M93.7188 73.4448
L93.7188 72.4448
" />
<path d="M93.7188 72.4448
L93.6236 72.5877
" />
<path d="M93.6236 72.5877
L93.5283 72.6829
" />
<path d="M93.5283 72.6829
L93.4331 72.7305
" />
<path d="M94.9093 72.4448
L94.4331 72.4448
" />
<path d="M94.4331 72.4448
L94.3855 72.9210
" />
<path d="M94.3855 72.9210
L94.4331 72.8734
" />
<path d="M94.4331 72.8734
L94.5283 72.8258
" />
<path d="M94.5283 72.8258
L94.7664 72.8258
" />
<path d="M94.7664 72.8258
L94.8617 72.8734
" />
<path d="M94.8617 72.8734
L94.9093 72.9210
" />
<path d="M94.9093 72.9210
L94.9569 73.0162
" />
<path d="M94.9569 73.0162
L94.9569 73.2543
" />
<path d="M94.9569 73.2543
L94.9093 73.3496
" />
<path d="M94.9093 73.3496
L94.8617 73.3972
" />
<path d="M94.8617 73.3972
L94.7664 73.4448
" />
<path d="M94.7664 73.4448
L94.5283 73.4448
" />
<path d="M94.5283 73.4448
L94.4331 73.3972
" />
<path d="M94.4331 73.3972
L94.3855 73.3496
" />
</g><text x="63.1400" y="95.9700"
textLength="1.9643" font-size="1.3333" lengthAdjust="spacingAndGlyphs"
text-anchor="middle" opacity="0">J4</text>
<g class="stroked-text"><desc>J4</desc>
<path d="M62.8067 94.9248
L62.8067 95.6391
" />
<path d="M62.8067 95.6391
L62.7590 95.7820
" />
<path d="M62.7590 95.7820
L62.6638 95.8772
" />
<path d="M62.6638 95.8772
L62.5210 95.9248
" />
<path d="M62.5210 95.9248
L62.4257 95.9248
" />
<path d="M63.7114 95.2582
L63.7114 95.9248
" />
<path d="M63.4733 94.8772
L63.2352 95.5915
" />
<path d="M63.2352 95.5915
L63.8543 95.5915
" />
</g><text x="85.7550" y="76.4400"
textLength="3.1548" font-size="1.3333" lengthAdjust="spacingAndGlyphs"
text-anchor="middle" opacity="0">R14</text>
<g class="stroked-text"><desc>R14</desc>
<path d="M85.1121 76.3948
L84.7788 75.9186
" />
<path d="M84.5407 76.3948
L84.5407 75.3948
" />
<path d="M84.5407 75.3948
L84.9217 75.3948
" />
<path d="M84.9217 75.3948
L85.0169 75.4424
" />
<path d="M85.0169 75.4424
L85.0645 75.4901
" />
<path d="M85.0645 75.4901
L85.1121 75.5853
" />
<path d="M85.1121 75.5853
L85.1121 75.7282
" />
<path d="M85.1121 75.7282
L85.0645 75.8234
" />
<path d="M85.0645 75.8234
L85.0169 75.8710
" />
<path d="M85.0169 75.8710
L84.9217 75.9186
" />
<path d="M84.9217 75.9186
L84.5407 75.9186
" />
<path d="M86.0645 76.3948
L85.4931 76.3948
" />
<path d="M85.7788 76.3948
L85.7788 75.3948
" />
<path d="M85.7788 75.3948
L85.6836 75.5377
" />
<path d="M85.6836 75.5377
L85.5883 75.6329
" />
<path d="M85.5883 75.6329
L85.4931 75.6805
" />
<path d="M86.9217 75.7282
L86.9217 76.3948
" />
<path d="M86.6836 75.3472
L86.4455 76.0615
" />
<path d="M86.4455 76.0615
L87.0645 76.0615
" />
</g><text x="82.7050" y="76.4400"
textLength="3.1548" font-size="1.3333" lengthAdjust="spacingAndGlyphs"
text-anchor="middle" opacity="0">C14</text>
<g class="stroked-text"><desc>C14</desc>
<path d="M82.0621 76.2996
L82.0145 76.3472
" />
<path d="M82.0145 76.3472
L81.8717 76.3948
" />
<path d="M81.8717 76.3948
L81.7764 76.3948
" />
<path d="M81.7764 76.3948
L81.6336 76.3472
" />
<path d="M81.6336 76.3472
L81.5383 76.2520
" />
<path d="M81.5383 76.2520
L81.4907 76.1567
" />
<path d="M81.4907 76.1567
L81.4431 75.9662
" />
<path d="M81.4431 75.9662
L81.4431 75.8234
" />
<path d="M81.4431 75.8234
L81.4907 75.6329
" />
<path d="M81.4907 75.6329
L81.5383 75.5377
" />
<path d="M81.5383 75.5377
L81.6336 75.4424
" />
<path d="M81.6336 75.4424
L81.7764 75.3948
" />
<path d="M81.7764 75.3948
L81.8717 75.3948
" />
<path d="M81.8717 75.3948
L82.0145 75.4424
" />
<path d="M82.0145 75.4424
L82.0621 75.4901
" />
<path d="M83.0145 76.3948
L82.4431 76.3948
" />
<path d="M82.7288 76.3948
L82.7288 75.3948
" />
<path d="M82.7288 75.3948
L82.6336 75.5377
" />
<path d="M82.6336 75.5377
L82.5383 75.6329
" />
<path d="M82.5383 75.6329
L82.4431 75.6805
" />
<path d="M83.8717 75.7282
L83.8717 76.3948
" />
<path d="M83.6336 75.3472
L83.3955 76.0615
" />
<path d="M83.3955 76.0615
L84.0145 76.0615
" />
</g><g transform="rotate(-90.000000 79.0100 86.4750)">
<text x="79.0100" y="86.9750"
textLength="3.1548" font-size="1.3333" lengthAdjust="spacingAndGlyphs"
text-anchor="middle" opacity="0">C18</text>
</g>
<g class="stroked-text"><desc>C18</desc>
<path d="M79.3696 87.1179
L79.4172 87.1655
" />
<path d="M79.4172 87.1655
L79.4648 87.3083
" />
<path d="M79.4648 87.3083
L79.4648 87.4036
" />
<path d="M79.4648 87.4036
L79.4172 87.5464
" />
<path d="M79.4172 87.5464
L79.3220 87.6417
" />
<path d="M79.3220 87.6417
L79.2267 87.6893
" />
<path d="M79.2267 87.6893
L79.0362 87.7369
" />
<path d="M79.0362 87.7369
L78.8934 87.7369
" />
<path d="M78.8934 87.7369
L78.7029 87.6893
" />
<path d="M78.7029 87.6893
L78.6077 87.6417
" />
<path d="M78.6077 87.6417
L78.5124 87.5464
" />
<path d="M78.5124 87.5464
L78.4648 87.4036
" />
<path d="M78.4648 87.4036
L78.4648 87.3083
" />
<path d="M78.4648 87.3083
L78.5124 87.1655
" />
<path d="M78.5124 87.1655
L78.5601 87.1179
" />
<path d="M79.4648 86.1655
L79.4648 86.7369
" />
<path d="M79.4648 86.4512
L78.4648 86.4512
" />
<path d="M78.4648 86.4512
L78.6077 86.5464
" />
<path d="M78.6077 86.5464
L78.7029 86.6417
" />
<path d="M78.7029 86.6417
L78.7505 86.7369
" />
<path d="M78.8934 85.5940
L78.8458 85.6893
" />
<path d="M78.8458 85.6893
L78.7982 85.7369
" />
<path d="M78.7982 85.7369
L78.7029 85.7845
" />
<path d="M78.7029 85.7845
L78.6553 85.7845
" />
<path d="M78.6553 85.7845
L78.5601 85.7369
" />
<path d="M78.5601 85.7369
L78.5124 85.6893
" />
<path d="M78.5124 85.6893
L78.4648 85.5940
" />
<path d="M78.4648 85.5940
L78.4648 85.4036
" />
<path d="M78.4648 85.4036
L78.5124 85.3083
" />
<path d="M78.5124 85.3083
L78.5601 85.2607
" />
<path d="M78.5601 85.2607
L78.6553 85.2131
" />
<path d="M78.6553 85.2131
L78.7029 85.2131
" />
<path d="M78.7029 85.2131
L78.7982 85.2607
" />
<path d="M78.7982 85.2607
L78.8458 85.3083
" />
<path d="M78.8458 85.3083
L78.8934 85.4036
" />
<path d="M78.8934 85.4036
L78.8934 85.5940
" />
<path d="M78.8934 85.5940
L78.9410 85.6893
" />
<path d="M78.9410 85.6893
L78.9886 85.7369
" />
<path d="M78.9886 85.7369
L79.0839 85.7845
" />
<path d="M79.0839 85.7845
L79.2743 85.7845
" />
<path d="M79.2743 85.7845
L79.3696 85.7369
" />
<path d="M79.3696 85.7369
L79.4172 85.6893
" />
<path d="M79.4172 85.6893
L79.4648 85.5940
" />
<path d="M79.4648 85.5940
L79.4648 85.4036
" />
<path d="M79.4648 85.4036
L79.4172 85.3083
" />
<path d="M79.4172 85.3083
L79.3696 85.2607
" />
<path d="M79.3696 85.2607
L79.2743 85.2131
" />
<path d="M79.2743 85.2131
L79.0839 85.2131
" />
<path d="M79.0839 85.2131
L78.9886 85.2607
" />
<path d="M78.9886 85.2607
L78.9410 85.3083
" />
<path d="M78.9410 85.3083
L78.8934 85.4036
" />
</g><text x="70.3100" y="95.7400"
textLength="1.9643" font-size="1.3333" lengthAdjust="spacingAndGlyphs"
text-anchor="middle" opacity="0">J5</text>
<g class="stroked-text"><desc>J5</desc>
<path d="M69.9767 94.6948
L69.9767 95.4091
" />
<path d="M69.9767 95.4091
L69.9290 95.5520
" />
<path d="M69.9290 95.5520
L69.8338 95.6472
" />
<path d="M69.8338 95.6472
L69.6910 95.6948
" />
<path d="M69.6910 95.6948
L69.5957 95.6948
" />
<path d="M70.9290 94.6948
L70.4529 94.6948
" />
<path d="M70.4529 94.6948
L70.4052 95.1710
" />
<path d="M70.4052 95.1710
L70.4529 95.1234
" />
<path d="M70.4529 95.1234
L70.5481 95.0758
" />
<path d="M70.5481 95.0758
L70.7862 95.0758
" />
<path d="M70.7862 95.0758
L70.8814 95.1234
" />
<path d="M70.8814 95.1234
L70.9290 95.1710
" />
<path d="M70.9290 95.1710
L70.9767 95.2662
" />
<path d="M70.9767 95.2662
L70.9767 95.5043
" />
<path d="M70.9767 95.5043
L70.9290 95.5996
" />
<path d="M70.9290 95.5996
L70.8814 95.6472
" />
<path d="M70.8814 95.6472
L70.7862 95.6948
" />
<path d="M70.7862 95.6948
L70.5481 95.6948
" />
<path d="M70.5481 95.6948
L70.4529 95.6472
" />
<path d="M70.4529 95.6472
L70.4052 95.5996
" />
</g><g transform="rotate(-90.000000 99.2300 92.1400)">
<text x="99.2300" y="92.6400"
textLength="2.2500" font-size="1.3333" lengthAdjust="spacingAndGlyphs"
text-anchor="middle" opacity="0">U1</text>
</g>
<g class="stroked-text"><desc>U1</desc>
<path d="M98.6848 92.9019
L99.4943 92.9019
" />
<path d="M99.4943 92.9019
L99.5896 92.8543
" />
<path d="M99.5896 92.8543
L99.6372 92.8067
" />
<path d="M99.6372 92.8067
L99.6848 92.7114
" />
<path d="M99.6848 92.7114
L99.6848 92.5210
" />
<path d="M99.6848 92.5210
L99.6372 92.4257
" />
<path d="M99.6372 92.4257
L99.5896 92.3781
" />
<path d="M99.5896 92.3781
L99.4943 92.3305
" />
<path d="M99.4943 92.3305
L98.6848 92.3305
" />
<path d="M99.6848 91.3305
L99.6848 91.9019
" />
<path d="M99.6848 91.6162
L98.6848 91.6162
" />
<path d="M98.6848 91.6162
L98.8277 91.7114
" />
<path d="M98.8277 91.7114
L98.9229 91.8067
" />
<path d="M98.9229 91.8067
L98.9705 91.9019
" />
</g><g transform="rotate(-90.000000 88.0700 79.9900)">
<text x="88.0700" y="80.4900"
textLength="3.1548" font-size="1.3333" lengthAdjust="spacingAndGlyphs"
text-anchor="middle" opacity="0">C17</text>
</g>
<g class="stroked-text"><desc>C17</desc>
<path d="M88.4296 80.6329
L88.4772 80.6805
" />
<path d="M88.4772 80.6805
L88.5248 80.8233
" />
<path d="M88.5248 80.8233
L88.5248 80.9186
" />
<path d="M88.5248 80.9186
L88.4772 81.0614
" />
<path d="M88.4772 81.0614
L88.3820 81.1567
" />
<path d="M88.3820 81.1567
L88.2867 81.2043
" />
<path d="M88.2867 81.2043
L88.0962 81.2519
" />
<path d="M88.0962 81.2519
L87.9534 81.2519
" />
<path d="M87.9534 81.2519
L87.7629 81.2043
" />
<path d="M87.7629 81.2043
L87.6677 81.1567
" />
<path d="M87.6677 81.1567
L87.5724 81.0614
" />
<path d="M87.5724 81.0614
L87.5248 80.9186
" />
<path d="M87.5248 80.9186
L87.5248 80.8233
" />
<path d="M87.5248 80.8233
L87.5724 80.6805
" />
<path d="M87.5724 80.6805
L87.6201 80.6329
" />
<path d="M88.5248 79.6805
L88.5248 80.2519
" />
<path d="M88.5248 79.9662
L87.5248 79.9662
" />
<path d="M87.5248 79.9662
L87.6677 80.0614
" />
<path d="M87.6677 80.0614
L87.7629 80.1567
" />
<path d="M87.7629 80.1567
L87.8105 80.2519
" />
<path d="M87.5248 79.3471
L87.5248 78.6805
" />
<path d="M87.5248 78.6805
L88.5248 79.1090
" />
</g><text x="58.3900" y="78.8400"
textLength="1.9643" font-size="1.3333" lengthAdjust="spacingAndGlyphs"
text-anchor="middle" opacity="0">J7</text>
<g class="stroked-text"><desc>J7</desc>
<path d="M58.0567 77.7948
L58.0567 78.5091
" />
<path d="M58.0567 78.5091
L58.0090 78.6520
" />
<path d="M58.0090 78.6520
L57.9138 78.7472
" />
<path d="M57.9138 78.7472
L57.7710 78.7948
" />
<path d="M57.7710 78.7948
L57.6757 78.7948
" />
<path d="M58.4376 77.7948
L59.1043 77.7948
" />
<path d="M59.1043 77.7948
L58.6757 78.7948
" />
</g><text x="57.6400" y="87.8800"
textLength="2.2024" font-size="1.3333" lengthAdjust="spacingAndGlyphs"
text-anchor="middle" opacity="0">R9</text>
<g class="stroked-text"><desc>R9</desc>
<path d="M57.4733 87.8348
L57.1400 87.3586
" />
<path d="M56.9019 87.8348
L56.9019 86.8348
" />
<path d="M56.9019 86.8348
L57.2829 86.8348
" />
<path d="M57.2829 86.8348
L57.3781 86.8824
" />
<path d="M57.3781 86.8824
L57.4257 86.9301
" />
<path d="M57.4257 86.9301
L57.4733 87.0253
" />
<path d="M57.4733 87.0253
L57.4733 87.1682
" />
<path d="M57.4733 87.1682
L57.4257 87.2634
" />
<path d="M57.4257 87.2634
L57.3781 87.3110
" />
<path d="M57.3781 87.3110
L57.2829 87.3586
" />
<path d="M57.2829 87.3586
L56.9019 87.3586
" />
<path d="M57.9495 87.8348
L58.1400 87.8348
" />
<path d="M58.1400 87.8348
L58.2352 87.7872
" />
<path d="M58.2352 87.7872
L58.2829 87.7396
" />
<path d="M58.2829 87.7396
L58.3781 87.5967
" />
<path d="M58.3781 87.5967
L58.4257 87.4062
" />
<path d="M58.4257 87.4062
L58.4257 87.0253
" />
<path d="M58.4257 87.0253
L58.3781 86.9301
" />
<path d="M58.3781 86.9301
L58.3305 86.8824
" />
<path d="M58.3305 86.8824
L58.2352 86.8348
" />
<path d="M58.2352 86.8348
L58.0448 86.8348
" />
<path d="M58.0448 86.8348
L57.9495 86.8824
" />
<path d="M57.9495 86.8824
L57.9019 86.9301
" />
<path d="M57.9019 86.9301
L57.8543 87.0253
" />
<path d="M57.8543 87.0253
L57.8543 87.2634
" />
<path d="M57.8543 87.2634
L57.9019 87.3586
" />
<path d="M57.9019 87.3586
L57.9495 87.4062
" />
<path d="M57.9495 87.4062
L58.0448 87.4539
" />
<path d="M58.0448 87.4539
L58.2352 87.4539
" />
<path d="M58.2352 87.4539
L58.3305 87.4062
" />
<path d="M58.3305 87.4062
L58.3781 87.3586
" />
<path d="M58.3781 87.3586
L58.4257 87.2634
" />
</g><text x="70.1300" y="78.4600"
textLength="1.9643" font-size="1.3333" lengthAdjust="spacingAndGlyphs"
text-anchor="middle" opacity="0">J6</text>
<g class="stroked-text"><desc>J6</desc>
<path d="M69.7967 77.4148
L69.7967 78.1291
" />
<path d="M69.7967 78.1291
L69.7490 78.2720
" />
<path d="M69.7490 78.2720
L69.6538 78.3672
" />
<path d="M69.6538 78.3672
L69.5110 78.4148
" />
<path d="M69.5110 78.4148
L69.4157 78.4148
" />
<path d="M70.7014 77.4148
L70.5110 77.4148
" />
<path d="M70.5110 77.4148
L70.4157 77.4624
" />
<path d="M70.4157 77.4624
L70.3681 77.5101
" />
<path d="M70.3681 77.5101
L70.2729 77.6529
" />
<path d="M70.2729 77.6529
L70.2252 77.8434
" />
<path d="M70.2252 77.8434
L70.2252 78.2243
" />
<path d="M70.2252 78.2243
L70.2729 78.3196
" />
<path d="M70.2729 78.3196
L70.3205 78.3672
" />
<path d="M70.3205 78.3672
L70.4157 78.4148
" />
<path d="M70.4157 78.4148
L70.6062 78.4148
" />
<path d="M70.6062 78.4148
L70.7014 78.3672
" />
<path d="M70.7014 78.3672
L70.7490 78.3196
" />
<path d="M70.7490 78.3196
L70.7967 78.2243
" />
<path d="M70.7967 78.2243
L70.7967 77.9862
" />
<path d="M70.7967 77.9862
L70.7490 77.8910
" />
<path d="M70.7490 77.8910
L70.7014 77.8434
" />
<path d="M70.7014 77.8434
L70.6062 77.7958
" />
<path d="M70.6062 77.7958
L70.4157 77.7958
" />
<path d="M70.4157 77.7958
L70.3205 77.8434
" />
<path d="M70.3205 77.8434
L70.2729 77.8910
" />
<path d="M70.2729 77.8910
L70.2252 77.9862
" />
</g><g transform="rotate(-90.000000 102.0800 87.3100)">
<text x="102.0800" y="87.8100"
textLength="3.1548" font-size="1.3333" lengthAdjust="spacingAndGlyphs"
text-anchor="middle" opacity="0">C11</text>
</g>
<g class="stroked-text"><desc>C11</desc>
<path d="M102.4396 87.9529
L102.4872 88.0005
" />
<path d="M102.4872 88.0005
L102.5348 88.1433
" />
<path d="M102.5348 88.1433
L102.5348 88.2386
" />
<path d="M102.5348 88.2386
L102.4872 88.3814
" />
<path d="M102.4872 88.3814
L102.3920 88.4767
" />
<path d="M102.3920 88.4767
L102.2967 88.5243
" />
<path d="M102.2967 88.5243
L102.1062 88.5719
" />
<path d="M102.1062 88.5719
L101.9634 88.5719
" />
<path d="M101.9634 88.5719
L101.7729 88.5243
" />
<path d="M101.7729 88.5243
L101.6777 88.4767
" />
<path d="M101.6777 88.4767
L101.5824 88.3814
" />
<path d="M101.5824 88.3814
L101.5348 88.2386
" />
<path d="M101.5348 88.2386
L101.5348 88.1433
" />
<path d="M101.5348 88.1433
L101.5824 88.0005
" />
<path d="M101.5824 88.0005
L101.6301 87.9529
" />
<path d="M102.5348 87.0005
L102.5348 87.5719
" />
<path d="M102.5348 87.2862
L101.5348 87.2862
" />
<path d="M101.5348 87.2862
L101.6777 87.3814
" />
<path d="M101.6777 87.3814
L101.7729 87.4767
" />
<path d="M101.7729 87.4767
L101.8205 87.5719
" />
<path d="M102.5348 86.0481
L102.5348 86.6195
" />
<path d="M102.5348 86.3338
L101.5348 86.3338
" />
<path d="M101.5348 86.3338
L101.6777 86.4290
" />
<path d="M101.6777 86.4290
L101.7729 86.5243
" />
<path d="M101.7729 86.5243
L101.8205 86.6195
" />
</g><text x="96.7150" y="73.4838"
textLength="3.1548" font-size="1.3333" lengthAdjust="spacingAndGlyphs"
text-anchor="middle" opacity="0">C16</text>
<g class="stroked-text"><desc>C16</desc>
<path d="M96.0721 73.3434
L96.0245 73.3910
" />
<path d="M96.0245 73.3910
L95.8817 73.4387
" />
<path d="M95.8817 73.4387
L95.7864 73.4387
" />
<path d="M95.7864 73.4387
L95.6436 73.3910
" />
<path d="M95.6436 73.3910
L95.5483 73.2958
" />
<path d="M95.5483 73.2958
L95.5007 73.2006
" />
<path d="M95.5007 73.2006
L95.4531 73.0101
" />
<path d="M95.4531 73.0101
L95.4531 72.8672
" />
<path d="M95.4531 72.8672
L95.5007 72.6768
" />
<path d="M95.5007 72.6768
L95.5483 72.5815
" />
<path d="M95.5483 72.5815
L95.6436 72.4863
" />
<path d="M95.6436 72.4863
L95.7864 72.4387
" />
<path d="M95.7864 72.4387
L95.8817 72.4387
" />
<path d="M95.8817 72.4387
L96.0245 72.4863
" />
<path d="M96.0245 72.4863
L96.0721 72.5339
" />
<path d="M97.0245 73.4387
L96.4531 73.4387
" />
<path d="M96.7388 73.4387
L96.7388 72.4387
" />
<path d="M96.7388 72.4387
L96.6436 72.5815
" />
<path d="M96.6436 72.5815
L96.5483 72.6768
" />
<path d="M96.5483 72.6768
L96.4531 72.7244
" />
<path d="M97.8817 72.4387
L97.6912 72.4387
" />
<path d="M97.6912 72.4387
L97.5960 72.4863
" />
<path d="M97.5960 72.4863
L97.5483 72.5339
" />
<path d="M97.5483 72.5339
L97.4531 72.6768
" />
<path d="M97.4531 72.6768
L97.4055 72.8672
" />
<path d="M97.4055 72.8672
L97.4055 73.2482
" />
<path d="M97.4055 73.2482
L97.4531 73.3434
" />
<path d="M97.4531 73.3434
L97.5007 73.3910
" />
<path d="M97.5007 73.3910
L97.5960 73.4387
" />
<path d="M97.5960 73.4387
L97.7864 73.4387
" />
<path d="M97.7864 73.4387
L97.8817 73.3910
" />
<path d="M97.8817 73.3910
L97.9293 73.3434
" />
<path d="M97.9293 73.3434
L97.9769 73.2482
" />
<path d="M97.9769 73.2482
L97.9769 73.0101
" />
<path d="M97.9769 73.0101
L97.9293 72.9148
" />
<path d="M97.9293 72.9148
L97.8817 72.8672
" />
<path d="M97.8817 72.8672
L97.7864 72.8196
" />
<path d="M97.7864 72.8196
L97.5960 72.8196
" />
<path d="M97.5960 72.8196
L97.5007 72.8672
" />
<path d="M97.5007 72.8672
L97.4531 72.9148
" />
<path d="M97.4531 72.9148
L97.4055 73.0101
" />
</g><g transform="rotate(-90.000000 119.9500 75.6800)">
<text x="119.9500" y="76.1800"
textLength="2.2024" font-size="1.3333" lengthAdjust="spacingAndGlyphs"
text-anchor="middle" opacity="0">C5</text>
</g>
<g class="stroked-text"><desc>C5</desc>
<path d="M120.3096 75.8467
L120.3572 75.8943
" />
<path d="M120.3572 75.8943
L120.4048 76.0371
" />
<path d="M120.4048 76.0371
L120.4048 76.1324
" />
<path d="M120.4048 76.1324
L120.3572 76.2752
" />
<path d="M120.3572 76.2752
L120.2620 76.3705
" />
<path d="M120.2620 76.3705
L120.1667 76.4181
" />
<path d="M120.1667 76.4181
L119.9762 76.4657
" />
<path d="M119.9762 76.4657
L119.8334 76.4657
" />
<path d="M119.8334 76.4657
L119.6429 76.4181
" />
<path d="M119.6429 76.4181
L119.5477 76.3705
" />
<path d="M119.5477 76.3705
L119.4524 76.2752
" />
<path d="M119.4524 76.2752
L119.4048 76.1324
" />
<path d="M119.4048 76.1324
L119.4048 76.0371
" />
<path d="M119.4048 76.0371
L119.4524 75.8943
" />
<path d="M119.4524 75.8943
L119.5001 75.8467
" />
<path d="M119.4048 74.9419
L119.4048 75.4181
" />
<path d="M119.4048 75.4181
L119.8810 75.4657
" />
<path d="M119.8810 75.4657
L119.8334 75.4181
" />
<path d="M119.8334 75.4181
L119.7858 75.3229
" />
<path d="M119.7858 75.3229
L119.7858 75.0848
" />
<path d="M119.7858 75.0848
L119.8334 74.9895
" />
<path d="M119.8334 74.9895
L119.8810 74.9419
" />
<path d="M119.8810 74.9419
L119.9762 74.8943
" />
<path d="M119.9762 74.8943
L120.2143 74.8943
" />
<path d="M120.2143 74.8943
L120.3096 74.9419
" />
<path d="M120.3096 74.9419
L120.3572 74.9895
" />
<path d="M120.3572 74.9895
L120.4048 75.0848
" />
<path d="M120.4048 75.0848
L120.4048 75.3229
" />
<path d="M120.4048 75.3229
L120.3572 75.4181
" />
<path d="M120.3572 75.4181
L120.3096 75.4657
" />
</g><text x="57.6500" y="86.2800"
textLength="2.2024" font-size="1.3333" lengthAdjust="spacingAndGlyphs"
text-anchor="middle" opacity="0">R6</text>
<g class="stroked-text"><desc>R6</desc>
<path d="M57.4833 86.2348
L57.1500 85.7586
" />
<path d="M56.9119 86.2348
L56.9119 85.2348
" />
<path d="M56.9119 85.2348
L57.2929 85.2348
" />
<path d="M57.2929 85.2348
L57.3881 85.2824
" />
<path d="M57.3881 85.2824
L57.4357 85.3301
" />
<path d="M57.4357 85.3301
L57.4833 85.4253
" />
<path d="M57.4833 85.4253
L57.4833 85.5682
" />
<path d="M57.4833 85.5682
L57.4357 85.6634
" />
<path d="M57.4357 85.6634
L57.3881 85.7110
" />
<path d="M57.3881 85.7110
L57.2929 85.7586
" />
<path d="M57.2929 85.7586
L56.9119 85.7586
" />
<path d="M58.3405 85.2348
L58.1500 85.2348
" />
<path d="M58.1500 85.2348
L58.0548 85.2824
" />
<path d="M58.0548 85.2824
L58.0071 85.3301
" />
<path d="M58.0071 85.3301
L57.9119 85.4729
" />
<path d="M57.9119 85.4729
L57.8643 85.6634
" />
<path d="M57.8643 85.6634
L57.8643 86.0443
" />
<path d="M57.8643 86.0443
L57.9119 86.1396
" />
<path d="M57.9119 86.1396
L57.9595 86.1872
" />
<path d="M57.9595 86.1872
L58.0548 86.2348
" />
<path d="M58.0548 86.2348
L58.2452 86.2348
" />
<path d="M58.2452 86.2348
L58.3405 86.1872
" />
<path d="M58.3405 86.1872
L58.3881 86.1396
" />
<path d="M58.3881 86.1396
L58.4357 86.0443
" />
<path d="M58.4357 86.0443
L58.4357 85.8062
" />
<path d="M58.4357 85.8062
L58.3881 85.7110
" />
<path d="M58.3881 85.7110
L58.3405 85.6634
" />
<path d="M58.3405 85.6634
L58.2452 85.6158
" />
<path d="M58.2452 85.6158
L58.0548 85.6158
" />
<path d="M58.0548 85.6158
L57.9595 85.6634
" />
<path d="M57.9595 85.6634
L57.9119 85.7110
" />
<path d="M57.9119 85.7110
L57.8643 85.8062
" />
</g><text x="58.0100" y="95.0200"
textLength="3.1548" font-size="1.3333" lengthAdjust="spacingAndGlyphs"
text-anchor="middle" opacity="0">R10</text>
<g class="stroked-text"><desc>R10</desc>
<path d="M57.3671 94.9748
L57.0338 94.4986
" />
<path d="M56.7957 94.9748
L56.7957 93.9748
" />
<path d="M56.7957 93.9748
L57.1767 93.9748
" />
<path d="M57.1767 93.9748
L57.2719 94.0224
" />
<path d="M57.2719 94.0224
L57.3195 94.0701
" />
<path d="M57.3195 94.0701
L57.3671 94.1653
" />
<path d="M57.3671 94.1653
L57.3671 94.3082
" />
<path d="M57.3671 94.3082
L57.3195 94.4034
" />
<path d="M57.3195 94.4034
L57.2719 94.4510
" />
<path d="M57.2719 94.4510
L57.1767 94.4986
" />
<path d="M57.1767 94.4986
L56.7957 94.4986
" />
<path d="M58.3195 94.9748
L57.7481 94.9748
" />
<path d="M58.0338 94.9748
L58.0338 93.9748
" />
<path d="M58.0338 93.9748
L57.9386 94.1177
" />
<path d="M57.9386 94.1177
L57.8433 94.2129
" />
<path d="M57.8433 94.2129
L57.7481 94.2605
" />
<path d="M58.9386 93.9748
L59.0338 93.9748
" />
<path d="M59.0338 93.9748
L59.1290 94.0224
" />
<path d="M59.1290 94.0224
L59.1767 94.0701
" />
<path d="M59.1767 94.0701
L59.2243 94.1653
" />
<path d="M59.2243 94.1653
L59.2719 94.3558
" />
<path d="M59.2719 94.3558
L59.2719 94.5939
" />
<path d="M59.2719 94.5939
L59.2243 94.7843
" />
<path d="M59.2243 94.7843
L59.1767 94.8796
" />
<path d="M59.1767 94.8796
L59.1290 94.9272
" />
<path d="M59.1290 94.9272
L59.0338 94.9748
" />
<path d="M59.0338 94.9748
L58.9386 94.9748
" />
<path d="M58.9386 94.9748
L58.8433 94.9272
" />
<path d="M58.8433 94.9272
L58.7957 94.8796
" />
<path d="M58.7957 94.8796
L58.7481 94.7843
" />
<path d="M58.7481 94.7843
L58.7005 94.5939
" />
<path d="M58.7005 94.5939
L58.7005 94.3558
" />
<path d="M58.7005 94.3558
L58.7481 94.1653
" />
<path d="M58.7481 94.1653
L58.7957 94.0701
" />
<path d="M58.7957 94.0701
L58.8433 94.0224
" />
<path d="M58.8433 94.0224
L58.9386 93.9748
" />
</g><text x="80.8200" y="71.2300"
textLength="3.2976" font-size="1.3333" lengthAdjust="spacingAndGlyphs"
text-anchor="middle" opacity="0">SW1</text>
<g class="stroked-text"><desc>SW1</desc>
<path d="M79.4867 71.1372
L79.6295 71.1848
" />
<path d="M79.6295 71.1848
L79.8676 71.1848
" />
<path d="M79.8676 71.1848
L79.9629 71.1372
" />
<path d="M79.9629 71.1372
L80.0105 71.0896
" />
<path d="M80.0105 71.0896
L80.0581 70.9943
" />
<path d="M80.0581 70.9943
L80.0581 70.8991
" />
<path d="M80.0581 70.8991
L80.0105 70.8039
" />
<path d="M80.0105 70.8039
L79.9629 70.7562
" />
<path d="M79.9629 70.7562
L79.8676 70.7086
" />
<path d="M79.8676 70.7086
L79.6771 70.6610
" />
<path d="M79.6771 70.6610
L79.5819 70.6134
" />
<path d="M79.5819 70.6134
L79.5343 70.5658
" />
<path d="M79.5343 70.5658
L79.4867 70.4705
" />
<path d="M79.4867 70.4705
L79.4867 70.3753
" />
<path d="M79.4867 70.3753
L79.5343 70.2801
" />
<path d="M79.5343 70.2801
L79.5819 70.2324
" />
<path d="M79.5819 70.2324
L79.6771 70.1848
" />
<path d="M79.6771 70.1848
L79.9152 70.1848
" />
<path d="M79.9152 70.1848
L80.0581 70.2324
" />
<path d="M80.3914 70.1848
L80.6295 71.1848
" />
<path d="M80.6295 71.1848
L80.8200 70.4705
" />
<path d="M80.8200 70.4705
L81.0105 71.1848
" />
<path d="M81.0105 71.1848
L81.2486 70.1848
" />
<path d="M82.1533 71.1848
L81.5819 71.1848
" />
<path d="M81.8676 71.1848
L81.8676 70.1848
" />
<path d="M81.8676 70.1848
L81.7724 70.3277
" />
<path d="M81.7724 70.3277
L81.6771 70.4229
" />
<path d="M81.6771 70.4229
L81.5819 70.4705
" />
</g><g transform="rotate(-90.000000 100.5437 87.3670)">
<text x="100.5437" y="87.8670"
textLength="3.1548" font-size="1.3333" lengthAdjust="spacingAndGlyphs"
text-anchor="middle" opacity="0">C10</text>
</g>
<g class="stroked-text"><desc>C10</desc>
<path d="M100.9032 88.0099
L100.9509 88.0575
" />
<path d="M100.9509 88.0575
L100.9985 88.2003
" />
<path d="M100.9985 88.2003
L100.9985 88.2956
" />
<path d="M100.9985 88.2956
L100.9509 88.4384
" />
<path d="M100.9509 88.4384
L100.8556 88.5337
" />
<path d="M100.8556 88.5337
L100.7604 88.5813
" />
<path d="M100.7604 88.5813
L100.5699 88.6289
" />
<path d="M100.5699 88.6289
L100.4271 88.6289
" />
<path d="M100.4271 88.6289
L100.2366 88.5813
" />
<path d="M100.2366 88.5813
L100.1413 88.5337
" />
<path d="M100.1413 88.5337
L100.0461 88.4384
" />
<path d="M100.0461 88.4384
L99.9985 88.2956
" />
<path d="M99.9985 88.2956
L99.9985 88.2003
" />
<path d="M99.9985 88.2003
L100.0461 88.0575
" />
<path d="M100.0461 88.0575
L100.0937 88.0099
" />
<path d="M100.9985 87.0575
L100.9985 87.6289
" />
<path d="M100.9985 87.3432
L99.9985 87.3432
" />
<path d="M99.9985 87.3432
L100.1413 87.4384
" />
<path d="M100.1413 87.4384
L100.2366 87.5337
" />
<path d="M100.2366 87.5337
L100.2842 87.6289
" />
<path d="M99.9985 86.4384
L99.9985 86.3432
" />
<path d="M99.9985 86.3432
L100.0461 86.2480
" />
<path d="M100.0461 86.2480
L100.0937 86.2003
" />
<path d="M100.0937 86.2003
L100.1890 86.1527
" />
<path d="M100.1890 86.1527
L100.3794 86.1051
" />
<path d="M100.3794 86.1051
L100.6175 86.1051
" />
<path d="M100.6175 86.1051
L100.8080 86.1527
" />
<path d="M100.8080 86.1527
L100.9032 86.2003
" />
<path d="M100.9032 86.2003
L100.9509 86.2480
" />
<path d="M100.9509 86.2480
L100.9985 86.3432
" />
<path d="M100.9985 86.3432
L100.9985 86.4384
" />
<path d="M100.9985 86.4384
L100.9509 86.5337
" />
<path d="M100.9509 86.5337
L100.9032 86.5813
" />
<path d="M100.9032 86.5813
L100.8080 86.6289
" />
<path d="M100.8080 86.6289
L100.6175 86.6765
" />
<path d="M100.6175 86.6765
L100.3794 86.6765
" />
<path d="M100.3794 86.6765
L100.1890 86.6289
" />
<path d="M100.1890 86.6289
L100.0937 86.5813
" />
<path d="M100.0937 86.5813
L100.0461 86.5337
" />
<path d="M100.0461 86.5337
L99.9985 86.4384
" />
</g></g>
<g style="fill:#000000; fill-opacity:0.0; 
stroke:#000000; stroke-width:0.2540; stroke-opacity:1; 
stroke-linecap:round; stroke-linejoin:round;">
<text x="57.4050" y="91.5650"
textLength="3.0480" font-size="1.6933" lengthAdjust="spacingAndGlyphs"
text-anchor="middle" opacity="0">Q1</text>
<g class="stroked-text"><desc>Q1</desc>
<path d="M57.2840 91.6253
L57.1631 91.5648
" />
<path d="M57.1631 91.5648
L57.0421 91.4438
" />
<path d="M57.0421 91.4438
L56.8607 91.2624
" />
<path d="M56.8607 91.2624
L56.7398 91.2019
" />
<path d="M56.7398 91.2019
L56.6188 91.2019
" />
<path d="M56.6793 91.5043
L56.5583 91.4438
" />
<path d="M56.5583 91.4438
L56.4374 91.3229
" />
<path d="M56.4374 91.3229
L56.3769 91.0810
" />
<path d="M56.3769 91.0810
L56.3769 90.6577
" />
<path d="M56.3769 90.6577
L56.4374 90.4157
" />
<path d="M56.4374 90.4157
L56.5583 90.2948
" />
<path d="M56.5583 90.2948
L56.6793 90.2343
" />
<path d="M56.6793 90.2343
L56.9212 90.2343
" />
<path d="M56.9212 90.2343
L57.0421 90.2948
" />
<path d="M57.0421 90.2948
L57.1631 90.4157
" />
<path d="M57.1631 90.4157
L57.2236 90.6577
" />
<path d="M57.2236 90.6577
L57.2236 91.0810
" />
<path d="M57.2236 91.0810
L57.1631 91.3229
" />
<path d="M57.1631 91.3229
L57.0421 91.4438
" />
<path d="M57.0421 91.4438
L56.9212 91.5043
" />
<path d="M56.9212 91.5043
L56.6793 91.5043
" />
<path d="M58.4331 91.5043
L57.7074 91.5043
" />
<path d="M58.0702 91.5043
L58.0702 90.2343
" />
<path d="M58.0702 90.2343
L57.9493 90.4157
" />
<path d="M57.9493 90.4157
L57.8283 90.5367
" />
<path d="M57.8283 90.5367
L57.7074 90.5972
" />
</g></g>
<g style="fill:#000000; fill-opacity:0.0; 
stroke:#000000; stroke-width:0.1500; stroke-opacity:1; 
stroke-linecap:round; stroke-linejoin:round;">
<text x="65.3600" y="92.0400"
textLength="2.2024" font-size="1.3333" lengthAdjust="spacingAndGlyphs"
text-anchor="middle" opacity="0">R5</text>
<g class="stroked-text"><desc>R5</desc>
<path d="M65.1933 91.9948
L64.8600 91.5186
" />
<path d="M64.6219 91.9948
L64.6219 90.9948
" />
<path d="M64.6219 90.9948
L65.0029 90.9948
" />
<path d="M65.0029 90.9948
L65.0981 91.0424
" />
<path d="M65.0981 91.0424
L65.1457 91.0901
" />
<path d="M65.1457 91.0901
L65.1933 91.1853
" />
<path d="M65.1933 91.1853
L65.1933 91.3282
" />
<path d="M65.1933 91.3282
L65.1457 91.4234
" />
<path d="M65.1457 91.4234
L65.0981 91.4710
" />
<path d="M65.0981 91.4710
L65.0029 91.5186
" />
<path d="M65.0029 91.5186
L64.6219 91.5186
" />
<path d="M66.0981 90.9948
L65.6219 90.9948
" />
<path d="M65.6219 90.9948
L65.5743 91.4710
" />
<path d="M65.5743 91.4710
L65.6219 91.4234
" />
<path d="M65.6219 91.4234
L65.7171 91.3758
" />
<path d="M65.7171 91.3758
L65.9552 91.3758
" />
<path d="M65.9552 91.3758
L66.0505 91.4234
" />
<path d="M66.0505 91.4234
L66.0981 91.4710
" />
<path d="M66.0981 91.4710
L66.1457 91.5662
" />
<path d="M66.1457 91.5662
L66.1457 91.8043
" />
<path d="M66.1457 91.8043
L66.0981 91.8996
" />
<path d="M66.0981 91.8996
L66.0505 91.9472
" />
<path d="M66.0505 91.9472
L65.9552 91.9948
" />
<path d="M65.9552 91.9948
L65.7171 91.9948
" />
<path d="M65.7171 91.9948
L65.6219 91.9472
" />
<path d="M65.6219 91.9472
L65.5743 91.8996
" />
</g><g transform="rotate(-90.000000 109.9700 87.6500)">
<text x="109.9700" y="88.1500"
textLength="2.2500" font-size="1.3333" lengthAdjust="spacingAndGlyphs"
text-anchor="middle" opacity="0">U2</text>
</g>
<g class="stroked-text"><desc>U2</desc>
<path d="M109.4248 88.4119
L110.2343 88.4119
" />
<path d="M110.2343 88.4119
L110.3296 88.3643
" />
<path d="M110.3296 88.3643
L110.3772 88.3167
" />
<path d="M110.3772 88.3167
L110.4248 88.2214
" />
<path d="M110.4248 88.2214
L110.4248 88.0310
" />
<path d="M110.4248 88.0310
L110.3772 87.9357
" />
<path d="M110.3772 87.9357
L110.3296 87.8881
" />
<path d="M110.3296 87.8881
L110.2343 87.8405
" />
<path d="M110.2343 87.8405
L109.4248 87.8405
" />
<path d="M109.5201 87.4119
L109.4724 87.3643
" />
<path d="M109.4724 87.3643
L109.4248 87.2690
" />
<path d="M109.4248 87.2690
L109.4248 87.0310
" />
<path d="M109.4248 87.0310
L109.4724 86.9357
" />
<path d="M109.4724 86.9357
L109.5201 86.8881
" />
<path d="M109.5201 86.8881
L109.6153 86.8405
" />
<path d="M109.6153 86.8405
L109.7105 86.8405
" />
<path d="M109.7105 86.8405
L109.8534 86.8881
" />
<path d="M109.8534 86.8881
L110.4248 87.4595
" />
<path d="M110.4248 87.4595
L110.4248 86.8405
" />
</g></g>
<g style="fill:#000000; fill-opacity:0.0; 
stroke:#000000; stroke-width:0.2540; stroke-opacity:1; 
stroke-linecap:round; stroke-linejoin:round;">
<text x="57.3800" y="82.8650"
textLength="3.0480" font-size="1.6933" lengthAdjust="spacingAndGlyphs"
text-anchor="middle" opacity="0">Q2</text>
<g class="stroked-text"><desc>Q2</desc>
<path d="M57.2590 82.9253
L57.1381 82.8648
" />
<path d="M57.1381 82.8648
L57.0171 82.7438
" />
<path d="M57.0171 82.7438
L56.8357 82.5624
" />
<path d="M56.8357 82.5624
L56.7148 82.5019
" />
<path d="M56.7148 82.5019
L56.5938 82.5019
" />
<path d="M56.6543 82.8043
L56.5333 82.7438
" />
<path d="M56.5333 82.7438
L56.4124 82.6229
" />
<path d="M56.4124 82.6229
L56.3519 82.3810
" />
<path d="M56.3519 82.3810
L56.3519 81.9577
" />
<path d="M56.3519 81.9577
L56.4124 81.7157
" />
<path d="M56.4124 81.7157
L56.5333 81.5948
" />
<path d="M56.5333 81.5948
L56.6543 81.5343
" />
<path d="M56.6543 81.5343
L56.8962 81.5343
" />
<path d="M56.8962 81.5343
L57.0171 81.5948
" />
<path d="M57.0171 81.5948
L57.1381 81.7157
" />
<path d="M57.1381 81.7157
L57.1986 81.9577
" />
<path d="M57.1986 81.9577
L57.1986 82.3810
" />
<path d="M57.1986 82.3810
L57.1381 82.6229
" />
<path d="M57.1381 82.6229
L57.0171 82.7438
" />
<path d="M57.0171 82.7438
L56.8962 82.8043
" />
<path d="M56.8962 82.8043
L56.6543 82.8043
" />
<path d="M57.6824 81.6553
L57.7429 81.5948
" />
<path d="M57.7429 81.5948
L57.8638 81.5343
" />
<path d="M57.8638 81.5343
L58.1662 81.5343
" />
<path d="M58.1662 81.5343
L58.2871 81.5948
" />
<path d="M58.2871 81.5948
L58.3476 81.6553
" />
<path d="M58.3476 81.6553
L58.4081 81.7762
" />
<path d="M58.4081 81.7762
L58.4081 81.8972
" />
<path d="M58.4081 81.8972
L58.3476 82.0786
" />
<path d="M58.3476 82.0786
L57.6219 82.8043
" />
<path d="M57.6219 82.8043
L58.4081 82.8043
" />
</g></g>
<g style="fill:#000000; fill-opacity:0.0; 
stroke:#000000; stroke-width:0.1500; stroke-opacity:1; 
stroke-linecap:round; stroke-linejoin:round;">
<text x="65.4000" y="89.5200"
textLength="2.2024" font-size="1.3333" lengthAdjust="spacingAndGlyphs"
text-anchor="middle" opacity="0">R7</text>
<g class="stroked-text"><desc>R7</desc>
<path d="M65.2333 89.4748
L64.9000 88.9986
" />
<path d="M64.6619 89.4748
L64.6619 88.4748
" />
<path d="M64.6619 88.4748
L65.0429 88.4748
" />
<path d="M65.0429 88.4748
L65.1381 88.5224
" />
<path d="M65.1381 88.5224
L65.1857 88.5701
" />
<path d="M65.1857 88.5701
L65.2333 88.6653
" />
<path d="M65.2333 88.6653
L65.2333 88.8082
" />
<path d="M65.2333 88.8082
L65.1857 88.9034
" />
<path d="M65.1857 88.9034
L65.1381 88.9510
" />
<path d="M65.1381 88.9510
L65.0429 88.9986
" />
<path d="M65.0429 88.9986
L64.6619 88.9986
" />
<path d="M65.5667 88.4748
L66.2333 88.4748
" />
<path d="M66.2333 88.4748
L65.8048 89.4748
" />
</g><text x="97.4100" y="100.6450"
textLength="1.9643" font-size="1.3333" lengthAdjust="spacingAndGlyphs"
text-anchor="middle" opacity="0">J1</text>
<g class="stroked-text"><desc>J1</desc>
<path d="M97.0767 99.5998
L97.0767 100.3141
" />
<path d="M97.0767 100.3141
L97.0290 100.4570
" />
<path d="M97.0290 100.4570
L96.9338 100.5522
" />
<path d="M96.9338 100.5522
L96.7910 100.5998
" />
<path d="M96.7910 100.5998
L96.6957 100.5998
" />
<path d="M98.0767 100.5998
L97.5052 100.5998
" />
<path d="M97.7910 100.5998
L97.7910 99.5998
" />
<path d="M97.7910 99.5998
L97.6957 99.7427
" />
<path d="M97.6957 99.7427
L97.6005 99.8379
" />
<path d="M97.6005 99.8379
L97.5052 99.8855
" />
</g><text x="97.6450" y="97.9200"
textLength="2.2024" font-size="1.3333" lengthAdjust="spacingAndGlyphs"
text-anchor="middle" opacity="0">C8</text>
<g class="stroked-text"><desc>C8</desc>
<path d="M97.4783 97.7796
L97.4307 97.8272
" />
<path d="M97.4307 97.8272
L97.2879 97.8748
" />
<path d="M97.2879 97.8748
L97.1926 97.8748
" />
<path d="M97.1926 97.8748
L97.0498 97.8272
" />
<path d="M97.0498 97.8272
L96.9545 97.7320
" />
<path d="M96.9545 97.7320
L96.9069 97.6367
" />
<path d="M96.9069 97.6367
L96.8593 97.4462
" />
<path d="M96.8593 97.4462
L96.8593 97.3034
" />
<path d="M96.8593 97.3034
L96.9069 97.1129
" />
<path d="M96.9069 97.1129
L96.9545 97.0177
" />
<path d="M96.9545 97.0177
L97.0498 96.9224
" />
<path d="M97.0498 96.9224
L97.1926 96.8748
" />
<path d="M97.1926 96.8748
L97.2879 96.8748
" />
<path d="M97.2879 96.8748
L97.4307 96.9224
" />
<path d="M97.4307 96.9224
L97.4783 96.9701
" />
<path d="M98.0498 97.3034
L97.9545 97.2558
" />
<path d="M97.9545 97.2558
L97.9069 97.2082
" />
<path d="M97.9069 97.2082
L97.8593 97.1129
" />
<path d="M97.8593 97.1129
L97.8593 97.0653
" />
<path d="M97.8593 97.0653
L97.9069 96.9701
" />
<path d="M97.9069 96.9701
L97.9545 96.9224
" />
<path d="M97.9545 96.9224
L98.0498 96.8748
" />
<path d="M98.0498 96.8748
L98.2402 96.8748
" />
<path d="M98.2402 96.8748
L98.3355 96.9224
" />
<path d="M98.3355 96.9224
L98.3831 96.9701
" />
<path d="M98.3831 96.9701
L98.4307 97.0653
" />
<path d="M98.4307 97.0653
L98.4307 97.1129
" />
<path d="M98.4307 97.1129
L98.3831 97.2082
" />
<path d="M98.3831 97.2082
L98.3355 97.2558
" />
<path d="M98.3355 97.2558
L98.2402 97.3034
" />
<path d="M98.2402 97.3034
L98.0498 97.3034
" />
<path d="M98.0498 97.3034
L97.9545 97.3510
" />
<path d="M97.9545 97.3510
L97.9069 97.3986
" />
<path d="M97.9069 97.3986
L97.8593 97.4939
" />
<path d="M97.8593 97.4939
L97.8593 97.6843
" />
<path d="M97.8593 97.6843
L97.9069 97.7796
" />
<path d="M97.9069 97.7796
L97.9545 97.8272
" />
<path d="M97.9545 97.8272
L98.0498 97.8748
" />
<path d="M98.0498 97.8748
L98.2402 97.8748
" />
<path d="M98.2402 97.8748
L98.3355 97.8272
" />
<path d="M98.3355 97.8272
L98.3831 97.7796
" />
<path d="M98.3831 97.7796
L98.4307 97.6843
" />
<path d="M98.4307 97.6843
L98.4307 97.4939
" />
<path d="M98.4307 97.4939
L98.3831 97.3986
" />
<path d="M98.3831 97.3986
L98.3355 97.3510
" />
<path d="M98.3355 97.3510
L98.2402 97.3034
" />
</g><g transform="rotate(-90.000000 114.0800 89.9850)">
<text x="114.0800" y="90.4850"
textLength="2.2024" font-size="1.3333" lengthAdjust="spacingAndGlyphs"
text-anchor="middle" opacity="0">C2</text>
</g>
<g class="stroked-text"><desc>C2</desc>
<path d="M114.4396 90.1517
L114.4872 90.1993
" />
<path d="M114.4872 90.1993
L114.5348 90.3421
" />
<path d="M114.5348 90.3421
L114.5348 90.4374
" />
<path d="M114.5348 90.4374
L114.4872 90.5802
" />
<path d="M114.4872 90.5802
L114.3920 90.6755
" />
<path d="M114.3920 90.6755
L114.2967 90.7231
" />
<path d="M114.2967 90.7231
L114.1062 90.7707
" />
<path d="M114.1062 90.7707
L113.9634 90.7707
" />
<path d="M113.9634 90.7707
L113.7729 90.7231
" />
<path d="M113.7729 90.7231
L113.6777 90.6755
" />
<path d="M113.6777 90.6755
L113.5824 90.5802
" />
<path d="M113.5824 90.5802
L113.5348 90.4374
" />
<path d="M113.5348 90.4374
L113.5348 90.3421
" />
<path d="M113.5348 90.3421
L113.5824 90.1993
" />
<path d="M113.5824 90.1993
L113.6301 90.1517
" />
<path d="M113.6301 89.7707
L113.5824 89.7231
" />
<path d="M113.5824 89.7231
L113.5348 89.6279
" />
<path d="M113.5348 89.6279
L113.5348 89.3898
" />
<path d="M113.5348 89.3898
L113.5824 89.2945
" />
<path d="M113.5824 89.2945
L113.6301 89.2469
" />
<path d="M113.6301 89.2469
L113.7253 89.1993
" />
<path d="M113.7253 89.1993
L113.8205 89.1993
" />
<path d="M113.8205 89.1993
L113.9634 89.2469
" />
<path d="M113.9634 89.2469
L114.5348 89.8183
" />
<path d="M114.5348 89.8183
L114.5348 89.1993
" />
</g><text x="97.6400" y="96.4400"
textLength="2.2024" font-size="1.3333" lengthAdjust="spacingAndGlyphs"
text-anchor="middle" opacity="0">C9</text>
<g class="stroked-text"><desc>C9</desc>
<path d="M97.4733 96.2996
L97.4257 96.3472
" />
<path d="M97.4257 96.3472
L97.2829 96.3948
" />
<path d="M97.2829 96.3948
L97.1876 96.3948
" />
<path d="M97.1876 96.3948
L97.0448 96.3472
" />
<path d="M97.0448 96.3472
L96.9495 96.2520
" />
<path d="M96.9495 96.2520
L96.9019 96.1567
" />
<path d="M96.9019 96.1567
L96.8543 95.9662
" />
<path d="M96.8543 95.9662
L96.8543 95.8234
" />
<path d="M96.8543 95.8234
L96.9019 95.6329
" />
<path d="M96.9019 95.6329
L96.9495 95.5377
" />
<path d="M96.9495 95.5377
L97.0448 95.4424
" />
<path d="M97.0448 95.4424
L97.1876 95.3948
" />
<path d="M97.1876 95.3948
L97.2829 95.3948
" />
<path d="M97.2829 95.3948
L97.4257 95.4424
" />
<path d="M97.4257 95.4424
L97.4733 95.4901
" />
<path d="M97.9495 96.3948
L98.1400 96.3948
" />
<path d="M98.1400 96.3948
L98.2352 96.3472
" />
<path d="M98.2352 96.3472
L98.2829 96.2996
" />
<path d="M98.2829 96.2996
L98.3781 96.1567
" />
<path d="M98.3781 96.1567
L98.4257 95.9662
" />
<path d="M98.4257 95.9662
L98.4257 95.5853
" />
<path d="M98.4257 95.5853
L98.3781 95.4901
" />
<path d="M98.3781 95.4901
L98.3305 95.4424
" />
<path d="M98.3305 95.4424
L98.2352 95.3948
" />
<path d="M98.2352 95.3948
L98.0448 95.3948
" />
<path d="M98.0448 95.3948
L97.9495 95.4424
" />
<path d="M97.9495 95.4424
L97.9019 95.4901
" />
<path d="M97.9019 95.4901
L97.8543 95.5853
" />
<path d="M97.8543 95.5853
L97.8543 95.8234
" />
<path d="M97.8543 95.8234
L97.9019 95.9186
" />
<path d="M97.9019 95.9186
L97.9495 95.9662
" />
<path d="M97.9495 95.9662
L98.0448 96.0139
" />
<path d="M98.0448 96.0139
L98.2352 96.0139
" />
<path d="M98.2352 96.0139
L98.3305 95.9662
" />
<path d="M98.3305 95.9662
L98.3781 95.9186
" />
<path d="M98.3781 95.9186
L98.4257 95.8234
" />
</g><text x="110.6700" y="93.1450"
textLength="2.2024" font-size="1.3333" lengthAdjust="spacingAndGlyphs"
text-anchor="middle" opacity="0">R2</text>
<g class="stroked-text"><desc>R2</desc>
<path d="M110.5033 93.0998
L110.1700 92.6236
" />
<path d="M109.9319 93.0998
L109.9319 92.0998
" />
<path d="M109.9319 92.0998
L110.3129 92.0998
" />
<path d="M110.3129 92.0998
L110.4081 92.1474
" />
<path d="M110.4081 92.1474
L110.4557 92.1951
" />
<path d="M110.4557 92.1951
L110.5033 92.2903
" />
<path d="M110.5033 92.2903
L110.5033 92.4332
" />
<path d="M110.5033 92.4332
L110.4557 92.5284
" />
<path d="M110.4557 92.5284
L110.4081 92.5760
" />
<path d="M110.4081 92.5760
L110.3129 92.6236
" />
<path d="M110.3129 92.6236
L109.9319 92.6236
" />
<path d="M110.8843 92.1951
L110.9319 92.1474
" />
<path d="M110.9319 92.1474
L111.0271 92.0998
" />
<path d="M111.0271 92.0998
L111.2652 92.0998
" />
<path d="M111.2652 92.0998
L111.3605 92.1474
" />
<path d="M111.3605 92.1474
L111.4081 92.1951
" />
<path d="M111.4081 92.1951
L111.4557 92.2903
" />
<path d="M111.4557 92.2903
L111.4557 92.3855
" />
<path d="M111.4557 92.3855
L111.4081 92.5284
" />
<path d="M111.4081 92.5284
L110.8367 93.0998
" />
<path d="M110.8367 93.0998
L111.4557 93.0998
" />
</g><text x="65.6500" y="83.3300"
textLength="3.1548" font-size="1.3333" lengthAdjust="spacingAndGlyphs"
text-anchor="middle" opacity="0">R11</text>
<g class="stroked-text"><desc>R11</desc>
<path d="M65.0071 83.2848
L64.6738 82.8086
" />
<path d="M64.4357 83.2848
L64.4357 82.2848
" />
<path d="M64.4357 82.2848
L64.8167 82.2848
" />
<path d="M64.8167 82.2848
L64.9119 82.3324
" />
<path d="M64.9119 82.3324
L64.9595 82.3801
" />
<path d="M64.9595 82.3801
L65.0071 82.4753
" />
<path d="M65.0071 82.4753
L65.0071 82.6182
" />
<path d="M65.0071 82.6182
L64.9595 82.7134
" />
<path d="M64.9595 82.7134
L64.9119 82.7610
" />
<path d="M64.9119 82.7610
L64.8167 82.8086
" />
<path d="M64.8167 82.8086
L64.4357 82.8086
" />
<path d="M65.9595 83.2848
L65.3881 83.2848
" />
<path d="M65.6738 83.2848
L65.6738 82.2848
" />
<path d="M65.6738 82.2848
L65.5786 82.4277
" />
<path d="M65.5786 82.4277
L65.4833 82.5229
" />
<path d="M65.4833 82.5229
L65.3881 82.5705
" />
<path d="M66.9119 83.2848
L66.3405 83.2848
" />
<path d="M66.6262 83.2848
L66.6262 82.2848
" />
<path d="M66.6262 82.2848
L66.5310 82.4277
" />
<path d="M66.5310 82.4277
L66.4357 82.5229
" />
<path d="M66.4357 82.5229
L66.3405 82.5705
" />
</g><text x="106.7450" y="82.0300"
textLength="2.2024" font-size="1.3333" lengthAdjust="spacingAndGlyphs"
text-anchor="middle" opacity="0">C7</text>
<g class="stroked-text"><desc>C7</desc>
<path d="M106.5783 81.8896
L106.5307 81.9372
" />
<path d="M106.5307 81.9372
L106.3879 81.9848
" />
<path d="M106.3879 81.9848
L106.2926 81.9848
" />
<path d="M106.2926 81.9848
L106.1498 81.9372
" />
<path d="M106.1498 81.9372
L106.0545 81.8420
" />
<path d="M106.0545 81.8420
L106.0069 81.7467
" />
<path d="M106.0069 81.7467
L105.9593 81.5562
" />
<path d="M105.9593 81.5562
L105.9593 81.4134
" />
<path d="M105.9593 81.4134
L106.0069 81.2229
" />
<path d="M106.0069 81.2229
L106.0545 81.1277
" />
<path d="M106.0545 81.1277
L106.1498 81.0324
" />
<path d="M106.1498 81.0324
L106.2926 80.9848
" />
<path d="M106.2926 80.9848
L106.3879 80.9848
" />
<path d="M106.3879 80.9848
L106.5307 81.0324
" />
<path d="M106.5307 81.0324
L106.5783 81.0801
" />
<path d="M106.9117 80.9848
L107.5783 80.9848
" />
<path d="M107.5783 80.9848
L107.1498 81.9848
" />
</g><g transform="rotate(-90.000000 88.2400 89.5850)">
<text x="88.2400" y="90.0850"
textLength="3.1548" font-size="1.3333" lengthAdjust="spacingAndGlyphs"
text-anchor="middle" opacity="0">C12</text>
</g>
<g class="stroked-text"><desc>C12</desc>
<path d="M88.5996 90.2279
L88.6472 90.2755
" />
<path d="M88.6472 90.2755
L88.6948 90.4183
" />
<path d="M88.6948 90.4183
L88.6948 90.5136
" />
<path d="M88.6948 90.5136
L88.6472 90.6564
" />
<path d="M88.6472 90.6564
L88.5520 90.7517
" />
<path d="M88.5520 90.7517
L88.4567 90.7993
" />
<path d="M88.4567 90.7993
L88.2662 90.8469
" />
<path d="M88.2662 90.8469
L88.1234 90.8469
" />
<path d="M88.1234 90.8469
L87.9329 90.7993
" />
<path d="M87.9329 90.7993
L87.8377 90.7517
" />
<path d="M87.8377 90.7517
L87.7424 90.6564
" />
<path d="M87.7424 90.6564
L87.6948 90.5136
" />
<path d="M87.6948 90.5136
L87.6948 90.4183
" />
<path d="M87.6948 90.4183
L87.7424 90.2755
" />
<path d="M87.7424 90.2755
L87.7901 90.2279
" />
<path d="M88.6948 89.2755
L88.6948 89.8469
" />
<path d="M88.6948 89.5612
L87.6948 89.5612
" />
<path d="M87.6948 89.5612
L87.8377 89.6564
" />
<path d="M87.8377 89.6564
L87.9329 89.7517
" />
<path d="M87.9329 89.7517
L87.9805 89.8469
" />
<path d="M87.7901 88.8945
L87.7424 88.8469
" />
<path d="M87.7424 88.8469
L87.6948 88.7517
" />
<path d="M87.6948 88.7517
L87.6948 88.5136
" />
<path d="M87.6948 88.5136
L87.7424 88.4183
" />
<path d="M87.7424 88.4183
L87.7901 88.3707
" />
<path d="M87.7901 88.3707
L87.8853 88.3231
" />
<path d="M87.8853 88.3231
L87.9805 88.3231
" />
<path d="M87.9805 88.3231
L88.1234 88.3707
" />
<path d="M88.1234 88.3707
L88.6948 88.9421
" />
<path d="M88.6948 88.9421
L88.6948 88.3231
" />
</g></g>
<g style="fill:#000000; fill-opacity:0.0; 
stroke:#000000; stroke-width:0.1200; stroke-opacity:1; 
stroke-linecap:round; stroke-linejoin:round;">
<path d="M102.6444 80.3900
L102.9256 80.3900
" />
<path d="M102.6444 81.4100
L102.9256 81.4100
" />
<path d="M81.3300 102.6600
L81.3300 103.4000
" />
<path d="M81.3300 103.4000
L81.8300 103.4000
" />
<path d="M81.5700 96.8400
L81.5700 103.1600
" />
<path d="M81.5700 96.8400
L94.8500 96.8400
" />
<path d="M81.5700 97.3000
L94.8500 97.3000
" />
<path d="M81.5700 102.6000
L94.8500 102.6000
" />
<path d="M81.5700 103.1600
L94.8500 103.1600
" />
<path d="M94.8500 96.8400
L94.8500 103.1600
" />
<path d="M54.9027 78.1475
L55.3773 78.1475
" />
<path d="M54.9027 79.1925
L55.3773 79.1925
" />
<path d="M62.4547 79.8125
L62.9293 79.8125
" />
<path d="M62.4547 80.8575
L62.9293 80.8575
" />
<path d="M86.2100 92.6356
L86.2100 92.3544
" />
<path d="M87.2300 92.6356
L87.2300 92.3544
" />
<path d="M112.8800 79.0506
L112.8800 78.7694
" />
<path d="M113.9000 79.0506
L113.9000 78.7694
" />
<path d="M106.2150 95.0781
L106.2150 94.7969
" />
<path d="M107.2350 95.0781
L107.2350 94.7969
" />
<path d="M113.3075 93.7173
L113.3075 93.2427
" />
<path d="M114.3525 93.7173
L114.3525 93.2427
" />
</g>
<g style="fill:#000000; fill-opacity:0.0; 
stroke:#000000; stroke-width:0.2000; stroke-opacity:1; 
stroke-linecap:round; stroke-linejoin:round;">
<path d="M113.8300 91.0000
L113.8300 89.6000
" />
</g>
<g style="fill:#000000; fill-opacity:0.0; 
stroke:#000000; stroke-width:0.1200; stroke-opacity:1; 
stroke-linecap:round; stroke-linejoin:round;">
<path d="M81.3173 93.7425
L80.8427 93.7425
" />
<path d="M81.3173 92.6975
L80.8427 92.6975
" />
<path d="M101.7594 71.3500
L102.0406 71.3500
" />
<path d="M101.7594 72.3700
L102.0406 72.3700
" />
</g>
<g style="fill:#000000; fill-opacity:0.0; 
stroke:#000000; stroke-width:0.2000; stroke-opacity:1; 
stroke-linecap:round; stroke-linejoin:round;">
<path d="M114.3200 83.1000
L114.3200 71.6000
" />
<path d="M121.8700 83.1000
L114.3200 83.1000
" />
<path d="M114.3200 71.6000
L121.8700 71.6000
" />
<path d="M121.8700 71.6000
L121.8700 83.1000
" />
</g>
<g style="fill:#000000; fill-opacity:1.0000; 
stroke:#000000; stroke-width:0.0000; stroke-opacity:1; 
stroke-linecap:round; stroke-linejoin:round;">
<circle cx="122.6490" cy="79.8510" r="0.1960" /> 
</g>
<g style="fill:#000000; fill-opacity:1.0000; 
stroke:#000000; stroke-width:0.1200; stroke-opacity:1; 
stroke-linecap:round; stroke-linejoin:round;">
</g>
<g style="fill:#000000; fill-opacity:0.0; 
stroke:#000000; stroke-width:0.1200; stroke-opacity:1; 
stroke-linecap:round; stroke-linejoin:round;">
<path d="M111.5700 99.6700
L111.5700 97.9700
" />
<path d="M120.9100 99.6700
L120.9100 97.9700
" />
</g>
<g style="fill:#000000; fill-opacity:0.0; 
stroke:#000000; stroke-width:0.2000; stroke-opacity:1; 
stroke-linecap:round; stroke-linejoin:round;">
<path d="M100.6750 73.2600
L102.5250 73.2600
" />
<path d="M102.9500 73.1100
L106.4500 73.1100
" />
<path d="M102.9500 79.6100
L102.9500 73.1100
" />
<path d="M106.4500 73.1100
L106.4500 79.6100
" />
<path d="M106.4500 79.6100
L102.9500 79.6100
" />
</g>
<g style="fill:#000000; fill-opacity:0.0; 
stroke:#000000; stroke-width:0.1200; stroke-opacity:1; 
stroke-linecap:round; stroke-linejoin:round;">
<path d="M92.8700 75.5700
L97.5700 75.5700
" />
<path d="M92.8700 79.2700
L97.5700 79.2700
" />
<path d="M92.8700 75.5700 A1.8500 1.8500 0.0 0 0 92.8700 79.2700" />
<path d="M97.5700 79.2700 A1.8500 1.8500 0.0 0 0 97.5700 75.5700" />
<path d="M108.5123 93.1725
L108.0377 93.1725
" />
<path d="M108.5123 92.1275
L108.0377 92.1275
" />
</g>
<g style="fill:#000000; fill-opacity:0.0; 
stroke:#000000; stroke-width:0.2000; stroke-opacity:1; 
stroke-linecap:round; stroke-linejoin:round;">
<path d="M69.8550 81.4250
L71.3050 81.4250
" />
</g>
<g style="fill:#000000; fill-opacity:0.0; 
stroke:#000000; stroke-width:0.1200; stroke-opacity:1; 
stroke-linecap:round; stroke-linejoin:round;">
<path d="M112.2575 85.5673
L112.2575 85.0927
" />
<path d="M113.3025 85.5673
L113.3025 85.0927
" />
<path d="M93.5544 73.9100
L93.8356 73.9100
" />
<path d="M93.5544 74.9300
L93.8356 74.9300
" />
<path d="M53.0600 102.0600
L53.0600 102.8000
" />
<path d="M53.0600 102.8000
L53.5600 102.8000
" />
<path d="M53.3000 96.2400
L53.3000 102.5600
" />
<path d="M53.3000 96.2400
L64.0400 96.2400
" />
<path d="M53.3000 96.7000
L64.0400 96.7000
" />
<path d="M53.3000 102.0000
L64.0400 102.0000
" />
<path d="M53.3000 102.5600
L64.0400 102.5600
" />
<path d="M64.0400 96.2400
L64.0400 102.5600
" />
<path d="M85.5177 76.8475
L85.9923 76.8475
" />
<path d="M85.5177 77.8925
L85.9923 77.8925
" />
<path d="M82.5644 76.8600
L82.8456 76.8600
" />
<path d="M82.5644 77.8800
L82.8456 77.8800
" />
<path d="M79.9300 86.6156
L79.9300 86.3344
" />
<path d="M80.9500 86.6156
L80.9500 86.3344
" />
<path d="M64.7000 102.0600
L64.7000 102.8000
" />
<path d="M64.7000 102.8000
L65.2000 102.8000
" />
<path d="M64.9400 96.2400
L64.9400 102.5600
" />
<path d="M64.9400 96.2400
L75.6800 96.2400
" />
<path d="M64.9400 96.7000
L75.6800 96.7000
" />
<path d="M64.9400 102.0000
L75.6800 102.0000
" />
<path d="M64.9400 102.5600
L75.6800 102.5600
" />
<path d="M75.6800 96.2400
L75.6800 102.5600
" />
<path d="M98.2730 84.3025
L97.8230 84.3025
" />
<path d="M97.8230 84.3025
L97.8230 83.0125
" />
<path d="M91.0530 84.3025
L91.5030 84.3025
" />
<path d="M98.2730 84.7525
L98.2730 84.3025
" />
<path d="M91.0530 84.7525
L91.0530 84.3025
" />
<path d="M98.2730 91.0725
L98.2730 91.5225
" />
<path d="M91.0530 91.0725
L91.0530 91.5225
" />
<path d="M98.2730 91.5225
L97.8230 91.5225
" />
<path d="M91.0530 91.5225
L91.5030 91.5225
" />
<path d="M88.9900 80.1306
L88.9900 79.8494
" />
<path d="M90.0100 80.1306
L90.0100 79.8494
" />
<path d="M64.1000 71.1400
L64.1000 70.4000
" />
<path d="M64.1000 70.4000
L63.6000 70.4000
" />
<path d="M63.8600 76.9600
L63.8600 70.6400
" />
<path d="M63.8600 76.9600
L53.1200 76.9600
" />
<path d="M63.8600 76.5000
L53.1200 76.5000
" />
<path d="M63.8600 71.2000
L53.1200 71.2000
" />
<path d="M63.8600 70.6400
L53.1200 70.6400
" />
<path d="M53.1200 76.9600
L53.1200 70.6400
" />
<path d="M54.9177 86.8375
L55.3923 86.8375
" />
<path d="M54.9177 87.8825
L55.3923 87.8825
" />
<path d="M75.7400 71.1400
L75.7400 70.4000
" />
<path d="M75.7400 70.4000
L75.2400 70.4000
" />
<path d="M75.5000 76.9600
L75.5000 70.6400
" />
<path d="M75.5000 76.9600
L64.7600 76.9600
" />
<path d="M75.5000 76.5000
L64.7600 76.5000
" />
<path d="M75.5000 71.2000
L64.7600 71.2000
" />
<path d="M75.5000 70.6400
L64.7600 70.6400
" />
<path d="M64.7600 76.9600
L64.7600 70.6400
" />
<path d="M102.6300 84.3444
L102.6300 84.6256
" />
<path d="M101.6100 84.3444
L101.6100 84.6256
" />
<path d="M96.8606 74.9300
L96.5794 74.9300
" />
<path d="M96.8606 73.9100
L96.5794 73.9100
" />
<path d="M111.4200 79.0506
L111.4200 78.7694
" />
<path d="M112.4400 79.0506
L112.4400 78.7694
" />
<path d="M54.9027 85.2475
L55.3773 85.2475
" />
<path d="M54.9027 86.2925
L55.3773 86.2925
" />
<path d="M54.9177 93.9975
L55.3923 93.9975
" />
<path d="M54.9177 95.0425
L55.3923 95.0425
" />
<path d="M81.1300 71.5000
L87.2500 71.5000
" />
<path d="M81.1300 75.1200
L81.1300 71.5000
" />
<path d="M87.2500 71.5000
L87.2500 75.1200
" />
<path d="M87.2500 75.1200
L81.1300 75.1200
" />
<path d="M101.1200 84.3444
L101.1200 84.6256
" />
<path d="M100.1000 84.3444
L100.1000 84.6256
" />
</g>
<g style="fill:#000000; fill-opacity:0.0; 
stroke:#000000; stroke-width:0.2000; stroke-opacity:1; 
stroke-linecap:round; stroke-linejoin:round;">
<path d="M60.8800 93.5350
L59.3550 93.5350
" />
<path d="M59.0050 93.3800
L55.8050 93.3800
" />
<path d="M59.0050 88.4800
L59.0050 93.3800
" />
<path d="M55.8050 93.3800
L55.8050 88.4800
" />
<path d="M55.8050 88.4800
L59.0050 88.4800
" />
</g>
<g style="fill:#000000; fill-opacity:0.0; 
stroke:#000000; stroke-width:0.1200; stroke-opacity:1; 
stroke-linecap:round; stroke-linejoin:round;">
<path d="M62.5527 90.9975
L63.0273 90.9975
" />
<path d="M62.5527 92.0425
L63.0273 92.0425
" />
<path d="M109.2800 87.5000
L109.2800 84.0500
" />
<path d="M109.2800 87.5000
L109.2800 89.4500
" />
<path d="M104.1600 87.5000
L104.1600 85.5500
" />
<path d="M104.1600 87.5000
L104.1600 89.4500
" />
</g>
<g style="fill:#000000; fill-opacity:0.0; 
stroke:#000000; stroke-width:0.2000; stroke-opacity:1; 
stroke-linecap:round; stroke-linejoin:round;">
<path d="M60.8550 84.8350
L59.3300 84.8350
" />
<path d="M58.9800 84.6800
L55.7800 84.6800
" />
<path d="M58.9800 79.7800
L58.9800 84.6800
" />
<path d="M55.7800 84.6800
L55.7800 79.7800
" />
<path d="M55.7800 79.7800
L58.9800 79.7800
" />
</g>
<g style="fill:#000000; fill-opacity:0.0; 
stroke:#000000; stroke-width:0.1200; stroke-opacity:1; 
stroke-linecap:round; stroke-linejoin:round;">
<path d="M62.5677 88.5075
L63.0423 88.5075
" />
<path d="M62.5677 89.5525
L63.0423 89.5525
" />
<path d="M98.4400 102.7500
L98.4400 103.4900
" />
<path d="M98.4400 103.4900
L98.9400 103.4900
" />
<path d="M98.6800 96.9300
L98.6800 103.2500
" />
<path d="M98.6800 96.9300
L109.4200 96.9300
" />
<path d="M98.6800 97.3900
L109.4200 97.3900
" />
<path d="M98.6800 102.6900
L109.4200 102.6900
" />
<path d="M98.6800 103.2500
L109.4200 103.2500
" />
<path d="M109.4200 96.9300
L109.4200 103.2500
" />
<path d="M97.7856 96.5000
L97.5044 96.5000
" />
<path d="M97.7856 95.4800
L97.5044 95.4800
" />
<path d="M112.2700 90.1206
L112.2700 89.8394
" />
<path d="M113.2900 90.1206
L113.2900 89.8394
" />
<path d="M97.7806 95.0200
L97.4994 95.0200
" />
<path d="M97.7806 94.0000
L97.4994 94.0000
" />
<path d="M105.4973 93.1725
L105.0227 93.1725
" />
<path d="M105.4973 92.1275
L105.0227 92.1275
" />
<path d="M62.4797 82.3125
L62.9543 82.3125
" />
<path d="M62.4797 83.3575
L62.9543 83.3575
" />
<path d="M106.6044 82.4500
L106.8856 82.4500
" />
<path d="M106.6044 83.4700
L106.8856 83.4700
" />
<path d="M87.7200 92.6306
L87.7200 92.3494
" />
<path d="M88.7400 92.6306
L88.7400 92.3494
" />
<g >
</g>
<g >
</g>
<g >
</g>
<g >
</g>
<g >
</g>
<g >
</g>
<g >
</g>
<g >
</g>
<g >
</g>
<g >
</g>
<g >
</g>
<g >
</g>
<g >
</g>
<g >
</g>
<g >
</g>
<g >
</g>
<g >
</g>
<g >
</g>
<g >
</g>
<g >
</g>
<g >
</g>
<g >
</g>
<g >
</g>
<g >
</g>
<g >
</g>
<g >
</g>
<g >
</g>
<g >
</g>
<g >
</g>
<g >
</g>
<g >
</g>
<g >
</g>
<g >
</g>
<g >
</g>
<g >
</g>
<g >
</g>
<g >
</g>
<g >
</g>
<g >
</g>
<g >
</g>
<g >
</g>
<g >
</g>
<g >
</g>
<g >
</g>
<g >
</g>
<g >
</g>
<g >
</g>
<g >
</g>
<g >
</g>
<g >
</g>
<g >
</g>
<g >
</g>
</g> 
</svg>
