%TF.GenerationSoftware,KiCad,Pcbnew,7.0.10-7.0.10~ubuntu22.04.1*%
%TF.CreationDate,2024-03-09T00:22:00+09:00*%
%TF.ProjectId,iolink,696f6c69-6e6b-42e6-9b69-6361645f7063,rev?*%
%TF.SameCoordinates,Original*%
%TF.FileFunction,Paste,Top*%
%TF.FilePolarity,Positive*%
%FSLAX46Y46*%
G04 Gerber Fmt 4.6, Leading zero omitted, Abs format (unit mm)*
G04 Created by KiCad (PCBNEW 7.0.10-7.0.10~ubuntu22.04.1) date 2024-03-09 00:22:00*
%MOMM*%
%LPD*%
G01*
G04 APERTURE LIST*
G04 Aperture macros list*
%AMRoundRect*
0 Rectangle with rounded corners*
0 $1 Rounding radius*
0 $2 $3 $4 $5 $6 $7 $8 $9 X,Y pos of 4 corners*
0 Add a 4 corners polygon primitive as box body*
4,1,4,$2,$3,$4,$5,$6,$7,$8,$9,$2,$3,0*
0 Add four circle primitives for the rounded corners*
1,1,$1+$1,$2,$3*
1,1,$1+$1,$4,$5*
1,1,$1+$1,$6,$7*
1,1,$1+$1,$8,$9*
0 Add four rect primitives between the rounded corners*
20,1,$1+$1,$2,$3,$4,$5,0*
20,1,$1+$1,$4,$5,$6,$7,0*
20,1,$1+$1,$6,$7,$8,$9,0*
20,1,$1+$1,$8,$9,$2,$3,0*%
G04 Aperture macros list end*
%ADD10RoundRect,0.225000X-0.225000X-0.250000X0.225000X-0.250000X0.225000X0.250000X-0.225000X0.250000X0*%
%ADD11RoundRect,0.200000X-0.200000X-0.275000X0.200000X-0.275000X0.200000X0.275000X-0.200000X0.275000X0*%
%ADD12RoundRect,0.225000X0.250000X-0.225000X0.250000X0.225000X-0.250000X0.225000X-0.250000X-0.225000X0*%
%ADD13RoundRect,0.200000X0.275000X-0.200000X0.275000X0.200000X-0.275000X0.200000X-0.275000X-0.200000X0*%
%ADD14R,0.700000X1.400000*%
%ADD15R,3.200000X2.300000*%
%ADD16RoundRect,0.200000X0.200000X0.275000X-0.200000X0.275000X-0.200000X-0.275000X0.200000X-0.275000X0*%
%ADD17RoundRect,0.225000X-0.250000X0.225000X-0.250000X-0.225000X0.250000X-0.225000X0.250000X0.225000X0*%
%ADD18RoundRect,0.150000X-0.150000X-0.425000X0.150000X-0.425000X0.150000X0.425000X-0.150000X0.425000X0*%
%ADD19RoundRect,0.075000X-0.075000X-0.500000X0.075000X-0.500000X0.075000X0.500000X-0.075000X0.500000X0*%
%ADD20O,1.000000X2.100000*%
%ADD21O,1.000000X1.800000*%
%ADD22R,1.850000X0.900000*%
%ADD23R,1.850000X3.200000*%
%ADD24R,1.450000X0.300000*%
%ADD25R,2.740000X4.750000*%
%ADD26RoundRect,0.075000X-0.075000X0.662500X-0.075000X-0.662500X0.075000X-0.662500X0.075000X0.662500X0*%
%ADD27RoundRect,0.075000X-0.662500X0.075000X-0.662500X-0.075000X0.662500X-0.075000X0.662500X0.075000X0*%
%ADD28RoundRect,0.225000X0.225000X0.250000X-0.225000X0.250000X-0.225000X-0.250000X0.225000X-0.250000X0*%
%ADD29R,1.525000X0.700000*%
%ADD30RoundRect,0.150000X-0.150000X0.825000X-0.150000X-0.825000X0.150000X-0.825000X0.150000X0.825000X0*%
G04 APERTURE END LIST*
D10*
%TO.C,C3*%
X102010000Y-80900000D03*
X103560000Y-80900000D03*
%TD*%
D11*
%TO.C,R8*%
X54315000Y-78670000D03*
X55965000Y-78670000D03*
%TD*%
%TO.C,R12*%
X61867000Y-80335000D03*
X63517000Y-80335000D03*
%TD*%
D12*
%TO.C,C13*%
X86720000Y-93270000D03*
X86720000Y-91720000D03*
%TD*%
%TO.C,C6*%
X113390000Y-79685000D03*
X113390000Y-78135000D03*
%TD*%
%TO.C,C1*%
X106725000Y-95712500D03*
X106725000Y-94162500D03*
%TD*%
D13*
%TO.C,R4*%
X113830000Y-94305000D03*
X113830000Y-92655000D03*
%TD*%
D14*
%TO.C,IC4*%
X114530000Y-90300000D03*
X115530000Y-90300000D03*
X116530000Y-90300000D03*
X117530000Y-90300000D03*
X118530000Y-90300000D03*
X118530000Y-84800000D03*
X117530000Y-84800000D03*
X116530000Y-84800000D03*
X115530000Y-84800000D03*
X114530000Y-84800000D03*
D15*
X116530000Y-87550000D03*
%TD*%
D16*
%TO.C,R13*%
X81915000Y-94090000D03*
X80265000Y-94090000D03*
%TD*%
D17*
%TO.C,C4*%
X111570000Y-73930000D03*
X111570000Y-75480000D03*
%TD*%
D18*
%TO.C,J2*%
X113040000Y-96090000D03*
X113840000Y-96090000D03*
D19*
X114990000Y-96090000D03*
X115990000Y-96090000D03*
X116490000Y-96090000D03*
X117490000Y-96090000D03*
D18*
X118640000Y-96090000D03*
X119440000Y-96090000D03*
X119440000Y-96090000D03*
X118640000Y-96090000D03*
D19*
X117990000Y-96090000D03*
X116990000Y-96090000D03*
X115490000Y-96090000D03*
X114490000Y-96090000D03*
D18*
X113840000Y-96090000D03*
X113040000Y-96090000D03*
D20*
X111920000Y-96665000D03*
D21*
X111920000Y-100845000D03*
D20*
X120560000Y-96665000D03*
D21*
X120560000Y-100845000D03*
%TD*%
D22*
%TO.C,IC2*%
X103310000Y-73870000D03*
X103310000Y-76170000D03*
X103310000Y-78470000D03*
D23*
X109510000Y-76170000D03*
%TD*%
D16*
%TO.C,R1*%
X109100000Y-92650000D03*
X107450000Y-92650000D03*
%TD*%
D24*
%TO.C,IC1*%
X70580000Y-81925000D03*
X70580000Y-82425000D03*
X70580000Y-82925000D03*
X70580000Y-83425000D03*
X70580000Y-83925000D03*
X70580000Y-84425000D03*
X70580000Y-84925000D03*
X70580000Y-85425000D03*
X70580000Y-85925000D03*
X70580000Y-86425000D03*
X70580000Y-86925000D03*
X70580000Y-87425000D03*
X70580000Y-87925000D03*
X70580000Y-88425000D03*
X70580000Y-88925000D03*
X70580000Y-89425000D03*
X70580000Y-89925000D03*
X70580000Y-90425000D03*
X70580000Y-90925000D03*
X76430000Y-90925000D03*
X76430000Y-90425000D03*
X76430000Y-89925000D03*
X76430000Y-89425000D03*
X76430000Y-88925000D03*
X76430000Y-88425000D03*
X76430000Y-87925000D03*
X76430000Y-87425000D03*
X76430000Y-86925000D03*
X76430000Y-86425000D03*
X76430000Y-85925000D03*
X76430000Y-85425000D03*
X76430000Y-84925000D03*
X76430000Y-84425000D03*
X76430000Y-83925000D03*
X76430000Y-83425000D03*
X76430000Y-82925000D03*
X76430000Y-82425000D03*
X76430000Y-81925000D03*
D25*
X73505000Y-86425000D03*
%TD*%
D13*
%TO.C,R3*%
X112780000Y-86155000D03*
X112780000Y-84505000D03*
%TD*%
D10*
%TO.C,C15*%
X92920000Y-74420000D03*
X94470000Y-74420000D03*
%TD*%
D13*
%TO.C,R14*%
X89500000Y-77705000D03*
X89500000Y-76055000D03*
%TD*%
D17*
%TO.C,C14*%
X78190000Y-75215000D03*
X78190000Y-76765000D03*
%TD*%
D12*
%TO.C,C18*%
X80500000Y-87375000D03*
X80500000Y-85825000D03*
%TD*%
D26*
%TO.C,U1*%
X97413002Y-83750000D03*
X96913002Y-83750000D03*
X96413002Y-83750000D03*
X95913002Y-83750000D03*
X95413002Y-83750000D03*
X94913002Y-83750000D03*
X94413002Y-83750000D03*
X93913002Y-83750000D03*
X93413002Y-83750000D03*
X92913002Y-83750000D03*
X92413002Y-83750000D03*
X91913002Y-83750000D03*
D27*
X90500502Y-85162500D03*
X90500502Y-85662500D03*
X90500502Y-86162500D03*
X90500502Y-86662500D03*
X90500502Y-87162500D03*
X90500502Y-87662500D03*
X90500502Y-88162500D03*
X90500502Y-88662500D03*
X90500502Y-89162500D03*
X90500502Y-89662500D03*
X90500502Y-90162500D03*
X90500502Y-90662500D03*
D26*
X91913002Y-92075000D03*
X92413002Y-92075000D03*
X92913002Y-92075000D03*
X93413002Y-92075000D03*
X93913002Y-92075000D03*
X94413002Y-92075000D03*
X94913002Y-92075000D03*
X95413002Y-92075000D03*
X95913002Y-92075000D03*
X96413002Y-92075000D03*
X96913002Y-92075000D03*
X97413002Y-92075000D03*
D27*
X98825502Y-90662500D03*
X98825502Y-90162500D03*
X98825502Y-89662500D03*
X98825502Y-89162500D03*
X98825502Y-88662500D03*
X98825502Y-88162500D03*
X98825502Y-87662500D03*
X98825502Y-87162500D03*
X98825502Y-86662500D03*
X98825502Y-86162500D03*
X98825502Y-85662500D03*
X98825502Y-85162500D03*
%TD*%
D12*
%TO.C,C17*%
X89500000Y-80765000D03*
X89500000Y-79215000D03*
%TD*%
D11*
%TO.C,R9*%
X54330000Y-87360000D03*
X55980000Y-87360000D03*
%TD*%
D17*
%TO.C,C11*%
X102120000Y-83710000D03*
X102120000Y-85260000D03*
%TD*%
D28*
%TO.C,C16*%
X97495000Y-74420000D03*
X95945000Y-74420000D03*
%TD*%
D12*
%TO.C,C5*%
X111930000Y-79685000D03*
X111930000Y-78135000D03*
%TD*%
D11*
%TO.C,R6*%
X54315000Y-85770000D03*
X55965000Y-85770000D03*
%TD*%
%TO.C,R10*%
X54330000Y-94520000D03*
X55980000Y-94520000D03*
%TD*%
D17*
%TO.C,C10*%
X100610000Y-83710000D03*
X100610000Y-85260000D03*
%TD*%
D29*
%TO.C,Q1*%
X60117000Y-92835000D03*
X60117000Y-91565000D03*
X60117000Y-90295000D03*
X60117000Y-89025000D03*
X54693000Y-89025000D03*
X54693000Y-90295000D03*
X54693000Y-91565000D03*
X54693000Y-92835000D03*
%TD*%
D11*
%TO.C,R5*%
X61965000Y-91520000D03*
X63615000Y-91520000D03*
%TD*%
D30*
%TO.C,U2*%
X108625000Y-85025000D03*
X107355000Y-85025000D03*
X106085000Y-85025000D03*
X104815000Y-85025000D03*
X104815000Y-89975000D03*
X106085000Y-89975000D03*
X107355000Y-89975000D03*
X108625000Y-89975000D03*
%TD*%
D29*
%TO.C,Q2*%
X60092000Y-84135000D03*
X60092000Y-82865000D03*
X60092000Y-81595000D03*
X60092000Y-80325000D03*
X54668000Y-80325000D03*
X54668000Y-81595000D03*
X54668000Y-82865000D03*
X54668000Y-84135000D03*
%TD*%
D11*
%TO.C,R7*%
X61980000Y-89030000D03*
X63630000Y-89030000D03*
%TD*%
D28*
%TO.C,C8*%
X98420000Y-95990000D03*
X96870000Y-95990000D03*
%TD*%
D12*
%TO.C,C2*%
X112780000Y-90755000D03*
X112780000Y-89205000D03*
%TD*%
D28*
%TO.C,C9*%
X98415000Y-94510000D03*
X96865000Y-94510000D03*
%TD*%
D16*
%TO.C,R2*%
X106085000Y-92650000D03*
X104435000Y-92650000D03*
%TD*%
D11*
%TO.C,R11*%
X61892000Y-82835000D03*
X63542000Y-82835000D03*
%TD*%
D10*
%TO.C,C7*%
X105970000Y-82960000D03*
X107520000Y-82960000D03*
%TD*%
D12*
%TO.C,C12*%
X88230000Y-93265000D03*
X88230000Y-91715000D03*
%TD*%
M02*
