M48
; DRILL file {KiCad 7.0.10-7.0.10~ubuntu22.04.1} date 2024年03月09日 00時22分00秒
; FORMAT={-:-/ absolute / inch / decimal}
; #@! TF.CreationDate,2024-03-09T00:22:00+09:00
; #@! TF.GenerationSoftware,Kicad,Pcbnew,7.0.10-7.0.10~ubuntu22.04.1
; #@! TF.FileFunction,Plated,1,2,PTH
FMAT,2
INCH
; #@! TA.AperFunction,Plated,PTH,ViaDrill
T1C0.0157
; #@! TA.AperFunction,Plated,PTH,ComponentDrill
T2C0.0236
; #@! TA.AperFunction,Plated,PTH,ComponentDrill
T3C0.0315
; #@! TA.AperFunction,Plated,PTH,ComponentDrill
T4C0.0370
; #@! TA.AperFunction,Plated,PTH,ViaDrill
T5C0.0394
; #@! TA.AperFunction,Plated,PTH,ComponentDrill
T6C0.0433
%
G90
G05
T1
X2.0472Y-2.8346
X2.0472Y-2.874
X2.0472Y-2.9134
X2.0472Y-2.9528
X2.0472Y-2.9921
X2.0472Y-3.0315
X2.0472Y-3.0709
X2.0472Y-3.1102
X2.0472Y-3.1496
X2.0472Y-3.189
X2.0472Y-3.2283
X2.0472Y-3.2677
X2.0472Y-3.3071
X2.0472Y-3.3465
X2.0472Y-3.3858
X2.0472Y-3.4252
X2.0472Y-3.4646
X2.0472Y-3.5039
X2.0472Y-3.5433
X2.0472Y-3.5827
X2.0472Y-3.622
X2.0472Y-3.6614
X2.0472Y-3.7008
X2.0472Y-3.7402
X2.0472Y-3.7795
X2.0472Y-3.8189
X2.0472Y-3.8583
X2.0472Y-3.8976
X2.0472Y-3.937
X2.0472Y-3.9764
X2.0472Y-4.0157
X2.0669Y-2.7953
X2.0866Y-4.0354
X2.1031Y-3.3126
X2.1063Y-2.7953
X2.1094Y-3.5248
X2.1106Y-3.1839
X2.1126Y-3.6378
X2.126Y-4.0354
X2.1457Y-2.7953
X2.1654Y-4.0354
X2.185Y-2.7953
X2.2047Y-4.0354
X2.2244Y-2.7953
X2.2441Y-4.0354
X2.2638Y-2.7953
X2.2835Y-4.0354
X2.3031Y-2.7953
X2.3228Y-4.0354
X2.3425Y-2.7953
X2.3622Y-4.0354
X2.3701Y-3.0031
X2.3819Y-2.7953
X2.3858Y-3.7165
X2.4016Y-4.0354
X2.4213Y-2.7953
X2.4409Y-4.0354
X2.4606Y-2.7953
X2.4724Y-3.7165
X2.4803Y-4.0354
X2.5Y-2.7953
X2.515Y-3.374
X2.5197Y-4.0354
X2.5343Y-3.3252
X2.5394Y-2.7953
X2.545Y-3.1839
X2.5521Y-3.6207
X2.5591Y-4.0354
X2.5761Y-3.5124
X2.5787Y-2.7953
X2.5836Y-3.5511
X2.5846Y-3.1268
X2.5846Y-3.2476
X2.5984Y-4.0354
X2.6181Y-2.7953
X2.6229Y-3.5525
X2.626Y-3.2496
X2.6378Y-4.0354
X2.6575Y-2.7953
X2.6649Y-3.5546
X2.6772Y-4.0354
X2.6827Y-3.1256
X2.6969Y-2.7953
X2.7165Y-4.0354
X2.7362Y-2.7953
X2.7528Y-3.1307
X2.7559Y-4.0354
X2.7756Y-2.7953
X2.7835Y-3.6732
X2.7953Y-4.0354
X2.815Y-2.7953
X2.8346Y-4.0354
X2.8543Y-2.7953
X2.874Y-4.0354
X2.8937Y-2.7953
X2.8937Y-3.5551
X2.8937Y-3.6772
X2.8976Y-3.0945
X2.8976Y-3.1772
X2.8976Y-3.2717
X2.9134Y-4.0354
X2.9331Y-2.7953
X2.9528Y-4.0354
X2.9724Y-2.7953
X2.9921Y-3.6811
X2.9921Y-4.0354
X3.0118Y-2.7953
X3.0315Y-4.0354
X3.0472Y-3.8504
X3.0512Y-2.7953
X3.0709Y-4.0354
X3.0906Y-2.7953
X3.0965Y-3.3917
X3.1102Y-4.0354
X3.1126Y-3.5496
X3.1299Y-2.7953
X3.1496Y-4.0354
X3.1591Y-3.6671
X3.1693Y-2.7953
X3.1752Y-3.3004
X3.188Y-3.3376
X3.189Y-4.0354
X3.2087Y-2.7953
X3.2205Y-2.9843
X3.2242Y-3.7522
X3.2283Y-4.0354
X3.2311Y-3.5569
X3.248Y-2.7953
X3.2492Y-3.2821
X3.265Y-3.7526
X3.2677Y-4.0354
X3.2831Y-3.262
X3.2874Y-2.7953
X3.3042Y-3.7498
X3.3071Y-4.0354
X3.3232Y-3.5624
X3.3268Y-2.7953
X3.3337Y-3.3504
X3.3433Y-3.7455
X3.3465Y-4.0354
X3.3626Y-3.562
X3.3645Y-3.3114
X3.3661Y-2.7953
X3.3728Y-3.7063
X3.3819Y-2.9843
X3.3858Y-4.0354
X3.3926Y-3.1872
X3.393Y-3.283
X3.3972Y-3.4587
X3.4055Y-2.7953
X3.4252Y-4.0354
X3.4323Y-3.2801
X3.433Y-3.1872
X3.4392Y-3.5586
X3.4449Y-2.7953
X3.4646Y-4.0354
X3.4716Y-3.2801
X3.4723Y-3.1872
X3.4823Y-2.9559
X3.4823Y-3.1457
X3.4843Y-2.7953
X3.5039Y-3.344
X3.5039Y-4.0354
X3.5236Y-2.7953
X3.5433Y-4.0354
X3.5524Y-3.6575
X3.563Y-2.7953
X3.5661Y-3.1195
X3.5827Y-4.0354
X3.6024Y-2.7953
X3.6075Y-2.9295
X3.622Y-3.0126
X3.622Y-4.0354
X3.6327Y-3.0906
X3.6417Y-2.7953
X3.6417Y-3.3858
X3.6417Y-3.4606
X3.6417Y-3.5433
X3.6417Y-3.5433
X3.6614Y-4.0354
X3.6811Y-2.7953
X3.6811Y-3.1496
X3.7008Y-4.0354
X3.7205Y-2.7953
X3.7283Y-3.0063
X3.7283Y-3.3858
X3.7283Y-3.4606
X3.7283Y-3.5433
X3.7402Y-4.0354
X3.7598Y-2.7953
X3.7653Y-3.8435
X3.7795Y-4.0354
X3.7827Y-3.0031
X3.7992Y-2.7953
X3.8189Y-3.1496
X3.8189Y-3.2087
X3.8189Y-3.3858
X3.8189Y-3.4646
X3.8189Y-3.5433
X3.8189Y-4.0354
X3.8386Y-2.7953
X3.8441Y-3.8209
X3.8583Y-4.0354
X3.8728Y-3.0917
X3.8772Y-3.0114
X3.878Y-2.7953
X3.8898Y-2.9311
X3.8976Y-4.0354
X3.9173Y-2.7953
X3.937Y-4.0354
X3.9567Y-2.7953
X3.9728Y-3.6083
X3.9764Y-4.0354
X3.9961Y-2.7953
X4.0157Y-4.0354
X4.0213Y-3.2398
X4.0339Y-3.5083
X4.0354Y-2.7953
X4.0551Y-4.0354
X4.0626Y-3.8366
X4.0728Y-3.7161
X4.0748Y-2.7953
X4.0945Y-4.0354
X4.1142Y-2.7953
X4.1339Y-3.4409
X4.1339Y-4.0354
X4.1535Y-2.7953
X4.1732Y-4.0354
X4.178Y-3.2313
X4.1929Y-2.7953
X4.2012Y-3.8374
X4.2126Y-3.4409
X4.2126Y-4.0354
X4.2323Y-2.7953
X4.2348Y-3.2313
X4.252Y-4.0354
X4.2717Y-2.7953
X4.2913Y-3.4409
X4.2913Y-4.0354
X4.2957Y-3.1504
X4.311Y-2.7953
X4.3307Y-4.0354
X4.3504Y-2.7953
X4.3701Y-4.0354
X4.3898Y-2.7953
X4.4094Y-4.0354
X4.4291Y-2.7953
X4.4488Y-4.0354
X4.4685Y-2.7953
X4.4882Y-4.0354
X4.5079Y-2.7953
X4.5272Y-3.6728
X4.5276Y-3.2087
X4.5276Y-4.0354
X4.5472Y-2.7953
X4.5669Y-4.0354
X4.5866Y-2.7953
X4.6063Y-3.2087
X4.6063Y-4.0354
X4.6075Y-3.6506
X4.6175Y-3.7298
X4.626Y-2.7953
X4.64Y-3.2831
X4.6457Y-4.0354
X4.6654Y-2.7953
X4.685Y-4.0354
X4.7047Y-2.7953
X4.7047Y-3.2087
X4.7134Y-3.6506
X4.7244Y-4.0354
X4.7357Y-3.2914
X4.7441Y-2.7953
X4.7638Y-4.0354
X4.7835Y-2.7953
X4.8031Y-4.0354
X4.8228Y-2.815
X4.8228Y-2.8543
X4.8228Y-2.8937
X4.8228Y-2.9331
X4.8228Y-2.9724
X4.8228Y-3.0118
X4.8228Y-3.0512
X4.8228Y-3.0906
X4.8228Y-3.1299
X4.8228Y-3.1693
X4.8228Y-3.2087
X4.8228Y-3.248
X4.8228Y-3.2874
X4.8228Y-3.3268
X4.8228Y-3.3661
X4.8228Y-3.4055
X4.8228Y-3.4449
X4.8228Y-3.4843
X4.8228Y-3.5236
X4.8228Y-3.563
X4.8228Y-3.6024
X4.8228Y-3.6417
X4.8228Y-3.6811
X4.8228Y-3.7205
X4.8228Y-3.7598
X4.8228Y-3.7992
X4.8228Y-3.8386
X4.8228Y-3.878
X4.8228Y-3.9173
X4.8228Y-3.9567
X4.8228Y-3.9961
T3
X3.674Y-3.048
X3.8236Y-3.048
T4
X4.7193Y-2.9453
X4.7193Y-3.0453
X4.7193Y-3.1453
T5
X2.8937Y-3.3976
X4.5866Y-3.4449
X4.5866Y-3.4449
T6
X2.152Y-2.9004
X2.1583Y-3.9287
X2.252Y-2.9004
X2.2583Y-3.9287
X2.352Y-2.9004
X2.3583Y-3.9287
X2.452Y-2.9004
X2.4583Y-3.9287
X2.6098Y-2.9004
X2.6181Y-3.9291
X2.7098Y-2.9004
X2.7181Y-3.9291
X2.8098Y-2.9004
X2.8181Y-3.9291
X2.9098Y-2.9004
X2.9181Y-3.9291
X3.1728Y-2.8972
X3.1728Y-3.0744
X3.1748Y-3.9299
X3.2748Y-3.9299
X3.3748Y-3.9299
X3.4287Y-2.8972
X3.4287Y-3.0744
X3.4748Y-3.9299
X3.5748Y-3.9299
X3.6748Y-3.9299
X3.9453Y-3.9311
X4.0453Y-3.9311
X4.1453Y-3.9311
X4.2453Y-3.9311
T2
G00X4.4063Y-3.7841
M15
G01X4.4063Y-3.8274
M16
G05
G00X4.4063Y-3.9545
M15
G01X4.4063Y-3.986
M16
G05
G00X4.7465Y-3.7841
M15
G01X4.7465Y-3.8274
M16
G05
G00X4.7465Y-3.9545
M15
G01X4.7465Y-3.986
M16
G05
M30
